<svg xmlns="http://www.w3.org/2000/svg" width="301" height="266" viewBox="0 0 301 266"><defs><clipPath id="6khia"><path d="M103.884 84.525a4.914 4.914 0 1 1-9.827 0z"/></clipPath><clipPath id="6khib"><path d="M287.372 176.947a6.429 6.429 0 1 1-12.859 0z"/></clipPath><clipPath id="6khic"><path d="M226.413 18.766a5.912 5.912 0 1 1-11.825 0z"/></clipPath></defs><g><g opacity=".63"><path fill="#d1d3d4" d="M122.007 251.07c0-1.723 10.94-3.12 24.435-3.12s24.435 1.397 24.435 3.12c0 1.722-10.94 3.118-24.435 3.118s-24.435-1.396-24.435-3.119z"/></g><g><g><g><path fill="#ff6066" d="M190.717 10.145c0 5.478-4.441 9.92-9.92 9.92s-9.92-4.442-9.92-9.92c0-5.48 4.441-9.92 9.92-9.92s9.92 4.44 9.92 9.92z"/></g><g><path fill="#fff" d="M187.07 8.813c-.006 3.871-6.273 7.01-6.273 7.01s-6.251-3.139-6.272-7.01c-.028-4.94 6.445-3.65 6.501-1.432-.056-2.219 6.051-3.196 6.044 1.432z"/></g></g><g><g><path fill="#ff6066" d="M235.78 256.163a9.088 9.088 0 1 1 18.176 0 9.088 9.088 0 0 1-18.176 0z"/></g><g><path fill="#fff" d="M250.614 254.944c-.005 3.546-5.747 6.42-5.747 6.42s-5.727-2.874-5.746-6.42c-.025-4.526 5.905-3.345 5.956-1.312-.05-2.033 5.544-2.928 5.537 1.312z"/></g></g><g><g><path fill="#ff6066" d="M284.389 125.943a6.048 6.048 0 1 1 12.095 0 6.048 6.048 0 0 1-12.095 0z"/></g><g><path fill="#fff" d="M294.261 125.131c-.003 2.36-3.825 4.274-3.825 4.274s-3.81-1.914-3.824-4.274c-.016-3.012 3.93-2.225 3.964-.873-.034-1.352 3.69-1.949 3.685.873z"/></g></g><g><g><path fill="#ffe340" d="M92.873 87.037a6.594 6.594 0 1 1 12.195-5.024 6.594 6.594 0 0 1-12.195 5.024z"/></g><g><path fill="#2d2d2c" d="M103.884 84.525a4.914 4.914 0 1 1-9.827 0z"/></g><g><g><g/><g clip-path="url(#6khia)"><path fill="#ff6066" d="M95.654 89.484c0-1.27 1.485-2.301 3.316-2.301 1.832 0 3.317 1.03 3.317 2.301 0 1.271-1.485 2.302-3.317 2.302-1.831 0-3.316-1.03-3.316-2.302z"/></g></g></g><g><g><g><path fill="#2d2d2c" d="M94.932 83.385a.227.227 0 0 1-.055-.447l1.466-.367-1.373-.843a.227.227 0 0 1 .238-.387l1.833 1.126a.227.227 0 0 1-.064.413l-1.99.498a.253.253 0 0 1-.055.007z"/></g></g><g><g><path fill="#2d2d2c" d="M103.009 83.385a.253.253 0 0 1-.056-.007l-1.99-.498a.227.227 0 1 1-.064-.413l1.834-1.126a.228.228 0 0 1 .312.074.228.228 0 0 1-.075.313l-1.373.843 1.466.367c.123.03.196.153.165.275a.227.227 0 0 1-.22.172z"/></g></g></g></g><g><g><path fill="#ffe340" d="M289.572 176.947a8.629 8.629 0 1 1-17.258 0 8.629 8.629 0 0 1 17.258 0z"/></g><g><path fill="#2d2d2c" d="M287.372 176.947a6.429 6.429 0 1 1-12.859 0z"/></g><g><g><g/><g clip-path="url(#6khib)"><path fill="#ff6066" d="M285.283 183.437c0 1.663-1.944 3.011-4.34 3.011-2.397 0-4.34-1.348-4.34-3.011 0-1.664 1.943-3.012 4.34-3.012 2.396 0 4.34 1.348 4.34 3.012z"/></g></g></g><g><g><g><path fill="#2d2d2c" d="M275.659 175.455a.297.297 0 0 1-.072-.585l1.918-.48-1.796-1.103a.297.297 0 0 1 .31-.506l2.4 1.473a.3.3 0 0 1 .138.3.298.298 0 0 1-.222.242l-2.604.65a.298.298 0 0 1-.072.01z"/></g></g><g><g><path fill="#2d2d2c" d="M286.227 175.455a.305.305 0 0 1-.073-.008l-2.604-.651a.297.297 0 1 1-.084-.542l2.4-1.473a.297.297 0 1 1 .31.506l-1.796 1.104 1.919.48a.298.298 0 0 1-.072.584z"/></g></g></g></g><g><g><path fill="#ffe340" d="M218.685 26.49a7.935 7.935 0 1 1 3.632-15.449 7.935 7.935 0 0 1-3.632 15.45z"/></g><g><path fill="#2d2d2c" d="M226.413 18.766a5.912 5.912 0 1 1-11.825 0z"/></g><g><g><g/><g clip-path="url(#6khic)"><path fill="#ff6066" d="M224.492 24.734c0 1.53-1.787 2.769-3.991 2.769s-3.991-1.24-3.991-2.77 1.787-2.769 3.991-2.769 3.99 1.24 3.99 2.77z"/></g></g></g><g><g><g><path fill="#2d2d2c" d="M215.642 17.394a.272.272 0 0 1-.265-.207.272.272 0 0 1 .199-.33l1.764-.442-1.652-1.015a.273.273 0 1 1 .286-.465l2.206 1.355a.273.273 0 0 1-.077.497l-2.396.599a.248.248 0 0 1-.065.008z"/></g></g><g><g><path fill="#2d2d2c" d="M225.36 17.394a.255.255 0 0 1-.066-.008l-2.395-.6a.273.273 0 0 1-.077-.496l2.206-1.355a.273.273 0 1 1 .286.465l-1.652 1.015 1.764.441a.272.272 0 0 1 .199.33.272.272 0 0 1-.265.208z"/></g></g></g></g><g><g><g><path fill="#3a4c9f" d="M263.106 214.332c0 9.86-9.86 19.72-19.72 19.72h-70.553c-9.86 0-19.72-9.86-19.72-19.72V56.452c0-9.86 9.86-19.72 19.72-19.72h70.552c9.86 0 19.72 9.86 19.72 19.72z"/></g><g><path fill="#fff" d="M258.513 58.38v154.024H157.705V58.38z"/></g><g><path fill="#273b82" d="M192.287 48.53c0-.76.617-1.376 1.376-1.376h28.892a1.376 1.376 0 1 1 0 2.753h-28.892c-.76 0-1.376-.616-1.376-1.377z"/></g><g><path fill="#273b82" d="M206.903 228.395a6.079 6.079 0 1 1 2.412-11.916 6.079 6.079 0 0 1-2.412 11.916z"/></g></g><g><path fill="#b8d5ff" d="M157.705 203.672V95.963h100.808v107.71z"/></g><g><path fill="#d1d2d4" d="M183.553 76.14v-3.797h49.708v3.797z"/></g><g><path fill="#d1d2d4" d="M183.553 81.924v-2.751h28.662v2.75z"/></g><g><path fill="#d1d2d4" d="M165.307 82.02a7.877 7.877 0 1 1 11.14-11.14 7.877 7.877 0 0 1-11.14 11.14z"/></g><g><path fill="#d1d2d4" d="M251.946 72.733a1.271 1.271 0 1 0 0 2.543 1.271 1.271 0 0 0 0-2.543zm-4.175 0a1.271 1.271 0 1 0 0 2.543 1.271 1.271 0 0 0 0-2.543zm-4.175 0a1.272 1.272 0 1 0 0 2.544 1.272 1.272 0 0 0 0-2.544z"/></g><g><g><g><g><g><path fill="#ff6066" d="M171.484 163.573v-17.605h7.013v17.605z"/></g></g></g></g><g><g><g><g><path fill="#3a4c9f" d="M187.287 163.573v-33.06h7.012v33.06z"/></g></g></g></g><g><g><g><g><path fill="#ff6066" d="M203.089 163.573v-29.642h7.013v29.642z"/></g></g></g></g><g><g><g><g><path fill="#3a4c9f" d="M218.892 163.573v-41.092h7.012v41.092z"/></g></g></g></g><g opacity=".15"><g opacity=".15"><g opacity=".15"><g opacity=".04"><path d="M187.287 163.573v-33.06h3.218v33.06z"/></g></g></g></g><g opacity=".15"><g opacity=".15"><g opacity=".15"><g opacity=".04"><path d="M171.484 163.573v-17.605h3.219v17.605z"/></g></g></g></g><g opacity=".62"><g opacity=".62"><g opacity=".62"><g opacity=".16"><path d="M218.892 163.573v-41.092h3.218v41.092z"/></g></g></g></g><g opacity=".15"><g opacity=".15"><g opacity=".15"><g opacity=".04"><path d="M203.089 163.573v-29.642h3.219v29.642z"/></g></g></g></g><g><g><g><g><path fill="#ff6066" d="M235.527 163.573v-49.701h7.012v49.701z"/></g></g></g></g><g opacity=".15"><g opacity=".15"><g opacity=".15"><g opacity=".04"><path d="M235.527 163.573v-49.701h3.218v49.701z"/></g></g></g></g><g><g><g><g><path fill="#fff" d="M247.387 169.266h-81.981v-66.83h.957v65.873h81.024z"/></g></g></g></g><g><g><g><g><path fill="#fff" d="M238.248 110.872l-2.265-6.021 6.1 1.143z"/></g></g></g></g><g><g><g><g><g><g><path fill="#3a4c9f" d="M165.23 182.832v-5.885h5.884v5.885z"/></g></g></g></g></g><g><g><g><g><path fill="#ff6066" d="M165.23 193.144v-5.885h5.884v5.885z"/></g></g></g></g><g><g><g><g><path fill="#9cc9ff" d="M172.736 193.144v-3.345h30.515v3.345z"/></g></g></g></g><g><g><g><g><path fill="#9cc9ff" d="M172.736 182.832v-3.344h30.515v3.344z"/></g></g></g></g></g><g><g><g><g><g><path fill="#3a4c9f" d="M209.157 182.832v-5.885h5.885v5.885z"/></g></g></g></g><g><g><g><g><path fill="#ff6066" d="M209.157 193.144v-5.885h5.885v5.885z"/></g></g></g></g><g><g><g><g><path fill="#9cc9ff" d="M216.663 193.144v-3.345h30.516v3.345z"/></g></g></g></g><g><g><g><g><path fill="#9cc9ff" d="M216.663 182.832v-3.344h30.516v3.344z"/></g></g></g></g></g><g><path fill="none" stroke="#fff" stroke-linecap="round" stroke-linejoin="round" stroke-miterlimit="50" stroke-width="1.05" d="M174.703 132.432v0l16.09-11.718v0l15.515 7.098v0l15.802-13.94v0l16.378-6.761v0"/></g></g></g><g><g><g><path fill="#568bff" d="M278.743 69.433a6.92 6.92 0 1 1 9.166-10.368 6.92 6.92 0 0 1-9.166 10.368z"/></g><g><path fill="#fff" d="M281.522 66.57v-3.193a.566.566 0 0 0-.565-.566h-.725a.565.565 0 0 0-.565.566v3.193c0 .312.253.566.565.566h.725a.566.566 0 0 0 .565-.566zm3.162-6.336c-.812-.197-1.063 2.205-2.515 2.558l-.034 4.324 2.757.023a1.613 1.613 0 0 0 1.59-1.279l.486-2.288a.758.758 0 0 0-.735-.914l-1.959-.012c.582-.312 1.233-2.213.41-2.412z"/></g></g></g><g><g><path fill="#568bff" d="M273.28 226.432c0-7.314 5.93-13.243 13.244-13.243s13.243 5.93 13.243 13.243c0 7.315-5.929 13.244-13.243 13.244s-13.244-5.93-13.244-13.244z"/></g><g><g><path fill="#fff" d="M290.42 220.626a3.897 3.897 0 1 1-7.793 0 3.897 3.897 0 0 1 7.793 0z"/></g><g><path fill="#fff" d="M289.274 236.135h-5.5a1.993 1.993 0 0 1-1.994-1.993v-4.275a4.744 4.744 0 0 1 9.487 0v4.275a1.993 1.993 0 0 1-1.992 1.993z"/></g></g></g><g><g><path fill="#568bff" d="M127.949 29.46a6.763 6.763 0 1 1 9.564-9.564 6.763 6.763 0 0 1-9.564 9.565z"/></g><g><g><path fill="#fff" d="M134.72 21.714a1.99 1.99 0 1 1-3.978 0 1.99 1.99 0 0 1 3.978 0z"/></g><g/></g></g><g><g><path fill="#568bff" d="M244.885 11.516c0-6.337 5.137-11.475 11.474-11.475 6.338 0 11.475 5.138 11.475 11.475s-5.137 11.475-11.475 11.475c-6.337 0-11.474-5.138-11.474-11.475z"/></g><g><g><path fill="#fff" d="M259.735 6.485a3.376 3.376 0 1 1-6.75 0 3.376 3.376 0 0 1 6.75 0z"/></g><g><path fill="#fff" d="M258.742 19.922h-4.766a1.726 1.726 0 0 1-1.726-1.726V14.49a4.11 4.11 0 1 1 8.22 0v3.705c0 .954-.774 1.726-1.728 1.726z"/></g></g></g><g><g><path fill="#568bff" d="M184.054 263.18a6.763 6.763 0 1 1 3.097-13.167 6.763 6.763 0 0 1-3.097 13.167z"/></g><g><g><path fill="#fff" d="M187.592 253.632a1.99 1.99 0 1 1-3.98-.001 1.99 1.99 0 0 1 3.98 0z"/></g><g><path fill="#fff" d="M187.007 261.551h-2.809a1.018 1.018 0 0 1-1.018-1.017v-2.184a2.422 2.422 0 1 1 4.845 0v2.184c0 .562-.456 1.017-1.018 1.017z"/></g></g></g></g><g><g><g opacity=".63"><path fill="#d1d3d4" d="M56.039 248.418s.223 9.316 4.94 9.316c4.715 0 13.417-5.633 14.733-5.094 1.317.538 12.416 6.336 13.614 6.13 1.197-.207.916-1.864 2.316-2.071 1.4-.207 17.125 8.676 20.24 1.706 1.885-4.217-7.038-5.765-7.038-5.765s10.322-11.648 13-20.76c2.677-9.112-61.805 16.538-61.805 16.538z"/></g><g><g><path fill="#171587" d="M88.765 251.71s11.072.478 19.432-7.01c6.689-5.99 11.639-16.007 13.05-20.389 1.412-4.382 2.019-13.13-.096-14.59-2.114-1.461-40.4 34.98-40.4 34.98z"/></g><g><path fill="#171587" d="M39.236 228.026s4.613-5.22 17.067-5.204c9.698.014 41.515 8.73 41.515 8.73L83.98 246.348z"/></g><g><g><path fill="#ffe1bd" d="M97.12 249.115l-6.457-2.768-2.206 4.152 2.923 2.423h4.933z"/></g><g><path fill="#08085e" d="M92.072 253.238s2.165.269 3.78-1.653c1.615-1.924.692-2.73 1.73-2.846 1.037-.115 5.535 1.96 10.032 1.5 4.498-.462 5.882-1.148 6.112.521.23 1.67-.36 7.87-5.78 7.64-5.42-.231-15.874-5.162-15.874-5.162z"/></g><g><path fill="#492107" d="M91.38 252.922s2.165.269 3.78-1.654c1.615-1.923.692-2.73 1.73-2.845 1.038-.116 5.535 1.96 10.032 1.499 4.498-.461 5.882-1.147 6.112.522.23 1.67-.36 7.87-5.78 7.64-5.42-.231-15.874-5.162-15.874-5.162z"/></g></g><g><path fill="#201d93" d="M56.303 230.166c7.048 4.295 36.152 14.062 36.152 14.062s1.086 7.488-5.206 9.721c0 0-35.097-9.902-43.4-13.71-8.303-3.81-5.766-10.47-4.612-12.213 1.152-1.744 8.302-3.202 17.066 2.14z"/></g></g><g><path fill="#b8b300" d="M82.82 178.451c.691.361 1.21.926 1.528 1.583.373.724.504 1.593.364 2.435-.387 2.197-.872 5.625-1.4 9.243-.848 5.808-1.817 12.124-2.688 14.649-.19.576 2.428 3.584 1.297 4.989-.024.044-.342 11.75-.379 11.79-.015.01-1.18 1.128-1.195 1.137-.448.289-2.119.974-2.984.601-.949-.383-22.348 6.552-22.173 6.35 8.983-10.328 16.474-16.125 17.039-17.126 1.109-1.966.368-22.028.817-26.034.21-1.932.935-4.411 1.953-6.033 1.021-1.628 2.524-2.625 3.546-3.468 1.611-1.318 2.456-1.075 4.275-.116z"/></g><g><path fill="#e5df00" d="M105.125 209.749c-1.139 2.954-1.412 6.178-.722 9.275 1.366 6.148-.188 6.56-.188 6.56s-7.395 5.134-14.614 5.902c-6.464.687-11.919 1.105-11.801-4.379l2.074 1.652.024-.96c.235-12.326-2.335-12.952-2.969-26.753-.653-14.158-4.097-16.036-.996-20.054 4.588-5.943 16.754-8.97 26.392-6.69 7.24 1.704 9.626 3.627 9.567 8.984-.02 1.78-.308 3.943-.78 6.596-1.195 6.743-4.05 14.837-5.987 19.867z"/></g><g><g><path fill="#ffe1bd" d="M97.67 166.229c-2.747 1.83-4.52 3.317-8.07 3.317-1.339 0-.82-.536-2.073-.824.618.326-.628.886-.147.99.933.199 1.61.987 1.666 1.935l.217 4.07 1.591 3.323 2.77-1.793 4.037-2.617-.4-6.315s-.666-.994.41-2.086z"/></g><g><path fill="#e8c5a0" d="M91.104 173.155l.27 3.788-.52 2.097-1.59-3.322-.218-4.071a2.099 2.099 0 0 0-1.666-1.935c-1.034-.22-.539-.98-2.006-2.535a2.85 2.85 0 0 1-.252-.311c.18.107.42 1.534 3.718 1.903 2.438.272 2.089 1.94 2.264 4.386z"/></g></g><g><path fill="#fff" d="M97.613 171.687s.975.543 1.946 2.002c0 0-1.332.597-2.493 1.305-1.06.648-6.156 4.247-6.156 4.247l-1.498-3.077s5.32-3.67 8.2-4.477z"/></g><g><path fill="#fff" d="M89.412 176.164s-1.784.61-2.331 1.94c0 0-.912-1.746.253-4.856 0 0 .978-.925 1.73-1.255z"/></g><g><g><path fill="#b3c5ce" d="M97.12 226.731l-34.45-.299 20.511 7.651z"/></g><g><path fill="#e8f1f8" d="M83.107 234.895l14.765-1.379.11-1.215-15.01 1.412z"/></g></g><g><path fill="#ffe1bd" d="M85.915 223.903l-2.801 1.54s-2.764-1.911-5.51.167c-2.747 2.077.566 7.95 2.602 7.361 2.036-.587 7.972-4.987 7.972-4.987z"/></g><g opacity=".24"><path fill="#474747" d="M47.401 234.532l-3.428 1.022 37.64.353 16.505-4.511-35.058.37z"/></g><g><path fill="#b8b300" d="M99.408 222.279c-5.248 1.65-10.711 9.987-10.711 9.987l-.48-.773s-2.71-1.215-3.45-3.714c-.29-.981-.257-3.876-.257-3.876s13.103-6.55 17.13-10.984c1.952-2.157 2.129-3.96 3.997-4.86-.058-.143-.11-.282-.164-.431-2.045-5.83-1.95-14.173-2.792-18.4-.405-2.043-.357-4.134.164-6.07a11.61 11.61 0 0 1 1.726-3.692c1.263-1.777 2.99-3.137 5.213-2.62a4.22 4.22 0 0 1 2.125 1.229 4.417 4.417 0 0 1 1.168 2.416c.833 6.128 3.473 22.906 3.349 26.667a6.852 6.852 0 0 1-.297 1.811c-.04.19-.099.38-.167.589-1.913 5.334-11.307 11.07-16.554 12.72z"/></g><g><g><path fill="#d4dedf" d="M83.107 234.894l-35.754-3.272a2.53 2.53 0 0 1-2.283-2.235l-2.825-24.902a2.124 2.124 0 0 1 2.304-2.353l33.486 3.064a2.123 2.123 0 0 1 1.916 1.875z"/></g></g><g><g><path fill="#632f00" d="M81.12 155.859c-.1-.009-.044.559-.837 1.477-.794.918-.857 2.771-.833 2.712.024-.06-1.534-4.311-1.088-5.353.446-1.041 1.365-1.305 1.599-.965.233.339 1.159 2.129 1.159 2.129z"/></g><g><path fill="#ffe1bd" d="M99.022 162.936c.116 1.191.156 2.26.068 3.035-.01.103-.027.215-.054.329-.019.103-.037.216-.073.33-.867 3.433-5.214 8.277-8.266 8.67-.403.036-.8.043-1.182.022-4.25-.194-6.734-3.679-8.175-7.386l-.145-.385c-1.27-3.445-1.679-6.987-1.789-8.225-.026-.293-.031-.46-.031-.46-.25-1.354-.031-2.41.096-2.846.042-.152.073-.229.073-.229s.053-.013.144-.04c1.178-.364 9.196-2.818 9.37-2.834.175-.015 8.25.567 8.25.567s1.308 5.42 1.714 9.452z"/></g><g/><g><path fill="#8c4200" d="M100.159 162.746c.116 1.191.155 2.26.067 3.036a2.196 2.196 0 0 1-.054.328c-.552 3.433-4.751 8.768-9.475 9.19-.365.051-.723.083-1.054.094-5.113.207-6.89-3.646-8.303-7.458l-.145-.385s1.779 2.836 2.665 2.924c.886.087-.215-1.024 2.192-1.964 1.535-.599 3.857-.544 4.941-.41 1.002.133 2.798.645 3.435.737.158.013.278.012.366-.034.85-.436 2.562-3.307 2.86-5.136.122-.713 1.838-1.038 2.505-.922z"/></g><g><path fill="#8c4200" d="M75.93 151.617s.262 6.16 10.384 3.697c10.122-2.464 9.345 7.597 9.345 7.597s1.405-3.372 1.824-2.073c.419 1.298-.034 4.642-.034 4.642s2.777.302 2.863-1.065c.05-.817.141-12.478-1.863-15.246-2.003-2.77-4.395-2.644-4.395-2.644s-2.534-2.134-8.502-.388c-5.968 1.747-9.112-.457-9.097-.285.016.172-.948 1.9-.525 5.765z"/></g></g><g><path fill="#282c3b" d="M93.798 163.54c-.335 1.325-1.027 1.98-2.834 2.2-2.562.31-3.018-.405-3.354-1.277-.335-.873-.428-1.606-.388-1.81.105-.558.644-.65 2.261-.928 1.617-.277 3.777-.623 4.081-.39.305.234.525 1.053.234 2.205zm-9.39 1.326c-.108.928-.783 1.797-2.201 1.975-1.321.166-1.9-.321-2.551-1.521-.568-1.045-.557-1.893-.32-2.194.237-.302.945-.317 2.58-.449 1.636-.131 2.181-.176 2.421.338.088.188.18.923.071 1.851zm11.132-4.132c-.101-.419-1.942-.34-3.245-.176-1.304.164-4.781.602-5.512 1.03-.731.428-.702.718-1.084.761-.373.042-.387-.24-1.201-.474-.814-.233-2.821.019-4.125.183-1.303.164-2.547.417-2.541.848.005.432.196 1.177.456 1.288.259.112.259.09 1.2 1.764.525.935 1.374 1.452 3.066 1.128 2.152-.413 2.373-2.19 2.574-2.935.2-.747.358-.861.684-.904.333-.043.546.028.924.701.38.673.602 2.247 2.786 2.261 2.86.018 4.136-.74 4.597-2.091.625-1.833.502-1.835.726-2.006.102-.08.731-.303.75-.543.025-.281 0-.608-.055-.835z"/></g><g><g><path fill="#ffe1bd" d="M71.906 244.953l6.543-2.562 2.072 4.22-2.998 2.328-4.93-.156z"/></g><g><path fill="#08085e" d="M76.82 249.233s-2.172.201-3.724-1.771c-1.553-1.974-.605-2.751-1.639-2.9-1.033-.148-5.595 1.785-10.075 1.18-4.48-.602-5.842-1.332-6.125.329-.284 1.66.11 7.877 5.535 7.819 5.424-.06 16.029-4.657 16.029-4.657z"/></g><g><path fill="#492107" d="M77.523 248.94s-2.173.2-3.726-1.773c-1.552-1.973-.604-2.75-1.638-2.899-1.034-.148-5.595 1.785-10.075 1.18-4.481-.602-5.842-1.333-6.126.329-.283 1.66.11 7.877 5.535 7.819 5.425-.06 16.03-4.656 16.03-4.656z"/></g></g><g><path fill="#2d24a3" d="M76.208 240.191s16.536-13.448 23.455-20.598c6.92-7.15 11.301-14.133 19.374-11.333 8.072 2.8-2.076 17.812-9.457 23.683-7.38 5.87-25.61 18.818-25.61 18.818s-9.781-3.467-7.762-10.57z"/></g></g><g><path fill="#b4bcc5" d="M58.1 218.509a2.91 2.91 0 1 1 5.82 0 2.91 2.91 0 0 1-5.82 0z"/></g></g><g><g><g><path fill="#2672e7" d="M24.703 115.863c0-2.755 2.755-5.51 5.51-5.51h64.512c2.755 0 5.51 2.755 5.51 5.51v11.802c0 2.755-2.755 5.51-5.51 5.51H30.212c-2.755 0-5.51-2.755-5.51-5.51z"/></g><g><g><g><path fill="#fff" d="M31.195 126.372a6.516 6.516 0 1 1 9.216-9.216 6.516 6.516 0 0 1-9.216 9.216z"/></g><g><path fill="#3a4c9f" d="M34.105 123.917v-2.942a.566.566 0 0 0-.566-.566h-.616a.566.566 0 0 0-.566.566v2.942c0 .312.253.565.566.565h.616a.565.565 0 0 0 .566-.565zm.609-3.526l-.033 4.073 2.597.02a1.518 1.518 0 0 0 1.498-1.203l.457-2.155a.713.713 0 0 0-.692-.86l-1.844-.012c.547-.294 1.16-2.084.386-2.272-.766-.184-1.002 2.077-2.37 2.41z"/></g></g><g><g><text fill="#fff" style="line-height:9px;font-kerning:normal" dominant-baseline="text-before-edge" font-family="'Open Sans','OpenSans'" font-size="7" font-style="none" font-weight="700" transform="translate(43 117)"><tspan font-weight="400">1000</tspan></text></g></g></g><g><g><g><path fill="#fff" d="M71.873 128.197a6.516 6.516 0 1 1 2.082-12.866 6.516 6.516 0 0 1-2.082 12.866z"/></g><g><path fill="#ff6066" d="M76.852 120.632c-.004 2.43-3.938 4.4-3.938 4.4s-3.924-1.97-3.937-4.4c-.018-3.102 4.046-2.292 4.08-.9-.034-1.392 3.799-2.005 3.795.9z"/></g></g><g><g><text fill="#fff" style="line-height:9px;font-kerning:normal" dominant-baseline="text-before-edge" font-family="'Open Sans','OpenSans'" font-size="7" font-style="none" font-weight="700" transform="translate(80 117)"><tspan font-weight="400">980</tspan></text></g></g></g></g><g><path fill="#2672e7" d="M78.193 130.264l4.444 9.403 4.176-8.798z"/></g></g><g><g><g><path fill="#2672e7" d="M62.535 46.937c0-2.756 2.756-5.51 5.51-5.51h64.512c2.755 0 5.51 2.754 5.51 5.51v11.802c0 2.755-2.755 5.51-5.51 5.51H68.046c-2.755 0-5.51-2.755-5.51-5.51z"/></g><g><g><g><path fill="#fff" d="M67.12 52.838a6.516 6.516 0 1 1 13.032 0 6.516 6.516 0 0 1-13.033 0z"/></g><g><path fill="#3a4c9f" d="M71.937 54.99V52.05a.566.566 0 0 0-.566-.566h-.616a.566.566 0 0 0-.565.566v2.942c0 .312.253.565.565.565h.616a.565.565 0 0 0 .566-.565zm.609-3.525l-.033 4.073 2.598.02a1.518 1.518 0 0 0 1.497-1.204l.457-2.154a.712.712 0 0 0-.69-.86l-1.846-.013c.547-.293 1.16-2.083.386-2.27-.766-.186-1.001 2.076-2.37 2.408z"/></g></g><g><g><text fill="#fff" style="line-height:9px;font-kerning:normal" dominant-baseline="text-before-edge" font-family="'Open Sans','OpenSans'" font-size="7" font-style="none" font-weight="700" transform="translate(81 48)"><tspan font-weight="400">1000</tspan></text></g></g></g><g><g><g><path fill="#fff" d="M104.23 52.838a6.516 6.516 0 1 1 13.033 0 6.516 6.516 0 0 1-13.033 0z"/></g><g><path fill="#ff6066" d="M114.684 51.706c-.003 2.43-3.938 4.399-3.938 4.399s-3.924-1.97-3.936-4.4c-.017-3.101 4.045-2.291 4.08-.899-.035-1.392 3.798-2.006 3.794.9z"/></g></g><g><g><text fill="#fff" style="line-height:9px;font-kerning:normal" dominant-baseline="text-before-edge" font-family="'Open Sans','OpenSans'" font-size="7" font-style="none" font-weight="700" transform="translate(118 48)"><tspan font-weight="400">980</tspan></text></g></g></g></g><g><path fill="#2672e7" d="M120.81 62.152l7.306 7.402v-9.402z"/></g></g><g><g><path fill="#fc9" d="M148.174 239.866s.705 3.218.653 5.782c-.325 1.779.003 2.302.003 2.302l6.747-.576s-2.982-1.465-2.773-8.424c.21-6.96-4.63.916-4.63.916z"/></g><g><path fill="#201d93" d="M148.743 246.187s2.934 1.087 5.833.267c3.409 1.575 5.81 2.195 8.91 2.587 3.1.393 2.552 2.943-2.747 2.59-5.298-.352-8.994-.11-10.172.008-1.177.118-3.06.274-3.14-.55-.078-.823.36-5.175 1.316-4.902z"/></g><g><path fill="#fc9" d="M127.461 239.866s.707 3.218.655 5.782c-.326 1.779.002 2.302.002 2.302l6.748-.576s-2.983-1.465-2.773-8.424c.209-6.96-4.632.916-4.632.916z"/></g><g><path fill="#2d24a3" d="M128.032 246.187s2.933 1.087 5.832.267c3.41 1.575 5.81 2.195 8.91 2.587 3.1.393 2.551 2.943-2.746 2.59-5.299-.352-8.995-.11-10.172.008-1.178.118-3.062.274-3.14-.55-.078-.823.36-5.175 1.316-4.902z"/></g><g><path fill="#201d93" d="M150.789 142.797s4.343 45.488 4.6 51.41c.258 5.922.258 7.982 0 11.586-.257 3.606 1.964 33.977 1.964 33.977s-10.106 2.638-12.68.292c0 0 .42-33.114-.868-38.78-1.287-5.664-6.32-34.368-6.32-34.368l5.803-29.353z"/></g><g><path fill="#3838d6" d="M127.324 79.498s.424-7.918 3.688-10.042c3.264-2.124 11.996-2.897 14.678.773 2.684 3.669 5.549 19.601-7.551 21.653l-6.79 31.335s-17.671-1.806-19.023-11.269c-1.352-9.463 6.695-13.865 6.695-13.865s-3.863-7.951.193-13.558c4.055-5.606 8.11-5.027 8.11-5.027z"/></g><g><path fill="#fc9" d="M152.825 106.74s15.976 2.289 20.298 2.084c3.386.205 8.266-19.913 8.756-21.144 2.7-1.84 3.762-3.265 3.722-4.651-.04-1.386-3.487-2.557-3.818-1.86.57-1.841.696-2.417.852-3.048.32-1.307-.6-2.303-1.92 2.628-1.305 4.868-1.179 4.065-1.496 5.778-2.131 4.44-7.63 14.802-8.004 16.37C164.087 102.714 152 99.7 152 99.7z"/></g><g><path fill="#2d24a3" d="M128.87 197.554c1.029-8.497-.857-42.936-.782-50.23.076-7.293 20.607-3.584 20.607-3.584s-6.437 42.742-7.209 48.922c-.773 6.18-1.803 7.982-2.189 13.905-.386 5.92-3.219 33.73-3.219 33.73s-11.3 1.897-12.153-.24c-1.785-10.942 4.944-42.503 4.944-42.503z"/></g><g><path fill="#e5df00" d="M144.575 95.591l9.27 2.492s-1.03 7.807 0 10.125h-6.437s-1.117 3.347-1.718 4.892c-.6 1.544 4.807 27.51 5.58 32.403 0 0-13.646-2.535-24.46 2.357 0 0 1.029-10.3 4.634-17.509 3.605-7.21-10.84-24.01-10.84-24.01s4.409-13.518 12.127-14.355c6.165-.668 6.128 2.067 11.844 3.605z"/></g><g><path fill="#fc9" d="M144.06 72.986s2.833 7.67 1.03 11.276c-1.802 3.604-6.179 3.09-6.179 3.09v8.24s-.447.426-1.223.47c-1.352.078-4.957-2.274-4.957-2.274V74.734z"/></g><g><path fill="#fc9" d="M118.047 105.84s-13.703 15.564-12.93 17.494c.772 1.932 16.027 10.428 17.379 11.587 1.352 1.16 5.508 5.8 5.65 5.181.143-.618 2.654-2.091 2.847-3.636.193-1.545-1.158-2.897-1.158-2.897l-5.794-.772s-10.428-8.69-10.815-9.849c-.386-1.158 11.787-13.132 11.787-13.132z"/></g><g><path fill="#e5df00" d="M116.782 105.118s7.948-11.21 12.874-10.814c4.927.395 4.635 7.591 0 12.615-4.635 5.026-6.18 6.953-6.18 6.953s-5.663-2.832-6.694-8.754z"/></g><g><path fill="#3838d6" d="M144.42 71.86s-1.84 8.797-6.088 11.114c-4.249 2.317-1.04 8.015-5.09 12.268-2.166 2.276-6.283-.254-6.283-.254l4.053-22.002z"/></g></g><g opacity=".38"><path fill="none" stroke="#fff" stroke-miterlimit="50" stroke-width=".91" d="M293.42 92.945a3.065 3.065 0 1 1 6.13 0 3.065 3.065 0 0 1-6.13 0z"/></g><g opacity=".38"><path fill="none" stroke="#fff" stroke-miterlimit="50" stroke-width=".91" d="M256.693 87.143a3.065 3.065 0 1 1-6.13 0 3.065 3.065 0 0 1 6.13 0z"/></g><g opacity=".38"><path fill="none" stroke="#fff" stroke-miterlimit="50" stroke-width=".91" d="M41.959 81.924a3.065 3.065 0 1 1 6.13 0 3.065 3.065 0 0 1-6.13 0z"/></g><g opacity=".38"><path fill="none" stroke="#fff" stroke-miterlimit="50" stroke-width=".91" d="M1.364 51.483a3.065 3.065 0 1 1 6.13 0 3.065 3.065 0 0 1-6.13 0z"/></g><g opacity=".38"><path fill="none" stroke="#fff" stroke-miterlimit="50" stroke-width=".91" d="M264.77 245.5a3.065 3.065 0 1 1 6.13 0 3.065 3.065 0 0 1-6.13 0z"/></g><g opacity=".38"><path fill="none" stroke="#fff" stroke-miterlimit="50" stroke-width=".91" d="M114.203 152.916a3.065 3.065 0 1 1-6.13.001 3.065 3.065 0 0 1 6.13 0z"/></g><g opacity=".38"><path fill="none" stroke="#fff" stroke-miterlimit="50" stroke-width=".91" d="M77.68 17.865a3.065 3.065 0 1 1 6.13 0 3.065 3.065 0 0 1-6.13 0z"/></g><g opacity=".38"><path fill="none" stroke="#fff" stroke-miterlimit="50" stroke-width=".91" d="M297.327 17.394a3.066 3.066 0 1 1-6.132 0 3.066 3.066 0 0 1 6.132 0z"/></g><g opacity=".38"><path fill="#fff" d="M200.806 25.388h-2.261v-2.261a.66.66 0 1 0-1.323 0v2.261h-2.261a.661.661 0 0 0 0 1.323h2.261v2.261a.661.661 0 1 0 1.323 0v-2.261h2.261a.661.661 0 0 0 0-1.323z"/></g><g opacity=".38"><path fill="#fff" d="M120.185 6.73h-2.261V4.47a.661.661 0 1 0-1.322 0v2.26h-2.261a.661.661 0 0 0 0 1.323h2.26v2.262a.661.661 0 1 0 1.323 0V8.053h2.26a.66.66 0 1 0 0-1.322z"/></g><g opacity=".38"><path fill="#fff" d="M38.726 28.972h-2.262v-2.261a.66.66 0 1 0-1.322 0v2.261H32.88a.661.661 0 1 0 0 1.323h2.262v2.261a.661.661 0 1 0 1.322 0v-2.261h2.262a.661.661 0 1 0 0-1.323z"/></g><g opacity=".38"><path fill="#fff" d="M79.581 93.632H77.32V91.37a.66.66 0 0 0-1.323 0v2.262h-2.261a.66.66 0 1 0 0 1.323h2.261v2.261a.661.661 0 1 0 1.323 0v-2.261h2.261a.662.662 0 0 0 0-1.323z"/></g><g opacity=".38"><path fill="#fff" d="M41.01 199.055h-2.26v-2.262a.661.661 0 1 0-1.323 0v2.262h-2.26a.66.66 0 1 0 0 1.323h2.26v2.26a.661.661 0 1 0 1.323 0v-2.26h2.26a.661.661 0 0 0 0-1.323z"/></g><g opacity=".38"><path fill="#fff" d="M297.184 199.055h-2.262v-2.262a.661.661 0 1 0-1.322 0v2.262h-2.261a.66.66 0 1 0 0 1.323h2.261v2.26a.66.66 0 1 0 1.322 0v-2.26h2.262a.661.661 0 0 0 0-1.323z"/></g><g opacity=".38"><path fill="#fff" d="M56.83 161.93h-2.26v-2.262a.66.66 0 1 0-1.323 0v2.262h-2.262a.662.662 0 0 0 0 1.322h2.262v2.262a.661.661 0 1 0 1.322 0v-2.262h2.262a.661.661 0 1 0 0-1.322z"/></g><g opacity=".38"><path fill="#fff" d="M226.854 241.353h-2.262v-2.262a.661.661 0 1 0-1.322 0v2.262h-2.261a.66.66 0 1 0 0 1.322h2.26v2.261a.66.66 0 1 0 1.323 0v-2.261h2.262a.66.66 0 1 0 0-1.322z"/></g><g opacity=".38"><path fill="#fff" d="M280.715 142.136h-2.261v-2.262a.66.66 0 1 0-1.323 0v2.262h-2.261a.661.661 0 1 0 0 1.322h2.261v2.262a.661.661 0 1 0 1.323 0v-2.262h2.261a.661.661 0 1 0 0-1.322z"/></g></g></svg>