<svg xmlns="http://www.w3.org/2000/svg" width="338" height="254" viewBox="0 0 338 254"><g><g><g><g><path fill="#4c8" d="M100.898 36.89a6.854 6.854 0 0 1-6.869 0 6.733 6.733 0 0 1-1.413-1.078 6.744 6.744 0 0 1-1.079-1.414 6.851 6.851 0 0 1 0-6.867 6.791 6.791 0 0 1 1.08-1.415c.43-.431.909-.785 1.412-1.078a6.862 6.862 0 0 1 6.87 0c.503.293.98.647 1.414 1.078.43.432.784.91 1.077 1.415a6.859 6.859 0 0 1 0 6.867 6.793 6.793 0 0 1-1.079 1.413c-.432.434-.91.788-1.413 1.08zm-12.514 9.022a17.347 17.347 0 0 0 4.931 2.044l.232 3.148h7.832l.235-3.148a17.374 17.374 0 0 0 4.929-2.044l2.391 2.062 5.538-5.538-2.06-2.393a17.45 17.45 0 0 0 2.045-4.929l3.145-.233v-7.832l-3.145-.234a17.458 17.458 0 0 0-2.045-4.93l2.06-2.392-5.538-5.538-2.391 2.062a17.423 17.423 0 0 0-4.93-2.045l-.234-3.147h-7.832l-.232 3.147a17.414 17.414 0 0 0-4.93 2.045l-2.393-2.062-5.539 5.538 2.064 2.392a17.372 17.372 0 0 0-2.045 4.93l-3.148.234v7.832l3.148.233a17.363 17.363 0 0 0 2.045 4.93l-2.064 2.392 5.539 5.538z"/></g><g opacity=".4"><path fill="#46cccc" d="M66.07 22.097a3.528 3.528 0 0 1-.736-1.706 3.614 3.614 0 0 1 1.335-3.367c.24-.19.508-.355.802-.484.296-.126.6-.207.904-.253a3.61 3.61 0 0 1 3.365 1.335c.19.242.357.509.485.803.127.296.208.598.253.902a3.616 3.616 0 0 1-3.04 4.104 3.621 3.621 0 0 1-3.368-1.334zm-4.518 3.324a9.137 9.137 0 0 0 2.019 1.96l-.496 1.588 3.836 1.523.727-1.497c.921.128 1.87.116 2.815-.046l.77 1.476 3.792-1.638-.547-1.573a9.206 9.206 0 0 0 1.961-2.02l1.587.498 1.522-3.84-1.497-.726a9.208 9.208 0 0 0-.044-2.812l1.475-.772-1.639-3.791-1.573.546a9.131 9.131 0 0 0-2.02-1.96l.498-1.588L70.9 9.228l-.726 1.497a9.172 9.172 0 0 0-2.814.044l-.772-1.476-3.79 1.64.545 1.573a9.132 9.132 0 0 0-1.96 2.019l-1.588-.5-1.521 3.84 1.498.726c-.13.922-.119 1.87.045 2.813l-1.478.772 1.64 3.79z"/></g></g><g><g opacity=".4"><path fill="#48cc90" d="M189.191 5.5a2.543 2.543 0 1 1 0-5.088 2.545 2.545 0 1 1 0 5.087z"/></g><g opacity=".4"><path fill="#46cccc" d="M17.153 127.958a2.438 2.438 0 0 1-2.434 2.435 2.438 2.438 0 0 1-2.436-2.435 2.438 2.438 0 0 1 2.436-2.436 2.438 2.438 0 0 1 2.434 2.436zm1.526 0a3.966 3.966 0 0 0-3.96-3.962 3.966 3.966 0 0 0-3.962 3.962 3.966 3.966 0 0 0 3.962 3.961 3.966 3.966 0 0 0 3.96-3.961z"/></g><g opacity=".4"><path fill="#46cccc" d="M181.686 11.91v-1.439h1.44a1.177 1.177 0 0 0 0-2.354h-1.44v-1.44a1.177 1.177 0 1 0-2.355 0v1.44h-1.437a1.177 1.177 0 1 0 0 2.354h1.437v1.44a1.177 1.177 0 1 0 2.355 0z"/></g><g opacity=".4"><path fill="#48cc90" d="M10.247 117.784a1.272 1.272 0 1 1-.001-2.544 1.272 1.272 0 0 1 .001 2.544z"/></g></g><g><g><path fill="#5439f7" d="M310.071 194.948a8.615 8.615 0 0 1-8.098 9.103l-91.005 5.297-8.317.489-5.586.32-8.439.488-13.353.779-11.048.64-4.7.275-11.019.641-87.28 5.084a8.613 8.613 0 0 1-9.102-8.1l-9.266-159.28 257.934-15.031z"/></g><g opacity=".5"><path fill="#7bcaff" d="M279.967 187.988L52.908 210.575c-8.106.808-15.332-5.112-16.14-13.218L24.708 76.09c-.808-8.108 5.11-15.332 13.218-16.14l227.056-22.587c8.108-.807 15.334 5.113 16.14 13.22l12.064 121.266c.806 8.106-5.112 15.333-13.218 16.14z"/></g><g opacity=".5"><path fill="#7bcaff" d="M72.423 70.395c0-2.467 2.466-4.933 4.932-4.933h112.14c2.465 0 4.932 2.466 4.932 4.933v124.33c0 2.466-2.466 4.932-4.932 4.932H77.355c-2.466 0-4.932-2.465-4.932-4.931z"/></g><g><g><path fill="#d3d3d3" d="M300.785 35.662L42.847 50.687 41.643 30.01a3.546 3.546 0 0 1 3.334-3.746l250.858-14.614a3.548 3.548 0 0 1 3.746 3.335z"/></g><g><path fill="#f2f2f2" d="M47.32 45.334l-.466-7.991 248.403-14.47.466 7.99z"/></g><g><path fill="#f9f4ea" d="M46.697 34.651l-.242-4.153 4.153-.241.241 4.153z"/></g><g><path fill="#f9f4ea" d="M54.08 34.221l-.242-4.152 4.152-.243.243 4.153z"/></g><g><path fill="#f9f4ea" d="M61.463 33.791l-.242-4.152 4.152-.243.243 4.153z"/></g></g><g><path fill="#bbceff" d="M173.987 70.54c.937 0 1.724.732 1.78 1.679l1.063 18.244c.026.476-.131.932-.449 1.288a1.768 1.768 0 0 1-1.227.593L67.294 98.63a1.777 1.777 0 0 1-1.883-1.676L64.35 78.707c-.027-.474.131-.93.449-1.286a1.77 1.77 0 0 1 1.227-.595l107.858-6.283a2.35 2.35 0 0 1 .104-.003zM67.19 100.325c.069 0 .136-.001.205-.006l107.858-6.282a3.454 3.454 0 0 0 2.394-1.16 3.449 3.449 0 0 0 .873-2.514l-1.062-18.244c-.113-1.913-1.77-3.363-3.673-3.267L65.927 75.135a3.463 3.463 0 0 0-2.396 1.16 3.443 3.443 0 0 0-.873 2.512l1.062 18.245a3.482 3.482 0 0 0 3.469 3.273z"/></g><g><path fill="#bbceff" d="M177.572 103.199l1.062 18.244a1.785 1.785 0 0 1-1.674 1.883L69.1 129.61a1.781 1.781 0 0 1-1.885-1.676l-1.062-18.244a1.785 1.785 0 0 1 1.677-1.883l107.859-6.283c.033-.001.068-.003.103-.003.936 0 1.725.733 1.78 1.679zm-108.375 28.1l107.86-6.282a3.48 3.48 0 0 0 3.268-3.673L179.26 103.1c-.111-1.914-1.764-3.362-3.672-3.267l-107.858 6.282a3.48 3.48 0 0 0-3.267 3.672l1.062 18.246a3.48 3.48 0 0 0 3.671 3.267z"/></g><g><path fill="#f6f3ff" d="M170.337 121.863l-108.028-1.758a2.629 2.629 0 0 1-2.587-2.67l.3-18.274a2.628 2.628 0 0 1 2.67-2.587l108.028 1.76a2.626 2.626 0 0 1 2.585 2.67l-.296 18.274a2.63 2.63 0 0 1-2.672 2.585z"/></g><g><path fill="#bbceff" d="M177.598 132.5c.935 0 1.723.733 1.779 1.678l1.062 18.245a1.786 1.786 0 0 1-1.675 1.884l-107.86 6.282c-.967.045-1.827-.694-1.884-1.677l-1.062-18.244a1.762 1.762 0 0 1 .449-1.286 1.769 1.769 0 0 1 1.227-.595l107.858-6.283c.035-.003.07-.003.106-.003zM70.795 162.286c.069 0 .137-.002.208-.005l107.86-6.284a3.478 3.478 0 0 0 3.265-3.672l-1.062-18.244c-.111-1.913-1.78-3.36-3.671-3.269l-107.859 6.286a3.444 3.444 0 0 0-2.394 1.157 3.44 3.44 0 0 0-.875 2.513l1.064 18.244a3.446 3.446 0 0 0 1.158 2.395c.641.572 1.454.879 2.306.879z"/></g><g opacity=".4"><path fill="#46cccc" d="M323.347 149.924l-101.372-5.766a5.482 5.482 0 0 1-5.164-5.783L224.39 5.1a5.481 5.481 0 0 1 5.785-5.163l101.371 5.762a5.484 5.484 0 0 1 5.164 5.786l-7.578 133.276a5.483 5.483 0 0 1-5.785 5.163z"/></g><g><path fill="#bbceff" d="M180.587 163.93c.354.317.566.754.594 1.228l1.062 18.244a1.785 1.785 0 0 1-1.674 1.885l-107.86 6.283a1.795 1.795 0 0 1-1.883-1.677l-1.064-18.244a1.775 1.775 0 0 1 .449-1.288 1.771 1.771 0 0 1 1.228-.594l107.859-6.284.106-.002c.437 0 .853.157 1.183.449zM72.6 193.265c.07 0 .138-.001.208-.006l107.858-6.283a3.48 3.48 0 0 0 3.268-3.671l-1.062-18.244a3.457 3.457 0 0 0-1.16-2.396 3.412 3.412 0 0 0-2.514-.872l-107.857 6.283a3.45 3.45 0 0 0-2.395 1.159 3.446 3.446 0 0 0-.873 2.513l1.062 18.244a3.448 3.448 0 0 0 1.16 2.394 3.44 3.44 0 0 0 2.305.88z"/></g><g opacity=".6"><g opacity=".6"><path fill="#7bcaff" d="M65.617 103.264l.043-2.672 45.527.741-.044 2.672z"/></g><g opacity=".6"><path fill="#7bcaff" d="M65.539 108.014l.043-2.672 45.527.741-.043 2.671z"/></g><g opacity=".6"><path fill="#7bcaff" d="M65.462 112.763l.043-2.671 20.187.328-.044 2.672z"/></g></g><g opacity=".6"><path fill="#7bcaff" d="M138.364 114.088l.2-12.309 12.31.2-.2 12.31z"/></g><g opacity=".6"><path fill="#7bcaff" d="M152.69 114.321l.201-12.31 12.31.201-.201 12.31z"/></g><g><g><path fill="#4c8" d="M300.248 175.576l-1.712-.014.575-69.09 1.712.015z"/></g><g><path fill="#edf4fc" d="M224.872 174.948l-1.712-.014.193-23.261 1.713.014z"/></g><g><path fill="#edf4fc" d="M262.558 175.263l-1.711-.015.407-48.703 1.711.015z"/></g><g><path fill="#ffc550" d="M299.66 159.367h-.114c-10.128-.084-15.002-11.226-19.718-22.001-4.683-10.702-9.106-20.812-18.029-20.887h-.097c-8.86 0-13.434 9.998-18.276 20.583-4.875 10.654-9.917 21.669-19.969 21.669h-.114l.015-1.86h.1c8.858 0 13.433-9.998 18.277-20.583 4.874-10.653 9.914-21.67 19.965-21.67.038 0 .076 0 .115.002 10.128.084 15.002 11.226 19.718 22 4.682 10.703 9.106 20.813 18.027 20.888h.1c8.86 0 13.435-10 18.277-20.585 4.877-10.653 9.918-21.668 19.97-21.668h.116l-.016 1.86h-.1c-8.86 0-13.433 9.997-18.278 20.582-4.876 10.656-9.916 21.67-19.968 21.67z"/></g></g><g><g><path fill="#a6edc8" d="M276.934 96.958l14.853.844-.421 7.427-14.854-.843z"/></g><g><path fill="#a6edc8" d="M250.643 95.463l14.855.844-.422 7.427-14.854-.843z"/></g><g><path fill="#a6edc8" d="M224.353 93.97l14.855.843-.422 7.427-14.854-.844z"/></g></g><g opacity=".5"><path fill="#7bcaff" d="M79.404 147.755l-.209-3.589 45.91-2.673.208 3.589z"/></g><g opacity=".5"><path fill="#7bcaff" d="M79.776 154.135l-.209-3.588 30.909-1.802.209 3.588z"/></g><g opacity=".5"><path fill="#7bcaff" d="M114.273 152.125l-.209-3.589 7.714-.449.209 3.589z"/></g><g opacity=".5"><path fill="#7bcaff" d="M75.839 86.54l-.21-3.588 45.91-2.674.208 3.588z"/></g><g opacity=".5"><path fill="#7bcaff" d="M76.21 92.92L76 89.331l27.322-1.591.21 3.588z"/></g><g opacity=".5"><path fill="#7bcaff" d="M107.118 91.119l-.209-3.588 28.926-1.685.21 3.588z"/></g><g opacity=".5"><path fill="#7bcaff" d="M81.209 178.735L81 175.147l18.334-1.067.21 3.588z"/></g><g opacity=".5"><path fill="#7bcaff" d="M102.95 177.468l-.208-3.588 18.334-1.067.21 3.588z"/></g><g opacity=".5"><path fill="#7bcaff" d="M81.581 185.115l-.21-3.588 30.91-1.801.208 3.587z"/></g><g opacity=".5"><path fill="#7bcaff" d="M116.078 183.105l-.209-3.589 30.451-1.773.21 3.588z"/></g><g opacity=".4"><path fill="#375e82" d="M102.545 137.879c-10.187 11.447-27.776 12.47-39.24 2.286-11.447-10.185-12.472-27.794-2.286-39.24 4.935-5.547 11.745-8.85 19.146-9.283 7.42-.432 14.546 2.06 20.094 6.997 5.547 4.937 8.85 11.726 9.283 19.146.43 7.401-2.062 14.548-6.997 20.094zm4.387-46.759c-7.54-6.708-17.255-10.087-27.351-9.5-10.078.588-19.336 5.072-26.064 12.612a37.442 37.442 0 0 0-7.4 12.543 37.673 37.673 0 0 0-2.1 14.81c.292 5 1.56 9.927 3.806 14.482a37.5 37.5 0 0 0 6.175 9.012l-3.512 3.944-.82-.71-1.064 1.098.83 14.269 7.365-9.024-.821-.73 3.53-3.946a37.82 37.82 0 0 0 24.476 7.186c9.672-.563 19.147-4.819 26.063-12.612 6.727-7.559 10.106-17.275 9.518-27.353-.589-10.095-5.072-19.354-12.63-26.08z"/></g><g><g><path fill="#38464c" d="M43.188 128.98l-8.933 10.039-5.504-4.898 8.933-10.038z"/></g><g><path fill="#676772" d="M2.367 169.31a6.5 6.5 0 0 0 9.358-.744l25.543-31.292-7.133-6.348L2.02 159.929a6.502 6.502 0 0 0 .347 9.382z"/></g><g opacity=".6"><path fill="#bde5f2" d="M29.492 103.933c1.055 18.094 16.572 31.902 34.666 30.85a32.696 32.696 0 0 0 20.137-8.461 31.941 31.941 0 0 0 5.039-5.747 33.259 33.259 0 0 0 2.379-4.064 32.517 32.517 0 0 0 3.362-13.822c.01-.845 0-1.71-.05-2.573C93.972 82.022 78.434 68.194 60.34 69.25c-.864.05-1.744.142-2.582.252a32.432 32.432 0 0 0-13.318 4.941 32.935 32.935 0 0 0-3.76 2.835 31.976 31.976 0 0 0-5.125 5.673 32.71 32.71 0 0 0-6.063 20.983z"/></g><g opacity=".3"><path fill="#e3fbff" d="M44.44 74.442l47.273 42.069a32.516 32.516 0 0 0 3.362-13.822L57.758 69.501a32.431 32.431 0 0 0-13.318 4.941z"/></g><g opacity=".3"><path fill="#e3fbff" d="M35.555 82.95l48.74 43.372a31.944 31.944 0 0 0 5.039-5.747L40.68 77.277a31.978 31.978 0 0 0-5.125 5.673z"/></g><g><path fill="#375e82" d="M62.29 74.218c6.814 0 13.31 2.466 18.441 7.033 5.548 4.936 8.84 11.736 9.271 19.148.432 7.412-2.05 14.548-6.985 20.095-10.19 11.447-27.792 12.474-39.24 2.286-5.548-4.937-8.84-11.737-9.271-19.15-.432-7.411 2.047-14.547 6.984-20.093 4.935-5.547 11.736-8.839 19.148-9.27a28.554 28.554 0 0 1 1.652-.05zm-.058 65.622c10.434 0 20.825-4.28 28.29-12.667 6.72-7.552 10.097-17.267 9.51-27.359-.587-10.09-5.07-19.349-12.621-26.068-7.55-6.719-17.25-10.098-27.358-9.509-10.09.588-19.349 5.07-26.068 12.62-13.872 15.588-12.477 39.555 3.112 53.428 7.198 6.406 16.182 9.555 25.135 9.555z"/></g></g><g><g><g><path fill="#ffc550" d="M270.806 87.056c13.127 6.112 29.17 4.26 40.651-5.988 5.547-4.95 9.263-11.172 11.102-17.842l-17.911-5.003c-2.312 8.319-10.171 14.19-19.125 13.681a18.541 18.541 0 0 1-6.855-1.721z"/></g><g><path fill="#edf4fc" d="M258.718 78.07c.273.308.562.602.849.898l13.456-12.835a18.702 18.702 0 0 1-5.14-14.01c.585-10.332 9.435-18.228 19.768-17.642 7.36.42 13.495 5.031 16.19 11.389l17.123-7.273a36.966 36.966 0 0 0-6.508-10.28c-13.73-15.386-37.353-16.729-52.74-2.999-15.397 13.74-16.728 37.367-2.998 52.751z"/></g><g><path fill="#4c8" d="M305.306 54.25a18.87 18.87 0 0 1-.658 3.973l17.911 5.003c2.259-8.057 1.766-16.775-1.595-24.63l-17.123 7.274a18.55 18.55 0 0 1 1.465 8.38z"/></g><g><path fill="#d1d9fe" d="M259.567 78.968a36.849 36.849 0 0 0 11.24 8.088l7.861-16.873a18.569 18.569 0 0 1-5.645-4.05z"/></g></g><g><g><path fill="#edf4fc" d="M233.161 27.37a6.563 6.563 0 0 1 8.561 5.192l-3.226.518a3.3 3.3 0 0 0-4.298-2.607z"/></g><g><path fill="#ffc550" d="M230.872 28.699c.054-.048.11-.094.165-.14l2.094 2.51a3.288 3.288 0 0 0-1.175 2.343 3.29 3.29 0 0 0 3.1 3.475 3.296 3.296 0 0 0 3.053-1.666l2.844 1.61a6.465 6.465 0 0 1-1.341 1.666 6.567 6.567 0 0 1-9.268-.526 6.568 6.568 0 0 1 .528-9.272z"/></g><g><path fill="#ffc550" d="M238.531 33.786c.014-.242 0-.479-.035-.706l3.226-.517a6.537 6.537 0 0 1-.769 4.268l-2.844-1.61c.242-.426.394-.913.422-1.435z"/></g><g><path fill="#4c8" d="M231.037 28.558a6.49 6.49 0 0 1 2.124-1.187l1.037 3.102a3.29 3.29 0 0 0-1.067.595z"/></g></g><g><g><path fill="#4c8" d="M238.861 76.203a6.563 6.563 0 0 1-6.248 3.621 6.494 6.494 0 0 1-3.477-1.239l1.916-2.647a3.297 3.297 0 0 0 4.882-1.197z"/></g><g><path fill="#d1d9fe" d="M239.54 73.644c-.004.072-.01.145-.017.217l-3.256-.293a3.294 3.294 0 1 0-6.455.583l-3.152.872a6.566 6.566 0 0 1 6.698-8.308 6.566 6.566 0 0 1 6.182 6.929z"/></g><g><path fill="#edf4fc" d="M230.527 75.463c.162.182.34.34.525.475l-1.916 2.647a6.544 6.544 0 0 1-2.476-3.562l3.152-.872c.13.473.367.923.715 1.312z"/></g><g><path fill="#ffc550" d="M239.523 73.86a6.494 6.494 0 0 1-.662 2.343l-2.927-1.462c.186-.37.295-.767.333-1.173z"/></g></g><g><g><path fill="#d1d9fe" d="M231.184 59.308a6.56 6.56 0 0 1-3.623-6.246 6.503 6.503 0 0 1 1.239-3.478l2.648 1.917a3.297 3.297 0 0 0 1.196 4.88z"/></g><g><path fill="#4c8" d="M233.741 59.989c-.072-.005-.145-.012-.217-.019l.294-3.255a3.285 3.285 0 0 0 2.489-.825 3.291 3.291 0 0 0-3.072-5.63l-.873-3.151a6.568 6.568 0 0 1 8.308 6.696 6.567 6.567 0 0 1-6.929 6.184z"/></g><g><path fill="#ffc550" d="M231.92 50.974c-.18.162-.337.34-.472.527l-2.648-1.917a6.531 6.531 0 0 1 3.562-2.475l.873 3.151c-.474.13-.924.366-1.314.714z"/></g><g><path fill="#edf4fc" d="M233.524 59.97a6.448 6.448 0 0 1-2.34-.662l1.46-2.927c.37.188.768.296 1.173.334z"/></g></g></g></g><g><g opacity=".5"><path fill="#abb2b7" d="M295.695 198.838l-9.718 24.062a2.542 2.542 0 0 1-3.312 1.407l-32.97-13.317a2.542 2.542 0 0 1-1.407-3.311l9.717-24.063a2.54 2.54 0 0 1 3.312-1.405l32.972 13.316a2.54 2.54 0 0 1 1.406 3.311z"/></g><g opacity=".5"><path fill="#cad3db" d="M297.45 196.046l-8.418 24.548a2.545 2.545 0 0 1-3.233 1.582l-33.635-11.533a2.543 2.543 0 0 1-1.581-3.233l8.416-24.548a2.542 2.542 0 0 1 3.232-1.58l33.637 11.532a2.544 2.544 0 0 1 1.581 3.232z"/></g><g><path fill="#edf4fc" d="M300.004 192.263l-6.837 25.033a2.542 2.542 0 0 1-3.124 1.784l-34.302-9.368a2.542 2.542 0 0 1-1.784-3.124l6.837-25.035a2.542 2.542 0 0 1 3.123-1.784l34.303 9.368a2.543 2.543 0 0 1 1.784 3.126z"/></g><g><path fill="#4c8" d="M300.004 192.263l-1.517 5.553-39.21-10.708 1.517-5.555a2.542 2.542 0 0 1 3.123-1.784l34.303 9.368a2.543 2.543 0 0 1 1.784 3.126z"/></g><g><path fill="#fff" d="M258.783 188.914l.494-1.806 39.21 10.707-.493 1.807z"/></g><g><path fill="#32a066" d="M272.787 185.39a3.046 3.046 0 0 1-3.739 2.136 3.044 3.044 0 1 1 3.739-2.135z"/></g><g><path fill="#32a066" d="M293.596 191.075a3.043 3.043 0 1 1-5.87-1.604 3.043 3.043 0 0 1 5.87 1.604z"/></g><g><g><g><path fill="#ffc550" d="M269.852 186.67a2.08 2.08 0 0 1-2.008-2.628l1.187-4.348a2.073 2.073 0 0 1 2.553-1.46 2.078 2.078 0 0 1 1.46 2.554l-1.186 4.35a2.08 2.08 0 0 1-2.006 1.532z"/></g><g><path fill="#ffc550" d="M290.662 192.353a2.081 2.081 0 0 1-2.008-2.628l1.188-4.351a2.074 2.074 0 0 1 2.556-1.459 2.08 2.08 0 0 1 1.458 2.556l-1.188 4.351a2.08 2.08 0 0 1-2.006 1.53z"/></g></g></g><g><path fill="#72edad" d="M261.575 196.497l.884-3.239 3.815 1.042-.884 3.238z"/></g><g><path fill="#72edad" d="M287.921 203.692l.885-3.239 3.814 1.042-.885 3.238z"/></g><g><path fill="#72edad" d="M281.335 201.893l.884-3.239 3.815 1.042-.885 3.238z"/></g><g><path fill="#72edad" d="M274.748 200.094l.884-3.238 3.815 1.041-.884 3.239z"/></g><g><path fill="#72edad" d="M268.162 198.295l.884-3.238 3.815 1.042-.884 3.238z"/></g><g><path fill="#72edad" d="M260.137 201.762l.885-3.24 3.815 1.041-.885 3.24z"/></g><g><path fill="#72edad" d="M286.484 208.957l.884-3.24 3.815 1.042-.885 3.24z"/></g><g><path fill="#72edad" d="M279.897 207.158l.884-3.24 3.815 1.042-.884 3.24z"/></g><g><path fill="#72edad" d="M273.31 205.36l.885-3.24 3.814 1.041-.885 3.24z"/></g><g><path fill="#72edad" d="M266.724 203.56l.885-3.24 3.814 1.042-.885 3.24z"/></g><g><path fill="#72edad" d="M258.7 207.025l.884-3.24 3.815 1.042-.885 3.24z"/></g><g><path fill="#72edad" d="M285.046 214.22l.884-3.24 3.815 1.042-.884 3.24z"/></g><g><path fill="#72edad" d="M278.46 212.422l.884-3.24 3.814 1.042-.885 3.24z"/></g><g><path fill="#72edad" d="M271.873 210.623l.885-3.24 3.815 1.042-.885 3.24z"/></g><g><path fill="#72edad" d="M265.286 208.824l.884-3.24 3.816 1.042-.885 3.24z"/></g></g><g><g><path fill="#ffc550" d="M25.477 183.558l3.12 16.045a2.428 2.428 0 0 0 2.858 1.927l33.488-6.508a2.43 2.43 0 0 0 1.929-2.859l-3.12-16.045a2.443 2.443 0 0 0-2.861-1.942l-33.488 6.51a2.441 2.441 0 0 0-1.926 2.872z"/></g><g><path fill="#ffe1ab" d="M25.474 183.544l.17.87 18.276 7.061a5.47 5.47 0 0 0 5.712-1.11l14.287-13.39-.167-.856a2.453 2.453 0 0 0-2.875-1.94l-33.474 6.507a2.438 2.438 0 0 0-1.929 2.858z"/></g><g><path fill="#4c8" d="M24.075 202.296a6.1 6.1 0 1 0 11.972-2.327 6.1 6.1 0 0 0-11.972 2.327z"/></g></g><g><g><path fill="#4c8" d="M111.266 227.142l-9.968 9.968-9.967-9.968c-5.501-5.501-5.501-14.429 0-19.932 5.505-5.504 14.43-5.504 19.935 0 5.506 5.506 5.502 14.43 0 19.932z"/></g><g><path fill="#2aa866" d="M104.715 220.59a4.83 4.83 0 1 1-6.83-6.829 4.83 4.83 0 0 1 6.83 6.83z"/></g></g><g opacity=".4"><g opacity=".4"><path fill="#375e82" d="M170.146 121.63c.671-9.156 2.045-20.097 3.266-28.369 4.532 6.608 8.575 13.186 9.064 15.215-1.037 2.045-6.684 7.905-12.33 13.155zm-27.074-1.647c-2.806-5.693-5.294-11.446-5.446-13.186.487-1.571 3.525-5.92 7.233-10.773-.748 7.416-1.343 16.466-1.787 23.959zm45.982-11.125c.03-1.145-.52-2.839-1.45-4.853-2.747-5.937-8.79-14.62-12.804-20.114a2.739 2.739 0 0 0-.396-.442 2.707 2.707 0 0 0-2.396-1.435h-7.035c.274-1.907.29-3.83.213-5.387a12.19 12.19 0 0 0 5.143-5.173c.534.168 1.13.107 1.618-.305a4.42 4.42 0 0 0 1.571-3.388c0-.885-.274-1.694-.701-2.38.228-.779.381-1.603.442-2.336.214-2.731-.015-5.753-3.464-7.11 1.373-2.153-3.968-6.67-8.44-5.128-10.271 3.555-10.33-.336-10.33-.336-4.441 1.297-4.869 5.387-2.9 7.188-1.145 1.51-1.221 3.51-1.068 5.386.03.382.107.84.198 1.328-.046.458-.091.916-.091 1.389 0 6.104 4.47 11.17 10.316 12.117.03 1.526-.077 3.067-.367 4.135h-7.874c-.855 0-1.633.397-2.137 1.038-.29.183-.549.397-.778.672-4.288 5.127-14.345 17.564-15.154 21.99-.61 3.296 3.327 11.964 7.173 19.427-.382.29-.778.55-1.099.656a3.29 3.29 0 0 0-2.03 4.166 3.272 3.272 0 0 0 4.167 2.014c1.19-.412 2.273-1.114 3.174-1.83-.138 2.868-.214 4.638-.214 4.638s-.381 8.76.23 17.626c.136 3.45 1.281 30.079 2.822 40.273a8379.26 8379.26 0 0 0 3.113 20.296l11.019-.64a8484.285 8484.285 0 0 1-3.266-21.304c-1.36-8.973-2.442-32.994-2.67-38.35h4.852c.183 4.456 1.312 30.048 2.808 39.998.656 4.35 1.831 11.949 2.976 19.38l11.048-.64a4816.051 4816.051 0 0 1-3.143-20.388c-1.526-10.072-2.717-39.128-2.733-39.418 0-.199-.045-.382-.075-.58.854-2.533 2.045-8.012.534-16.253-.092-1.19-.122-2.563-.107-4.09.87.687 1.937 1.359 3.081 1.756a2.93 2.93 0 0 0 1.07.183c1.358 0 2.625-.84 3.083-2.198a3.252 3.252 0 0 0-2.015-4.15l-.122-.062a198.431 198.431 0 0 0 4.807-4.593c9.294-9.233 9.37-11.797 9.4-12.773z"/></g><g opacity=".4"><path fill="#375e82" d="M214.554 110.445zm6.226 11.033c.81 6.547-1.587 12.483-3.586 16.13-.35-5.219-1.282-17.702-2.64-27.163 3.083 4.074 5.921 8.53 6.226 11.033zm-26.92 18.374zm-9.339-18.633c.382-2.976 3.068-7.997 5.525-12.026 1.968 9.935 4.44 21.35 3.815 30.659-3.037-2.747-10.362-10.347-9.34-18.633zm37.312 21.93a14.508 14.508 0 0 1-1.785-.87c2.396-3.694 6.7-11.858 5.524-21.396-.84-6.7-11.262-18.465-12.452-19.778a2.464 2.464 0 0 0-1.832-.793 3.03 3.03 0 0 0-.915-.153h-8.668c-.03-1.16.015-2.32.106-3.342 6.67-.244 12.01-5.707 12.01-12.437 0 0 3.526-9.721-9.11-14.223-.473-.168-.93-.29-1.404-.412-.32-.946-.961-1.908-2.136-2.976-4.838-4.395-14.086-1.8-15.993 4.7-1.786 6.12.503 8.348 2.67 12.53a3.987 3.987 0 0 0 .473 5.6c.122.091.244.168.366.213-.671 3.556-2.792 6.807-2.792 6.807s4.028-.275 7.798-2.427a12.04 12.04 0 0 0 3.357 1.862 31.25 31.25 0 0 0-.168 4.105h-5.219c-.717 0-1.358.275-1.846.717l-.2.199c-.03.046-.075.076-.106.122-.03.046-.076.091-.106.137-.23.32-.9 1.297-1.801 2.67-2.655 4.075-7.249 11.72-7.86 16.62-.046.335-.076.671-.09 1.007-.627 9.354 6.226 17.29 10.056 20.968-.504.26-.946.458-1.206.55a2.415 2.415 0 0 0-1.358 3.128 2.406 2.406 0 0 0 2.243 1.526c.29 0 .596-.046.886-.168.091-.03.381-.153.793-.336-2.686 13.185 1.679 33.527 1.679 33.527h.442c-.244 4.579-.55 8.699-.961 11.446-.626 4.105-2.076 11.232-3.602 18.374l8.44-.489c1.358-6.5 2.609-12.803 3.204-16.68.473-3.082.809-7.66 1.053-12.65h5.173c-.335 4.562-.732 8.683-1.144 11.445a2695.029 2695.029 0 0 1-2.701 17.565l8.317-.489c.961-6.241 1.862-12.193 2.426-15.87.458-3.068.9-7.646 1.267-12.652h.763c.824-3.555 1.495-24.142 1.77-34.61 1.404.824 2.67 1.342 2.884 1.419.29.122.58.168.885.168.962 0 1.862-.58 2.244-1.526a2.436 2.436 0 0 0-1.374-3.129z"/></g></g><g><g><path fill="#e2e2e2" d="M123.616 254.086h101.895a2.391 2.391 0 1 0 0-4.784H123.616a2.391 2.391 0 1 0 0 4.784z"/></g><g><g><g><path fill="#d6ddea" d="M167.938 244.743l-1.293-10.085-4.742-.709 2.283 10.554z"/></g><g><path fill="#4c8" d="M163.28 243.15a1.64 1.64 0 0 0-.83.35c-1.624 1.347-3.482 3.1-6.403 3.88-2.65.709-1.597 1.979 1.004 1.979 3.821 0 5.349-.15 7.05-.106 1.703.043.598.106 4.787.106 1.923 0 1.288-3.75.269-6.007-.28-.618-.821-.908-1.52-.809z"/></g></g><g><g><path fill="#d6ddea" d="M147.666 244.743l-1.294-10.085-4.742-.709 2.285 10.554z"/></g><g><path fill="#4c8" d="M143.008 243.15a1.634 1.634 0 0 0-.829.35c-1.625 1.347-6.56 3.757-9.093 4.122-2.717.392-2.856 1.737.966 1.737 3.82 0 6.621-.342 8.324-.297 1.705.043 1.262.297 5.451.297 3.214 0 2.208-4.1 1.058-6.007-.35-.58-.821-.908-1.52-.809z"/></g></g><g><path fill="#31af6d" d="M142.295 44.168c2.822-.508 8.094 5.192 1.526 13.64-4.674 6.008-7.169-1.698-7.44-5.07-.286-3.54.095-7.52 5.914-8.57z"/></g><g><path fill="#e5df00" d="M140.736 75.579a3.681 3.681 0 0 0-5.19.47c-4.83 5.79-16.164 19.797-17.078 24.798-.75 4.1 5.245 15.333 10.395 23.947l4.561-2.765c-5.928-8.52-6.214-16.341-7.671-19.968.856-2.738 9.048-11.66 15.894-19.868 1.303-1.563.653-5.31-.911-6.614z"/></g><g><path fill="#ffaf84" d="M126.118 131.135c-1.717-.636-2.662-1.467-3.266-2.96-1.708-4.211.972-3.062 2.896-3.73.954-.331 2.323-2.543 2.859-3.171 1.318-1.55 3.294-1.856 4.846-.536 1.548 1.322 1.195 3.316.415 5.196-.444 1.07-1.295 3.298-4.178 4.873-1.271.696-2.046.772-3.572.328z"/></g><g><path fill="#ffaf84" d="M156.87 69.989c0 3.174-.445 7.066-2.183 9.828-2.243 3.54-2.686 4.273-2.732 4.35a4.359 4.359 0 0 1-3.739 2.105 4.379 4.379 0 0 1-2.228-.61 4.364 4.364 0 0 1-1.51-5.967s.35-.595 2.838-4.533c.427-.671.656-1.938.763-3.387.137-1.97.03-4.273-.214-5.876-.366-2.365 1.282-4.593 3.663-4.944 2.365-.351 4.593 1.282 4.944 3.662.123.733.397 2.839.397 5.372z"/></g><g><path fill="#e5df00" d="M167.529 77.717c-2.158 12.363-6.369 43.404-5.453 55.895h-31.014s1.87-46.005 4.809-57.214a3.057 3.057 0 0 1 2.962-2.272h25.671a3.067 3.067 0 0 1 3.025 3.591z"/></g><g><path fill="#2e2947" d="M160.727 153.798s3.777-6.925 1.35-20.186h-31.015s-.44 10.093.272 20.186z"/></g><g><path fill="#2e2947" d="M164.153 197.091c-1.717-11.367-1.24-45.128-1.94-49.008-.607-3.368-5.85-3.203-9.25-3.1-3.422.138-6.625 4.68-6.486 8.1.055 1.375 4.087 33.76 5.902 45.797 1.311 8.672 7.045 31.429 9.152 41.582l7.856-.895c-1.573-10.175-3.928-33.812-5.234-42.476z"/></g><g><path fill="#2e2947" d="M146.756 197.029c-.93-11.647-1.346-44.563-1.36-44.892-.139-3.42-4.753-5.601-8.156-5.499a6.198 6.198 0 0 0-5.943 6.445c.055 1.375 1.383 33.76 3.199 45.797 1.31 8.672 4.477 32.198 6.957 42.404l7.058-.891c-1.572-10.174-1.058-34.63-1.755-43.364z"/></g><g><path fill="#e5df00" d="M167.65 76.237a3.688 3.688 0 0 0-5.151-.806c-1.644 1.2-2.152 4.479-.952 6.124 6.614 9.066 13.488 19.75 14.198 22.685-6.568 5.294-3.452 8.823-16.12 17.449l3.265 4.154c17.952-15.11 20.787-20.129 20.822-21.454.14-5.149-10.004-19.848-16.063-28.152z"/></g><g><path fill="#ed8c62" d="M156.87 69.989a13.705 13.705 0 0 1-7.02 1.908c-.596 0-1.191-.03-1.77-.122.137-1.97.03-4.273-.215-5.876-.366-2.365 1.282-4.593 3.663-4.944 2.365-.351 4.593 1.282 4.944 3.662.123.733.397 2.839.397 5.372z"/></g><g><path fill="#ffaf84" d="M137.075 56.024c0 7.649 5.63 14.192 13.28 14.192 6.514 0 13.848-6.76 13.848-14.409 0-7.648-6.198-13.85-13.849-13.85-7.648 0-13.28 6.419-13.28 14.067z"/></g><g><path fill="#ffaf84" d="M166.099 131.048c-.968.01-1.777-.316-2.96-1.053-1.61-1-2.827-1.947-4.042-3.61-1.2-1.644-.948-3.791.603-5.111a3.685 3.685 0 0 1 5.195.416c.647.751 1.752 2.431 2.68 2.692 2.937.826 4.138 1.674 3.032 3.383-.953 1.473-3.019 3.266-4.508 3.283z"/></g><g><path fill="#4c8" d="M159.995 44.168c-2.822-.508-8.624 6.05-.573 13.098 4.421 3.87 6.214-1.156 6.486-4.528.287-3.54-.095-7.52-5.913-8.57z"/></g><g><path fill="#4c8" d="M152.492 38.954c5.377-1.86 11.852 4.044 9.125 6.215-1.201.957-1.145.812-4.197 1.717-3.052.907-15.833 1.908-18.981.382-3.147-1.526-3.162-7.074 2.417-8.696 0 0 .064 4.388 11.636.382z"/></g><g><path fill="#ffaf84" d="M166.213 58.052a5.014 5.014 0 0 1-1.78 3.834c-1.275 1.079-3.239.106-3.239-1.565v-4.538c0-1.67 1.964-2.643 3.24-1.564a5.016 5.016 0 0 1 1.78 3.833z"/></g><g><path fill="#edf4fc" d="M155.537 92.6l-6.872-7.613a1.363 1.363 0 0 0-1.929-.095l-8.457 7.709h3.584l-.65 6.691c-.079.8.551 1.494 1.354 1.494h7.356a1.36 1.36 0 0 0 1.355-1.231l.677-6.954z"/></g><g><path fill="#ffaf84" d="M144.465 74.126c-.717 2.501 1.647 3.976 5.789 3.393 2.892-.408 5.996-1.717 8.369-3.393z"/></g><g><g><path fill="#454068" d="M166.193 241.344c-.053-.348-5.454-34.816-6.284-45.918-.876-11.67-2.464-41.185-2.464-45.77V133.03h.763v16.628c0 4.573 1.587 34.054 2.461 45.713.829 11.071 6.223 45.508 6.278 45.855z"/></g><g><path fill="#454068" d="M145.547 153.997v-20.968h.763v20.968z"/></g><g><path fill="#454068" d="M145.929 149.587a3.818 3.818 0 0 1-3.815-3.816V133.03h.763v12.742a3.055 3.055 0 0 0 3.052 3.053z"/></g></g></g><g><g><path fill="#370bd8" d="M209.227 56.943c-5.46-4.958-15.887-2.024-18.026 5.303-2.141 7.328.899 9.706 3.469 15.027 2.568 5.323-2.663 13.312-2.663 13.312s16.103-1.1 16.089-15.308c-.01-8.853 7.778-12.3 1.13-18.334z"/></g><g><g><path fill="#ffaf84" d="M212.83 108.201c-.443.26-.916.397-1.39.397-.93 0-1.83-.473-2.334-1.327-.032-.046-.458-.748-2.793-4.441-1.892-3.022-2.06-7.753-1.892-10.942.092-1.71.26-2.976.32-3.312a2.725 2.725 0 0 1 3.083-2.289c1.496.23 2.518 1.603 2.29 3.083a28.242 28.242 0 0 0-.29 3.754c-.062 2.58.182 5.372 1.098 6.806a907.23 907.23 0 0 1 2.854 4.548 2.724 2.724 0 0 1-.946 3.723z"/></g><g><path fill="#ffaf84" d="M211.655 153.464c-.016 1.084-.489 20.678-1.374 35.283-.015.152-.015.305-.03.457-.275 4.106-.795 8.089-1.206 10.744-1.816 12.04-10.469 44.5-10.79 45.888l-3.265-.259c.092-.336.366-33.024 4.15-47.17.596-2.213.642-5.387.855-8.928.016-.168.016-.336.031-.503.9-14.422.977-35.39.992-35.65a4.569 4.569 0 0 1 4.578-4.562h.015c2.534 0 6.044 2.182 6.044 4.7z"/></g><g><path fill="#ffaf84" d="M226.228 153.525c-.045 1.068-.854 20.785-2.06 35.313-.015.046-.015.092-.015.138-.351 4.257-.732 8.057-1.145 10.804-1.403 9.294-8.56 36.045-10.056 45.66l-3.327-.702c0-27.454 2.533-38.808 4.15-45.309.565-2.259.321-6.638.214-10.316-.015-.122-.015-.244-.015-.366-.427-15.261.244-27.347.153-34.749.107-2.533 5.127-5.28 7.706-5.234a4.575 4.575 0 0 1 4.395 4.761z"/></g><g><path fill="#ed8c62" d="M210.113 89.37a28.227 28.227 0 0 0-.29 3.754 13.602 13.602 0 0 1-5.402-1.236c.092-1.71.26-2.976.32-3.312a2.725 2.725 0 0 1 3.083-2.289c1.496.23 2.518 1.603 2.29 3.083z"/></g><g><path fill="#ffaf84" d="M222.874 76.803c-1.24 7.735-5.259 15.147-13.013 15.147-7.753 0-13.502-6.906-13.502-14.66 0-7.756 5.327-14.528 13.081-14.528s14.663 6.383 13.434 14.04z"/></g><g><path fill="#ffaf84" d="M232.891 143.2c-1.349-.415-2.417.385-4.04-1.62 4.992-8.362 9.203-12.891 7.872-23.636-.937-7.56-12.69-20.81-14.027-22.296a2.717 2.717 0 0 0-4.04 3.637c4.609 5.124 12.125 14.902 12.672 19.326 1.491 12.042-6.658 22.303-6.737 22.4-.041.051-.067.107-.105.16-.055.079-.11.157-.156.239-.043.076-.075.153-.11.232-.036.085-.075.166-.102.255-.026.082-.043.165-.061.25-.02.087-.04.173-.05.261-.01.085-.01.17-.011.255-.003.09-.006.177.001.265.006.084.02.167.035.25.016.09.03.176.052.265.023.079.054.155.083.235.032.087.064.17.103.253.039.076.084.146.127.218.052.08.1.159.159.235.05.067.11.127.17.19.048.051.088.11.141.158.034.03.072.057.104.087l.015.015.01.005c2.137 1.892 4 2.61 4.349 2.745.326.129.662.19.993.19 1.084 0 3.116-.957 3.536-2.027.55-1.398.45-2.104-.983-2.547z"/></g><g><path fill="#ed8c62" d="M211.655 153.464c-.016 1.084-.489 20.678-1.374 35.283-.015.152-.015.305-.03.457l-10.255.275c.015-.168.015-.336.03-.503.9-14.422.977-35.39.992-35.65a4.569 4.569 0 0 1 4.578-4.562h.015c2.534 0 6.044 2.182 6.044 4.7z"/></g><g><path fill="#ed8c62" d="M226.228 153.525c-.045 1.068-.854 20.785-2.06 35.313l-10.179.275c-.015-.122-.015-.244-.015-.366-.427-15.261.244-27.347.153-34.749.107-2.533 5.127-5.28 7.706-5.234a4.575 4.575 0 0 1 4.395 4.761z"/></g><g><path fill="#4c8" d="M199.722 185.519s-7.24-33.787 1.253-45.931h26.496s-.913 40.497-2.187 45.931z"/></g></g><g><g><path fill="#2e2947" d="M227.358 138.07c.076.98.106 1.527.106 1.527h-26.492c.03-.502.061-1.006.09-1.526 0-.151.017-.304.017-.458a59.956 59.956 0 0 0-.107-5.706c-.015-.198-.015-.398-.03-.61-.046-.719-.092-1.45-.168-2.183-.015-.215-.046-.412-.061-.625a123.237 123.237 0 0 0-.687-5.524c-.015-.17-.046-.336-.076-.504-.107-.763-.23-1.526-.351-2.29-.016-.138-.046-.259-.077-.397-.305-1.922-.656-3.86-1.022-5.767 0-.016 0-.03-.015-.048-.168-.853-.32-1.723-.489-2.579-.015-.06-.015-.105-.03-.166-.366-1.833-.719-3.649-1.084-5.402-.046-.26-.106-.504-.152-.748-.107-.582-.23-1.16-.336-1.726-.061-.351-.137-.716-.198-1.067a180.86 180.86 0 0 1-.748-4.044 1.682 1.682 0 0 1-.03-.275 3.04 3.04 0 0 1 .411-1.846 3.116 3.116 0 0 1 2.686-1.526h21.075c1.114 0 2.136.595 2.67 1.526.153.229.26.504.336.777.092.381.199.78.275 1.192.244 1.037.488 2.21.717 3.479.534.166 1.023.41 1.48.717.52.334.992.763 1.39 1.236.396.458.717.992.945 1.557.138.305.245.626.32.944.108.46.169.948.169 1.435 0 1.42-.473 2.733-1.282 3.77a.828.828 0 0 1-.183.214 5.644 5.644 0 0 1-1.282 1.19c.046.428.107.87.137 1.312.015.03.015.047.015.077.214 1.878.413 3.785.596 5.662l.045.504c.077.732.138 1.45.199 2.15.015.215.046.429.06.642.153 1.847.321 3.633.443 5.311.03.29.061.563.077.84.045.67.107 1.31.137 1.922.03.29.061.58.076.87.168 2.167.29 3.983.367 5.31.03.321.045.594.06.854z"/></g><g><g><path fill="#332f4f" d="M227.297 137.212a375.438 375.438 0 0 0-26.218.397 60.007 60.007 0 0 0-.107-5.708c-.015-.198-.015-.397-.03-.61a357.887 357.887 0 0 1 25.912-.26c.03.29.061.58.076.87.168 2.167.29 3.983.367 5.31z"/></g><g><path fill="#332f4f" d="M226.64 128.27a367.182 367.182 0 0 0-25.927.213 123.351 123.351 0 0 0-.687-5.525c-.015-.167-.046-.335-.076-.503a374.52 374.52 0 0 1 26.187-.138c.015.214.046.428.06.641.153 1.847.321 3.632.443 5.311z"/></g><g><path fill="#332f4f" d="M225.893 119.662a370.601 370.601 0 0 0-26.37.107c-.306-1.923-.657-3.861-1.023-5.769 0-.015 0-.03-.015-.045 8.927-.32 17.87-.336 26.797-.03.016.03.016.045.016.075.213 1.877.412 3.785.595 5.662z"/></g><g><path fill="#332f4f" d="M227.892 107.438a6.11 6.11 0 0 1-1.282 3.77.803.803 0 0 1-.183.213 383.935 383.935 0 0 0-28.43-.045c-.016-.061-.016-.107-.031-.168-.366-1.832-.719-3.648-1.084-5.402a392.245 392.245 0 0 1 30.842.198c.107.458.168.946.168 1.434z"/></g><g><path fill="#332f4f" d="M226.457 103.501a387.172 387.172 0 0 0-30.063-.168c-.061-.35-.137-.717-.198-1.068a180.817 180.817 0 0 1-.748-4.044 1.678 1.678 0 0 1-.03-.275c9.156-.29 18.312-.244 27.453.122.244 1.038.488 2.213.717 3.48a5.776 5.776 0 0 1 1.48.717c.52.336.993.763 1.39 1.236z"/></g></g></g><g><path fill="#ffaf84" d="M203.217 143.9c.053-.11.09-.224.128-.338.015-.054.041-.107.055-.162.028-.112.041-.226.057-.34.006-.058.02-.115.022-.174.008-.12-.001-.238-.009-.357-.004-.054-.001-.107-.007-.16-.017-.118-.05-.233-.08-.349-.013-.053-.023-.108-.04-.161-.033-.101-.082-.194-.126-.29-.032-.066-.056-.135-.093-.199-.044-.075-.1-.145-.154-.218-.055-.076-.104-.154-.167-.224-.009-.011-.015-.023-.024-.034-.06-.062-.127-.111-.188-.168-.053-.049-.097-.104-.155-.148-.135-.105-12.181-10.426-11.972-22.253.091-5.164 7.389-15.666 9.937-19.297a2.717 2.717 0 0 0-4.447-3.124c-1.017 1.449-9.968 14.364-10.885 21.753-1.364 11.018 9.541 19.883 14.025 24.179-1.804 1.717-3.065 1.05-4.144 1.21-1.485.223-1.585 1.305-1.262 2.771.228 1.02.53 1.519.924 2.044.894 1.191 2.36.586 2.67.42 1.279-.678 3.042-1.545 5.178-3.43l.018-.015c.04-.037.084-.067.124-.104.093-.082.168-.178.244-.272.022-.025.05-.045.07-.071l.016-.023c.08-.107.146-.22.209-.334.023-.045.055-.086.076-.132z"/></g><g><path fill="#40f" d="M202.167 70.303c5.642 3.239 18.91 2.38 21.313 6.5 0 0 3.972-10.959-10.258-16.037-13.066-4.664-18.903 5.032-11.055 9.537z"/></g><g><path fill="#40f" d="M202.93 64.453c3.675 1.306-1.607 13.256-7.5 13.256"/></g><g><path fill="#ffaf84" d="M193.939 79.246c0 1.377.62 2.61 1.593 3.434 1.143.967 2.902.094 2.902-1.401v-4.066c0-1.497-1.76-2.368-2.902-1.402a4.49 4.49 0 0 0-1.593 3.435z"/></g><g><path fill="#35b773" d="M203.823 182.21l-.668-.37 19.718-35.748.668.37z"/></g><g><path fill="#35b773" d="M213.708 182.148l-.721-.247 10.635-31.12.72.247z"/></g><g><path fill="#fff" d="M201.493 94.58l.209.291c.679.943 1.558 1.829 2.612 2.64 2.176 1.658 4.72 2.648 6.805 2.648 1.183 0 2.135-.325 2.77-.941 1.07-1.04 1.059-2.763-.025-4.638z"/></g><g><path fill="#ffaf84" d="M202.462 94.58c.59.82 1.385 1.633 2.36 2.379 3.09 2.356 6.805 3.095 8.302 1.64.93-.901.79-2.427-.192-4.02z"/></g><g><path fill="#332f4f" d="M198.508 244.854c.22.03.431.114.6.253 1.179.978 2.526 2.25 4.646 2.817 1.925.513 1.16 1.434-.726 1.434-2.773 0-3.881-.108-5.117-.076-1.236.032-.435.076-3.475.076-1.393 0-.934-2.72-.194-4.356.203-.45.595-.661 1.102-.588z"/></g><g><path fill="#332f4f" d="M213.121 244.854c.221.03.434.114.601.253 1.18.978 4.762 2.727 6.6 2.992 1.97.284 2.07 1.26-.701 1.26-2.775 0-4.807-.248-6.042-.217-1.236.033-.916.216-3.954.216-2.333 0-1.604-2.974-.77-4.356.256-.423.597-.661 1.106-.588z"/></g></g></g></g></g></svg>