<svg xmlns="http://www.w3.org/2000/svg" width="363" height="259" viewBox="0 0 363 259"><g><g><g><g><g><path fill="#e5d1bd" d="M301.644 147.764a1.12 1.12 0 0 0-.05-.058c-.771-.846-1.708-.236-2.585-.499-.821-.246-1.075-1.671-1.974-1.38-.379.122-1.053.546-1.776.772-1.055.329-2.52.204-3.743-.145-4.808-1.373-9.646-2.657-14.606-3.468-.283-.046-.564-.083-.792-.266-.41-.329-.437-.824-.516-1.313-.368-2.268-.804-4.496-1.6-6.664-.71-1.935-1.575-3.79-3.083-5.22-1.508-1.432-3.566-2.23-5.56-1.725-1.493.376-2.771 1.322-3.17 2.83-.989 3.738 2.313 6.785 4.233 9.567 1.817 2.633 3.371 4.867 5.294 7.296.237.3.463.58.81.764.348.184.76.22 1.15.238 5.002.244 9.886.353 14.717 1.671 1.327.362 2.573.154 3.812.662.791.324 1.163 1.151 1.882 1.58.72.43 1.573.874 2.402.982 2.253.292 5.446-2.113 5.479-4.451.006-.414-.068-.852-.324-1.173z"/></g></g><g><g><path fill="#efbf48" d="M265.374 139.579c1.849 2.894 3.774 5.736 5.823 8.493.385.519.793 1.05 1.365 1.349.409.213.872.291 1.328.363 3.787.6 7.615.945 11.448 1.032.146.003.304.002.422-.084.096-.071.147-.188.193-.298.457-1.095 2.943-5.336 2.361-6.272-.65-1.044-3.4-.509-4.413-.617a71.14 71.14 0 0 1-5.346-.782c-.627-.116-1.298-.265-1.727-.737-.405-.445-.505-1.08-.604-1.673-.58-3.5-1.806-6.9-2.667-10.345-.596-2.383-1.02-4.896-1.842-7.214-1.616-4.56-1.864-6.497-4.325-9.004-2.358-2.402-6.07-3.788-9.113-1.767-3.152 2.094-3.695 6.371-2.972 9.78.298 1.407 1.03 2.677 1.754 3.92 2.706 4.656 5.417 9.319 8.315 13.856z"/></g></g></g><g><g><g><g><g><g><g><g><path fill="#ebceb1" d="M85.012 171.123l5.662 40.734-2.01 29.426 4.123 1.438 3.692-27.191 7.877-49.688z"/></g></g></g></g><g><g><g><path fill="#514943" d="M92.779 243.55l.455 3.05-1.034 5.793-3.405-.322-.641-8.583.501-1.376z"/></g></g></g></g><g><g><g><g><path fill="#ebceb1" d="M118.377 169.912l-1.82 34.548-7.7 48.298-4.173-.056 1.855-44.781-5.413-41.283z"/></g></g></g><g><g><g><path fill="#514943" d="M108.788 251.932l5.334 3.91-.666 2.922-9.765-2.328.794-4.22z"/></g></g></g></g><g><g><g><path fill="#333" d="M119.297 175.09l-.174 40.102-4.907 27.039-11.18-1.81.325-31.25-2.32-34.326 1.15-5.199 16.17 1.836z"/></g></g></g><g><g><g><path fill="#333" d="M99.46 209.762L96 238.203l-9.723-1.513 2.23-27.075-3.608-34.621 2.118-9.376 16.335 2.75z"/></g></g></g><g><g><g><path fill="#b26650" d="M84.5 111.907l-.232.121c-3.665 1.96-5.885 8.835-7.144 12.869-3.254 10.413-3.941 20.9-2.956 31.791.53 5.865 1.324 11.703 2.238 17.52.253 1.607 3.49 15.862 2.79 16.307 7.176-4.566 14.504-8.953 22.359-12.066 7.855-3.113 16.34-.358 24.754.38-4.756-18.008-10.711-40.753-18.105-57.776-.884-2.036-1.579-4.24-2.75-6.125-1.348-2.17-3.027-2.639-5.211-3.735-.749-.376-1.502-.753-2.301-.978-4.213-1.183-9.572-.3-13.442 1.692z"/></g></g></g><g><g><g><g><path fill="#eacdb0" d="M80.074 98.653c.744-7.059 9.72-11.39 13.552-4.194 1.152 2.162 2.07 4.52 2.122 6.974.051 2.453-.883 5.018-2.838 6.448l-.034.023.644 1.781c.046.127.092.27.043.395-.056.143-.213.211-.355.265l-2.084.79c-.344.13-.704.263-1.07.225-.801-.084-1.308-.93-1.51-1.724-.05-.19-.089-.383-.127-.578-4.562-.567-8.83-5.79-8.343-10.405z"/></g></g></g><g><g><g><g><path fill="#333" d="M93.84 96.566c1.332 1.559 1.593 3.675 1.62 5.657.026 1.937.52 3.76.368 5.706.247.263.668 0 .916-.26a226.153 226.153 0 0 0 4.3-4.613c.142-.156.288-.32.354-.522.084-.256.029-.537-.032-.8-1.192-5.215-3.843-8.75-7.435-12.456-1.744-1.8-5.919-3.445-7.723-.7-.41.625-.474 1.416-.49 2.169-.01.45-.004.913.162 1.33.661 1.666 2.263 1.322 3.614 1.68 1.665.443 3.222 1.494 4.346 2.81z"/></g></g></g><g><g><g><path fill="#333" d="M82.354 101.885c.233 1.52.853 3.19 1.53 4.557.233.473 1.364 1.484 1.446 1.816.235.962-1.42 3.563-1.81 4.495l-10.218-3.78c-.261-.096-.535-.202-.711-.42-.16-.198-.216-.46-.264-.71-.939-4.94-.346-9.6.857-14.385 1.202-4.78 4.886-9.082 9.932-9.538 4.077-.367 7.36 2.178 6.522 6.566-.632 3.312-4.438 4.578-6.236 7.051-1.128 1.553-1.305 2.95-1.048 4.348z"/></g></g></g></g></g></g></g></g><g><g><g><g><g><g><g><path fill="#eacdb0" d="M251.405 214.887l-7.82 13.892c-3.221 6.309-7.597 12.03-10.819 18.339-.74 1.45-1.2 3.157-2.33 4.378-1.104 1.195-2.344.833-3.096-.49-1.006-1.773.442-3.832 1.065-5.57 4.156-11.584 7.164-23.376 10.93-35.115.049-.153.115-.326.267-.383.123-.046.26.002.38.053 1.107.463 11.254 5.196 11.423 4.896z"/></g></g><g><path fill="#4d4d4d" d="M227.493 247.994l-2.275 1.715 1.934 6.433 3.82 2.604 2.557-1.28-2.418-7.87z"/></g></g><g><path fill="#667482" d="M255.445 210.649c3.197-6.483 6.255-12.979 8.462-19.88 1.152-3.601 2.063-7.264 2.801-10.972.68-3.419-.281-6.644-.906-10.088-.093-.508-.197-1.044-.538-1.433-.31-.354-.77-.532-1.21-.694a79.617 79.617 0 0 0-20.097-4.52c-.521-.048-1.082-.082-1.533.185-.57.337-.784 1.04-.952 1.68-1.401 5.344-3.852 11.396-4.014 16.887-.085 2.904.166 5.927.18 8.854l.07 15.594-10.416 37.735 6.665 5.448 14.527-25.972c2.415-4.317 4.769-8.555 6.961-12.824z"/></g></g><g><g><g><g><path fill="#eacdb0" d="M271.671 210.864l-2.228 15.785c-.703 7.048-2.697 13.97-3.401 21.018-.162 1.621.03 3.378-.577 4.927-.594 1.515-1.88 1.629-3.062.67-1.582-1.285-.983-3.73-1.035-5.576-.345-12.302-1.836-24.38-2.6-36.684-.011-.161-.012-.346.108-.454.098-.088.243-.092.375-.09 1.198.029 12.372.745 12.42.404z"/></g></g><g><path fill="#4d4d4d" d="M261.45 250.403l-1.496 2.425 4.143 5.289 4.506 1.034 1.916-2.122-5.116-6.45z"/></g></g><g><path fill="#667482" d="M273.892 205.446c1.066-10.432 1.36-20.72-.513-31.529-.249-1.44-.54-2.912-1.312-4.154-2.105-3.393-6.838-3.845-10.809-3.422a47.5 47.5 0 0 0-10.665 2.403c-6.033 2.114-3.99 10.513-4.04 15.782l9.221 23.289 4.267 41.193 7.957.394 4.078-29.479c.678-4.899 1.328-9.703 1.816-14.477z"/></g></g><g><path fill="#efbf48" d="M271.477 139.671a258.534 258.534 0 0 1-.61-12.492c-.089-3.615-.129-7.356-1.636-10.642-3.79-8.266-14.125-9.492-21.121-4.827-6.136 4.09-8.161 11.657-9.055 18.569a198.75 198.75 0 0 0-1.61 21.902c-.062 3.443.787 7.803-.009 11.134-.341 1.43-2.462 3.382-2.047 4.847 1.047 3.695 14.269 5.89 17.51 6.43 5.804.965 11.776 1 17.587.058 7.214-1.17 5.015-4.269 3.958-10.49a259.06 259.06 0 0 1-2.967-24.489z"/></g></g></g><g><g><g><g><g><g><g><g><path fill="#eacdb0" d="M253.065 109.64c-.048.813.078 1.55.697 2.088.499.433 1.18.576 1.833.678.707.11 1.448.187 2.12-.056 1.69-.611 2.06-4.551 2.378-6.049 1.677.013 3.686-.174 4.558-1.81.275-.516.39-1.11.501-1.692l1.372-7.212c.158-.832.317-1.69.179-2.513-.242-1.445-1.34-2.481-2.468-3.213-2.878-1.867-6.52-2.48-9.733-1.16-.855.352-1.693.851-2.29 1.628-.922 1.199-1.135 2.847-1.308 4.392l-.48 4.28c-.184 1.64-.287 3.548.79 4.629.57.574 1.4.811 1.857 1.503.788 1.192.084 2.98-.006 4.507z"/></g></g><g><path fill="#534741" d="M264.185 92.488c.055.145.097.293.123.445.138.792-.176 1.61-.044 2.404.208 1.258 1.483 2.201 1.49 3.476.007 1.043-.844 1.895-1.069 2.913-.247 1.112.3 2.292.008 3.382-.254.947-1.085 2.2-1.785 2.878.217-.21 1.814.138 2.274-.05.704-.287.817-.521 1.116-1.158.298-.632.257-1.309.663-1.94.497-.774 1.34-1.264 1.744-2.11.553-1.154.116-2.537.372-3.791.387-1.898 2.33-3.429 2.027-5.342-.179-1.122-1.102-1.97-1.527-3.024-.323-.8-.347-1.685-.524-2.53-.177-.843-.574-1.724-1.352-2.098-.431-.208-.929-.233-1.38-.395-.78-.28-1.357-.944-2.09-1.332-1.046-.555-3.184.247-3.983 1.081-.794.828-.599 1.673-.077 2.604.87 1.551 3.365 2.88 4.014 4.587z"/></g></g><g><path fill="#534741" d="M249.275 84.411c-.744.38-1.621.598-2.32 1.068-1.363.918-1.877 2.657-2.184 4.271-.272 1.438-1.112 2.617-1.2 4.147-.06 1.028.203 2.12.928 2.85.903.91 2.49 1.293 2.756 2.547.288 1.362-1.303 2.76-.678 4.004.345.687 1.201.919 1.77 1.435.635.576.865 1.457 1.18 2.254.316.797.848 1.631 1.691 1.787.244-1.281.448-2.294.09-3.56-.21-.737-.946-2.155-.101-2.78.557-.542 1.667-.567 1.82-1.33.071-.357-.13-.704-.28-1.038-.577-1.29-.403-2.854.328-4.063.73-1.21 1.97-2.068 3.325-2.472 1.587-.473 1.409-.87 2.065-2.21.605-1.232 1.39-1.416 2.633-1.699 1.117-.253 1.497-.463 2.043-1.38.4-.672.888-1.475.608-2.342-.223-.69-.736-1.24-1.234-1.766-1.04-1.1-2.22-2.269-3.727-2.404-.838-.075-1.68.187-2.515.1-.558-.059-1.087-.27-1.637-.38-.938-.184-1.98-.06-2.834.378-.862.44-.936 1.037-1.495 1.77-.274.36-.634.61-1.032.813z"/></g><g><path fill="#534741" d="M253.471 79.666c.29-.873.388-2.056-.419-2.498-.442-.242-.997-.146-1.468-.324-1.004-.38-1.153-1.696-1.55-2.694-.06-.15-.134-.303-.268-.391-.193-.126-.444-.083-.673-.092-1.055-.042-1.674-1.19-2.587-1.718-1.13-.654-2.77-.147-3.334 1.03-.231.484-.294 1.034-.517 1.522-.904 1.977-4.078 2.365-4.504 4.497-.287 1.44.905 3.059.135 4.31-.492.8-1.69 1.206-1.713 2.145-.015.604.549 1.109 1.146 1.197.598.089 1.2-.15 1.713-.468.814-.507 1.482-1.219 2.268-1.767.787-.55 1.78-.937 2.7-.667.892.262 1.6 1.104 2.529 1.1.743-.003 1.385-.561 2.125-.628.693-.062 1.341.312 2.02.465.678.152 1.577-.067 1.707-.75.032-.166.013-.345.091-.494.218-.419.97-.27 1.185-.69-.268-.61-.804-.495-.943-1.256-.108-.59.174-1.281.357-1.83z"/></g></g></g></g></g></g></g><g><g><path fill="#534741" d="M285.036 95.943c-.051-.363-.092-.74.01-1.09.168-.575.68-.971 1.16-1.327l2.478-1.829c.7.26 1.097 1.04 1.133 1.786.035.746-.219 1.472-.47 2.176l1.25-1.046c.89.808 1.019 2.15.969 3.352-.05 1.2-.207 2.467.307 3.554.234.496.606 1.065.328 1.54-.123.207-.346.332-.559.447-2.53 1.366-3.37 2.507-4.509-.254-.96-2.328-1.612-4.841-2.097-7.31z"/></g><g><path fill="#1a4ced" d="M292.163 118.689c-.947-.168-1.94-.365-2.674-.986-.968-.817-1.262-2.163-1.498-3.408l-2.296-12.072c2.38-.507 4.903-1.316 7.315-1.47-.28 3.34 1.061 7.13 2.526 10.088 7.031-1.264 16.985-4.609 23.947-1.942 2.783 1.07 5.18 3.758 4.91 6.727-.24 2.654-2.536 4.758-5.062 5.605-4.124 1.383-7.408-.147-11.413-.548-5.28-.528-10.525-1.069-15.755-1.994z"/></g></g><g><g><g><g><g><g><g><g><path fill="#e5d1bd" d="M37.2 247.92c1.028.035 2.015-.196 3.023-.29.521-10-.424-20.481-.834-30.53l-7.707.412a89.787 89.787 0 0 1 3.813 16.521c.118.89 1.56 13.882 1.706 13.887z"/></g></g><g><g><path fill="#4d4d4d" d="M40.535 245.69c.634-.112 1.008.17 1.43.556.246.225.413.542.71.703.295.16.586.192.938.227 1.853.186 6.123.11 3.848 3.209-2.066 2.815-7.552 1.694-10.72.93-.21-.05-.43-.082-.582-.243-.153-.161-.256-.391-.321-.63-.362-1.324-.856-2.978.773-3.533.694-.237 1.334.223 2.07-.031.602-.21 1.22-1.074 1.854-1.187z"/></g></g></g></g><g><path fill="#627277" d="M45.15 223.132l-15.718-.304a1233.501 1233.501 0 0 1-11.192-60.821c-.25-1.58-.493-3.221-.038-4.754.86-2.898 3.964-4.551 6.936-5.106 4.618-.863 13.103.338 15.471 5.14 2.503 5.074 2.083 14.137 2.69 19.745a340.879 340.879 0 0 1 1.85 46.1z"/></g></g><g><g><g><g><g><path fill="#e5d1bd" d="M8.719 248.03c1.01.187 2.02.106 3.032.164 2.001-9.813 2.624-20.318 3.71-30.316l-7.682-.738a89.799 89.799 0 0 1 1.316 16.904c-.015.897-.52 13.96-.376 13.986z"/></g></g><g><g><path fill="#4d4d4d" d="M12.347 246.321c.644-.017.972.318 1.333.762.209.259.327.598.596.8.269.203.552.277.894.365 1.805.46 6.04 1.017 3.33 3.745-2.462 2.476-7.72.553-10.741-.674-.199-.08-.412-.144-.539-.327-.127-.182-.195-.424-.223-.67-.161-1.363-.404-3.072 1.288-3.379.723-.13 1.287.419 2.052.277.627-.118 1.366-.881 2.01-.899z"/></g></g></g></g><g><path fill="#627277" d="M20.262 224.699l-15.498-2.637a1233.903 1233.903 0 0 1-2.032-61.808c-.012-1.599-.009-3.259.669-4.706 1.281-2.738 4.597-3.913 7.618-4.02 4.695-.167 12.907 2.281 14.536 7.381 1.721 5.39-.04 14.29-.274 19.926a340.862 340.862 0 0 1-5.019 45.864z"/></g></g></g><g><g><g><path fill="#e5d1bd" d="M40.755 72.074a1.081 1.081 0 0 0-.114.284c-.17.912.286 1.49.37 2.411.038.411-.796 1.066-.033 1.466.281.148 1.023.413 1.626.722.88.45 1.722 1.553 2.23 2.552 1.993 3.926 2.862 8.286 3.587 12.625.041.247.08.506.003.745-.138.427-.593.651-1.001.838a33.642 33.642 0 0 0-5.407 3.112c-1.518 1.072-2.98 2.309-3.886 3.93-.907 1.622-1.176 3.7-.292 5.334a4.412 4.412 0 0 0 3.328 2.246c3.43.387 5.892-4.012 7.797-6.274a59.885 59.885 0 0 0 4.94-6.78c.184-.292.369-.597.423-.938.056-.364-.04-.732-.139-1.087-1.258-4.572-2.912-9.007-4.665-13.432-.482-1.215-1.541-2.024-1.976-3.152-.278-.72.021-1.484-.09-2.222a7.192 7.192 0 0 0-.813-2.296c-.733-1.255-2.227-1.414-3.518-1.68-.321-.066-.538-.112-.833-.026-.48.14-.77.53-1.069.907a4.384 4.384 0 0 0-.468.715z"/></g></g><g><g><path fill="#e5df00" d="M47.656 102.347l-4.453-7.089c.095.152-11.134 6.08-11.79 6.456-2.506 1.434-5.09 2.939-6.767 5.288-3.581 5.017.731 11.89 6.894 10.253 6.69-1.777 13.264-6.258 17.508-11.704.093-.119.187-.245.208-.393.03-.204-.084-.398-.194-.573l-1.406-2.238z"/></g></g></g><g><g><path fill="#e5df00" d="M12.724 112.499c-4.2 3.997-7.346 9.132-9.242 14.452-3.356 9.42-3.42 19.477-3.45 29.333L0 166.124c-.01 3.228.276 3.922 3.783 3.497 6.5-.788 13.256-2.128 19.145-5.017 2.802-1.374 5.422-3.11 8.36-4.192 4.273-1.574 8.656-.862 12.884-1.886-1.836-5.549-3.15-10.275-4.092-15.992-.97-5.887-1.852-12.308-3.273-18.116-.853-3.485-2.44-6.741-4.053-9.946-1.085-2.154-2.234-4.358-4.076-5.915-5.548-4.69-11.77-.041-15.954 3.942z"/></g></g><g><g><g><g><path fill="#e5d1bd" d="M27.88 98.68c-.793 1.733-2.09 3.179-3.148 4.764-1.03 1.544-1.4 2.94-1.673 4.729-.197 1.292-.66 2.302-2.216 2.523-2.935.418-2.096-2.008-2.763-3.773-.762-2.017-2.388-3.61-3.523-5.41-3.283-5.203-2.346-15.485 4.476-17.68 7.46-2.398 11.254 9.585 8.847 14.846z"/></g></g></g><g><g><path fill="#f4c17f" d="M15.99 93.645c-.848.034-1.78.102-2.407.67-.628.57-.56 1.81.269 1.944.751.121 1.725-.663 2.184-.09.268.334.033.824-.17 1.215-.782 1.501-1.016 3.242-.652 4.842-.309.287-.791-.01-1.063-.31a15.582 15.582 0 0 1-3.092-5.078 3.113 3.113 0 0 1-1.137 1.1c.28-.701.103-1.469-.07-2.185-.638-2.632-1.072-5.715.766-7.865.983-1.15 2.478-1.813 3.982-2.09 1.504-.28 3.036-.211 4.551-.143.65.03 1.448.17 1.604.77-1.422.57-2.894 1.68-3.605 3.026-.219.414-1.075 4.19-1.16 4.194z"/></g></g><g><g><path fill="#fbb03b" d="M18.994 87.323a7.893 7.893 0 0 0-.153.113c-.644.49-1.249 1.088-2.028 1.305-1.125.314-2.333-.228-3.44.155-1.237.428-2.05 1.907-2.953 2.783A13.09 13.09 0 0 1 5.13 94.77c-1.006.307-2.05.495-3.1.555-.477.027-1.114.117-1.579-.008-.623-.168-.602-.451.062-.664 2.083-.668 2.736-3.593 2.578-5.532-.124-1.53-.652-3.13-.068-4.55.446-1.085 1.404-1.645 2.33-2.266 1.02-.685 2.127-.5 3.286-.83 1.21-.343 2.195-1.295 3.428-1.538 1.303-.257 2.605.32 3.908.574a8.087 8.087 0 0 0 3.268-.04c.96-.211 1.897-.6 2.88-.59 1.45.013 2.783.917 3.629 2.094 1.196 1.666 1.97 4.515 1.548 6.708.066-.34-1.08-1.573-1.315-1.838-.497-.56-1.098-1.085-1.856-1.175-1.718-.205-3.755.65-5.136 1.653z"/></g></g></g><g><g><g><path fill="#e5d1bd" d="M20.936 153.345c.015-.102.03-.207.014-.305-.135-.918-.756-1.316-1.137-2.158-.17-.376.405-1.268-.446-1.397-.314-.048-1.102-.056-1.773-.15-.978-.14-2.135-.907-2.94-1.686-1.083-1.047-2.205-2.18-3.112-3.367-1.906-2.493-3.753-5.479-5.15-8.293 4.544-2.517 7.454-7.729 7.212-12.918-.025-.542-.089-1.103-.368-1.569-.236-.394-.609-.687-1-.926-4.146-2.527-6.363 1.509-8.286 4.686-1.2 1.983-2.292 4.072-3.187 6.211-1.253 2.997-.264 5.613 1.47 8.26 1.84 2.806 3.751 5.616 6.154 7.977 1.167 1.147 2.467 1.992 3.761 2.968 1.28.964.779 1.48 1.682 2.611.504.632.898 1.37 1.513 1.899 1.103.947 2.566.61 3.873.44.326-.043.546-.07.797-.248.409-.289.554-.752.714-1.207.095-.269.169-.547.209-.828z"/></g></g><g><g><path fill="#e5df00" d="M4.53 126.984l6.523 5.247c-.14-.113 8.54-9.382 9.037-9.952 1.9-2.173 3.852-4.44 4.67-7.207 1.746-5.911-4.574-11-9.864-7.44-5.743 3.864-10.494 10.245-12.728 16.778-.049.143-.097.293-.069.44.04.202.21.348.371.478l2.06 1.656z"/></g></g></g></g><g><g opacity=".49"><path fill="gray" d="M105.71 51.485c.022-.018.04-.037.062-.054l-.018.105-.043-.051z"/></g></g></g><g><g><g><g><path fill="#eacdb0" d="M187.556 211.896l.243 14.759c-.1 4.094.27 8.177.52 12.258.23 3.791-.534 7.698 1.265 11.212.564 1.102 1.764 1.869 2.677.596.704-.98.38-2.677.554-3.816 1.306-8.556 3.738-16.9 4.951-25.471 1.271-8.98-2.203-8.742-10.21-9.538z"/></g></g><g><path fill="#4d4d4d" d="M188.395 247.602l-.949 2.462 4.67 4.11 4.277.176 1.383-2.257-5.753-5.002z"/></g></g><g><g><g><path fill="#eacdb0" d="M177.101 212.04l-2.692 14.513c-.933 6.493-3.054 12.816-3.987 19.309-.215 1.492-.107 3.125-.73 4.534-.611 1.377-1.806 1.432-2.86.497-1.413-1.252-.76-3.49-.735-5.2.173-11.394-.723-22.627-.939-34.04-.003-.15.004-.32.12-.416.093-.077.227-.075.35-.067 1.107.074 11.415 1.183 11.473.87z"/></g></g><g><path fill="#4d4d4d" d="M166.064 248.208l-1.48 2.184 3.62 5.058 4.128 1.137 1.857-1.886-4.475-6.172z"/></g></g><g><path fill="#e5df00" d="M202.768 221.286l-2.014-21.1-.971-13.71-3.265-11.197-17.629-2.736-21.796 3.736-1.047 4.234 4.194 39.198 21.023 1.575-.285-24.396 3.243 15.122-.138 9.274z"/></g></g><g><path fill="#f2f2f2" d="M161.72 134.053c-.03.712-.05 1.424-.061 2.135-.255 14.474.542 29.131.634 43.725a161.981 161.981 0 0 1 22.594-1.93c1.751-.026 9.711 1.204 10.82.158 1.504-1.418-.15-1.151-.04-3 .142-2.39-1.007-4.349-.573-7.183.51-3.33 1.525-6.624 2.11-9.954a145.34 145.34 0 0 0 2.106-20.21c.203-6.01-.015-12.242-2.599-17.67-6.373-13.388-26.918-13.147-32.555.831-1.67 4.14-2.25 8.623-2.436 13.098z"/></g><g><path fill="#eacdb0" d="M207.83 101.904c2.158-2.875 3.07-5.966 3.95-9.846.655-2.886 1.197-5.804 1.727-8.716.35-1.927.67-3.612.68-5.544.008-1.617.89-3.864-.549-5.139.279-.655 1.236-.893 1.789-.444.086.07.168.156.277.183.186.046.364-.1.474-.257.323-.457.357-1.048.468-1.598.179-.884.485-2.316 1.14-2.957.53-.52 1.233-.818 1.919-1.106.126-.053.265-.107.398-.07.111.03.196.12.274.207.72.794 1.524 1.57 2.138 2.435-.949.81-1.101 2.002-1.637 3.073-.703 1.407-1.57 2.523-1.668 4.167-.153 2.555-.107 5.12-.294 7.677-.365 4.999-1.038 9.964-1.68 14.931-.436 3.291-.88 6.657-2.189 9.737-1.288 3.032-3.153 4.865-5.642 7.022-.572.496-1.166 1.004-1.888 1.233-1.095.346-2.31-.02-3.266-.659-2.525-1.686-3.467-5.367-2.064-8.06.754-1.445 2.034-2.53 3.235-3.633a19.305 19.305 0 0 0 2.408-2.636z"/></g><g><path fill="#ccc" d="M184.904 115.273l-5.58 10.169.874 30.818.403 14.202c.047 1.644.088 3.288.14 4.932.024.738-.18 1.98.24 2.582.915 1.307 4.254.9 5.71 1.014 2.273.179 4.578.364 6.717 1.149 1.424.522 2.775 1.309 4.277 1.52.338.047.716.054.98-.16.297-.24.348-.665.376-1.045.522-7.053.533-14.323.924-21.451.32-5.834 1.136-11.998.63-17.838a3.112 3.112 0 0 0-.035-.292c-.518-2.81 0-12.09 0-12.09.022-.391 1.356-1.402 1.614-1.668l3.982-4.113c2.65-2.736 7.762-6.116 5.707-10.54-.25-.538-.63-1.004-1.036-1.438-3-3.214-6.836-5.017-8.985-8.975-3.76 1.855-6.823 5.518-10.822 7.045-2.082.792-4.284 1.064-6.46.53-1.28-.313-4.038-1.311-3.345 1.223.396 1.45 2.71 3.261 3.689 4.426z"/></g><g><path fill="#ccc" d="M172.764 116.23l5.58 10.168c-.117 0-.708 24.928-.756 26.61l-.544 19.196c-.051 1.778.188 3.862-.16 5.61-.486 2.44-3.055 1.96-5.244 2.158-4.79.431-9.832 1.249-14.634 1.006-1.386-.07.438-28.979.435-31.676-.01-9.704-2.011-20.469 2.918-29.268 1.434-2.56 3.962-6.664 6.752-7.928 2.6-1.178 6.324-1.378 9.147-2.039l.147 1.83z"/></g><g><g><g><path fill="#534741" d="M184.875 91.597c.878 1.54 1.302 3.314 1.38 5.084.02.471.052 1.015.433 1.293.408.297.05.95.36.552.31-.398 1.362-1.78 1.41-2.283.11-1.177.108-2.364-.006-3.54-.099-1.024-.308-2.093-.977-2.873-.398-.463-.927-.788-1.45-1.103-.756-.458-1.536-.919-2.405-1.08-1.498-.28-2.416.258-1.094 1.303.946.748 1.747 1.593 2.349 2.647z"/></g><g><g><path fill="#eacdb0" d="M175.516 111.685c.01.724-.139 1.476.5 2.038.308.27.724.379 1.128.443a6.989 6.989 0 0 0 3.138-.223c.416-.128.83-.302 1.144-.603.371-.356.39-.694.408-1.16.02-.546.131-1.102.203-1.656a36.82 36.82 0 0 0 .261-3.654c1.795-.307 3.906-.888 4.52-2.768.193-.592.2-1.236.204-1.866l.057-7.814c.007-.9.009-1.83-.3-2.665-.54-1.467-1.916-2.341-3.265-2.891-3.442-1.405-7.454-1.348-10.63.649-.846.531-1.644 1.215-2.131 2.142-.751 1.431-.657 3.198-.54 4.849l.323 4.572c.124 1.752.387 3.77 1.748 4.696.723.491 1.656.581 2.28 1.217 1.087 1.11.569 2.769.89 4.115.045.188.06.382.062.579z"/></g></g><g><path fill="#534741" d="M181.157 104.865c-.935.629-1.965.663-3.007.35-.443-.135-.256-.878.188-.744.864.26 1.68.253 2.458-.27.391-.264.75.403.361.664zm6.497-3.667c-.03-.484-.24-1.899-.967-1.01-.19.233-.236.562-.248.872-.012.31.002.628-.095.92-.224.669-.965.974-1.625.962-.262-.005-.53-.048-.762-.18-.225-.128-.404-.332-.578-.532l-1.27-1.458c-.729-.835-2.173-.474-3.154-.346-1.13.148-2.261.489-3.185 1.232-.093.075-.184.154-.275.233-.223.192-.446.382-.705.508-.874.425-1.955-.018-2.567-.814-.28-.364-.542-.833-.977-.894-.34-.048-.672.197-.848.515-.174.32-.221.7-.245 1.07-.086 1.345.1 2.732.683 3.925 1.264 2.588 3.709 2.906 6.166 2.848l2.914-.07c1.776-.041 3.653-.115 5.148-1.147 1.32-.91 2.104-2.459 2.426-4.08.165-.837.215-1.7.164-2.554z"/></g><g><path fill="#534741" d="M188.024 87.084c.172-.631.299-1.275.38-1.924a3.813 3.813 0 0 1-1.884.162l-.004-1.124c-.003-.312-4.217-.53-4.56-.558-3.205-.263-6.137-.513-9.035 1.208-2.477 1.469-4.064 3.664-4.444 6.52-.363 2.73.53 6.293 2.109 8.558-.01-.726-.428-2.44-.256-3.13.105-.693.344-1.36.674-1.976.658-1.23 1.678-2.265 2.857-3.003 1.879-1.178 4.063-1.8 6.245-2.104 1.999-.279 4.435-.536 6.41-.006.949.254 1.106.492 1.681-.466.101-.168.905-2.141.827-2.142l-1-.015z"/></g></g></g><g><g><g><path fill="#eacdb0" d="M152.918 116.883c.748-1.655.385-3.633-.909-4.941l-7.09-7.17c-1.327-1.342-3.32-2.746-4.126-4.421-1.425-2.962-1.981-6.825-2.75-10.009-.389-1.616-1.252-3.753-1.116-5.408.026-.31 1.092-2.983 1.023-3.03l-.567-.453-.422.574-.495.06.724-2.005-2.288-.768-2.092 1.823c.445 1.741 1.334 3.412 1.369 5.226.015.767-.093 1.528-.142 2.293-.084 1.313.005 2.631.04 3.946.034 1.273-.173 2.551-.123 3.803.114 2.795.246 5.59.37 8.383l11.578 13.081c2.065 2.333 5.75 1.817 7.016-.984z"/></g></g><g><path fill="#ccc" d="M164.3 115.458c-3.198-.708-6.242-2.183-8.856-4.24a19.214 19.214 0 0 1-.23-.25c-.289-.32-3.487-3.804-3.53-3.761l-.115.108-.322.34-.056.02c-.916.324-2.068 1.977-2.787 2.664l-5.732 5.475c-.136.13-.278.27-.33.454-.06.218.02.449.115.663l-.498.525c.444.332.862.69 1.261 1.07.866 1.707 1.902 3.331 3.442 4.405.092.063.186.12.28.18 1.19 1.713 2.354 3.463 3.742 4.993 3.734 4.112 8.992 6.506 12.646 10.692 1.462-1.044 2.077-2.943 2.431-4.75.695-3.551.715-7.216.733-10.854l.027-5.55c.001-.323.001-.656-.118-.958-.317-.802-1.284-1.045-2.103-1.226z"/></g></g><g><g><g><g><g><g><path fill="#534741" d="M349.206 241.957c1.09.073 2.087-.31 3.144-.429a54.282 54.282 0 0 0-1.259-10.997c-1.643 1.825-3.027.764-2.971 4.192.018 1.11 1.3 5.546 1.086 7.234z"/></g><g><path fill="#1a1a1a" d="M352.589 239.672c1.24-.444 1.52 2.517 1.528 3.213.006.418-.043.845.063 1.25.117.445.411.82.697 1.18l1.801 2.263c.27.34.544.687.69 1.096.358 1.013-.234 2.214-1.193 2.698-3.328 1.681-6.368-2.389-7.088-5.076-.11-.412-.191-.831-.272-1.25-.167-.866-.822-2.755-.478-3.601.4-.988 1.616-.272 2.412-.644.739-.346 1.338-.95 1.84-1.13z"/></g></g><g><path fill="#595958" d="M328.948 180.457c3.102 8.445 6.682 16.706 8.724 25.547 2.522 10.922 6.588 21.572 8.675 32.518 1.348.044 2.7-.013 4.04-.172 1.535-.181 3.973-.596 4.527-2.273.284-.857-.017-2.251-.06-3.142-.138-2.852-.342-5.701-.552-8.549-.593-8.057-1-16.213-2.482-24.156-1.56-8.356-3.052-16.74-4.424-25.095a154.023 154.023 0 0 0-2.656-12.852c-.276-1.093-3.158-12.36-3.724-12.27-6.715 1.069-12.996 3.292-18.844 6.76-.568.337-1.117.739-1.314 1.339-.198.6-.019 1.117.165 1.661 1.747 5.194 4.077 10.064 5.94 15.237.649 1.8 1.307 3.6 1.985 5.447z"/></g></g><g><g><g><path fill="#534741" d="M328.363 241.351c-1.02.394-2.086.325-3.13.525a54.296 54.296 0 0 1-2.068-10.873c2.111 1.253 3.117-.171 4.083 3.118.313 1.065.409 5.682 1.115 7.23z"/></g><g><path fill="#1a1a1a" d="M324.166 240.8c-.002 2.023-1.595 4.202-2.477 6.022-.103.214-.21.437-.213.675-.007.353.21.667.416.953.287.398.6.816 1.057.995.448.175.953.087 1.424-.016a26.543 26.543 0 0 0 2.336-.626c.192-.061.388-.127.544-.253.185-.15.296-.37.402-.583.543-1.094 1.006-1.87.976-3.09-.03-1.26-.189-2.564.042-3.811.113-.606.264-1.38-.254-1.712-.401-.257-1.135.097-1.571.168-.77.126-1.482.078-2.191.483a1.026 1.026 0 0 0-.374.321.86.86 0 0 0-.117.473z"/></g></g><g><path fill="#595958" d="M329.413 176.608c-.45 8.987-1.41 17.938-.73 26.987.84 11.177.125 22.555 1.388 33.626-1.274.443-2.582.79-3.908 1.037-1.52.284-3.971.613-5-.823-.525-.734-.653-2.155-.876-3.018-.716-2.764-1.369-5.545-2.016-8.326-1.83-7.87-3.867-15.777-4.814-23.802-.997-8.441-2.065-16.89-3.24-25.275a154.18 154.18 0 0 1-1.287-13.06c-.06-1.126-.66-12.74-.093-12.822 6.729-.977 13.387-.722 20.002.85.643.152 1.286.373 1.653.887s.35 1.06.337 1.635c-.124 5.478-.9 10.82-1.141 16.314a920.288 920.288 0 0 1-.275 5.79z"/></g></g><g><path fill="#1a4ced" d="M333.192 104.497c.11.037.218.076.326.117 1.807.685 3.343 1.919 4.846 3.133 2.257 1.824 3.37 2.623 4.241 5.324.814 2.519 1.323 5.178 1.82 7.774 2.557 13.325 3.051 26.594 4.886 40.02.5 3.654.885 7.95-1.818 10.46-4.795-3.732-10.823-3.948-16.639-3.953-4.084-.003-8.077-1.326-12.171-.87-3.913.435-7.33-.543-11.301-.284-.957.062-2.177.051-2.555-.83 1.374-4.12 1.35-8.55 1.662-12.88.804-11.203 4.515-21.954 6.013-33.08.51-3.783.781-10.06 3.71-12.924 3.183-3.11 10.443-3.174 14.534-2.565.828.123 1.653.29 2.446.558z"/></g></g></g><g><g><g><path fill="#534741" d="M324.158 106.21c.755.501 2.639.886 4.721.362.42-.105.739-.456.788-.886.138-1.207.195-2.423.17-3.638-.002-.048 4.484-1.651 5.058-2.236 1.59-1.617 1.726-5.17 1.143-7.202-.766-2.663-3.388-4.143-5.888-4.913-4.425-1.362-12.306-.577-12.206 5.454.03 1.862.425 3.74 1.324 5.37.931 1.691 2.426 2.228 3.614 3.547 1.097 1.219.774 2.663 1.276 4.142z"/></g><g><path fill="#1a1a1a" d="M316.93 83.488c-.375-.67-.743-1.323-.502-2.014.164-.473.587-.808.82-1.251.574-1.086-.117-2.468.282-3.63.523-1.527 2.729-2.156 2.88-3.763.58-.518 1.266.479 1.917.906 1.478.97 3.242-1.293 4.99-1.032 1.33.2 2.206 1.822 3.55 1.76 1.005-.046 1.985-1.053 2.874-.58.392.208.6.651.945.933 1.1.898 3.267-.002 3.88 1.28.36.75.207 1.415.98 1.92.679.442 2.02-.283 2.436.683.091.212.077.453.061.683l-.48 6.999c-.044.638-.1 1.313-.475 1.831-.264.365-.673.63-.851 1.044-.22.512-.027 1.113-.16 1.655-.283 1.16-1.897 1.632-2.114 2.806-.079.426.05.862.054 1.295.004.434-.192.937-.615 1.032-.343.077-.674-.147-.955-.358-1.618-1.216-3.753-6.182-6.084-5.675-.408.088-.767.329-1.166.45-1.342.409-2.667-.574-4.028-.932-1.771-.465-7.176 1.775-8.006-.173-.308-.724-.14-1.554.063-2.314.205-.76.442-1.555.259-2.32-.102-.426-.33-.834-.555-1.235z"/></g></g></g></g><g><g><g><g><path fill="#babcc3" d="M65.926 124.935c0-.706.707-1.413 1.413-1.413h1.434c.707 0 1.413.707 1.413 1.413v1.413h-4.26z"/></g></g><g><g><path fill="#dedddf" d="M71.19 124.492c0-.842.843-1.684 1.685-1.684h7.183c.842 0 1.684.842 1.684 1.684v1.685H71.19z"/></g></g><g><g><path fill="#dedddf" d="M120.994 124.835c0-.842.842-1.684 1.684-1.684h7.183c.842 0 1.685.842 1.685 1.684v1.684h-10.552z"/></g></g></g><g><g><g><path fill="#cecfd3" d="M58.734 139.53c0-6.77 6.77-13.541 13.542-13.541h54.496c6.77 0 13.542 6.77 13.542 13.542v31.742c0 6.771-6.771 13.542-13.542 13.542H72.276c-6.771 0-13.542-6.77-13.542-13.542z"/></g></g><g><g><path fill="#866d58" d="M58.78 180.143V138.46h81.534v41.683z"/></g></g></g><g><g><path fill="#dedddf" d="M84.527 138.55l2.586-12.173 5.857-7.92h13.592l5.235 7.92 2.723 12.174z"/></g></g><g><g><path fill="#fff" d="M62.988 132.961c0-1.26 1.26-2.52 2.521-2.52h7.944c1.26 0 2.52 1.26 2.52 2.52s-1.26 2.521-2.52 2.521h-7.944c-1.26 0-2.52-1.26-2.52-2.52z"/></g></g><g><g><path fill="#a6c9a1" d="M78.752 132.764a2.323 2.323 0 1 1 4.646 0 2.323 2.323 0 0 1-4.646 0z"/></g></g><g><g><path fill="#cecfd3" d="M127.057 158.316a2.328 2.328 0 0 0-.516-.388v-4.037a1.126 1.126 0 1 0-2.252 0v4.037a2.323 2.323 0 1 0 2.768.388z"/></g></g><g opacity=".09"><g opacity=".09"><path fill="#000100" d="M84.527 138.55l.53 7.358 29.463.434v-7.791z"/></g></g><g opacity=".15"><g opacity=".15"><path fill="#000100" d="M120.213 152.964a20.543 20.543 0 0 0-3.058-4.747c.184.344.358.694.523 1.048 1.764 3.806 2.273 8.108 1.518 12.228a21.336 21.336 0 0 1-.815 3.037c-1.365 3.912-3.969 7.348-7.334 9.76-3.337 2.39-7.398 3.742-11.505 3.798a20.532 20.532 0 0 1-11.958-3.656 20.093 20.093 0 0 1-3.762-3.404 20.386 20.386 0 0 0 6.297 7.102 20.529 20.529 0 0 0 11.959 3.656c4.106-.055 8.167-1.407 11.504-3.798 3.365-2.41 5.97-5.847 7.334-9.76.346-.99.618-2.004.814-3.036.756-4.12.247-8.423-1.517-12.228z"/></g></g><g><g><g><g><g><path fill="#6e6f72" d="M85.754 172.623c-7.837-7.837-7.837-20.543 0-28.38s20.543-7.837 28.38 0 7.837 20.543 0 28.38-20.543 7.837-28.38 0z"/></g></g><g><g><path fill="#333" d="M87.714 170.663c-6.755-6.754-6.755-17.706 0-24.46 6.754-6.755 17.706-6.755 24.46 0 6.755 6.754 6.755 17.706 0 24.46-6.754 6.755-17.706 6.755-24.46 0z"/></g></g></g><g><g><path fill="#f1f1f2" d="M116.35 170.073a20.176 20.176 0 0 1-9.48 7.251 20.294 20.294 0 0 1-12.415.465c-3.911-1.107-7.42-3.416-10.016-6.54-5.397-6.496-6.078-15.994-1.713-23.212a20.315 20.315 0 0 1 8.902-7.92c3.822-1.75 8.208-2.233 12.323-1.394 8.149 1.66 14.564 8.378 15.866 16.588a20.258 20.258 0 0 1-3.467 14.762zm.775-23.799a21.268 21.268 0 0 0-9.947-7.61c-4.129-1.52-8.74-1.683-12.972-.487a21.118 21.118 0 0 0-10.509 6.877 21.159 21.159 0 0 0-4.738 11.74 21.103 21.103 0 0 0 2.957 12.514c2.192 3.624 5.487 6.569 9.352 8.309a21.262 21.262 0 0 0 12.87 1.449c4.171-.836 8.048-2.985 10.992-6.054 2.968-3.094 4.966-7.087 5.612-11.33.163-1.075.248-2.158.252-3.246-.014-4.339-1.35-8.622-3.87-12.162z"/></g></g></g><g opacity=".58"><g opacity=".58"><path fill="#000100" d="M92.053 166.325c-4.359-4.359-4.359-11.425 0-15.784 4.358-4.358 11.424-4.358 15.783 0 4.358 4.359 4.358 11.425 0 15.784-4.358 4.358-11.425 4.358-15.783 0z"/></g></g></g></g><g><g><g><g><path fill="#dedddf" d="M302.053 57.013l-3.2-.002v-.523a1.6 1.6 0 0 1 3.2.002z"/></g></g><g><g><path fill="#dedddf" d="M302.809 55.622c0-.633.633-1.266 1.266-1.266h5.397c.633 0 1.266.633 1.266 1.266v1.265h-7.929z"/></g></g></g><g><g><g><path fill="#cecfd3" d="M293.435 70.609c0-6.926 6.926-13.852 13.852-13.852h33.594c6.926 0 13.852 6.926 13.852 13.852v16.498c0 6.925-6.926 13.851-13.852 13.851h-33.594c-6.926 0-13.852-6.926-13.852-13.852z"/></g></g><g><g><path fill="#dedddf" d="M295.03 72.289c.777 0 1.553.777 1.552 1.553l-.005 7.812c0 .777-.777 1.552-1.553 1.552l-1.553-.001.007-10.917z"/></g></g></g><g><g><g><path fill="#b4b7c3" d="M293.43 87.241l-.007 10.242a3.456 3.456 0 0 0 3.455 3.458l54.385.034a3.456 3.456 0 0 0 3.458-3.454l.006-10.242z"/></g></g></g><g><g><path fill="#fff" d="M312.18 71.89l-5.969-.003a1.894 1.894 0 1 1 .002-3.788l5.97.004a1.894 1.894 0 0 1-.002 3.788z"/></g></g><g opacity=".15"><g opacity=".15"><path fill="#000100" d="M351.235 74.591a15.443 15.443 0 0 0-2.295-3.568c.138.259.269.521.392.788 1.324 2.86 1.704 6.093 1.134 9.188a15.93 15.93 0 0 1-.613 2.282c-1.027 2.939-2.985 5.52-5.515 7.33a15.294 15.294 0 0 1-8.646 2.848 15.43 15.43 0 0 1-8.984-2.752 15.107 15.107 0 0 1-2.825-2.56 15.32 15.32 0 0 0 4.728 5.34 15.425 15.425 0 0 0 8.984 2.752 15.3 15.3 0 0 0 8.646-2.848c2.53-1.81 4.488-4.39 5.515-7.33.26-.745.466-1.506.614-2.281.57-3.096.19-6.328-1.135-9.189z"/></g></g><g><g><g><g><g><path fill="#6e6f72" d="M330.165 92.594c-7.678-3.224-11.289-12.062-8.065-19.74 3.224-7.679 12.062-11.29 19.74-8.066 7.679 3.224 11.29 12.062 8.066 19.74-3.224 7.679-12.062 11.29-19.74 8.066z"/></g></g><g><g><path fill="#333" d="M326.813 87.88c-5.075-5.075-5.075-13.303 0-18.379 5.076-5.075 13.304-5.075 18.38 0 5.075 5.076 5.075 13.304 0 18.38-5.076 5.075-13.304 5.075-18.38 0z"/></g></g></g><g><g><path fill="#f1f1f2" d="M348.325 87.445a15.161 15.161 0 0 1-7.127 5.444 15.252 15.252 0 0 1-9.328.343 15.221 15.221 0 0 1-7.523-4.92c-4.052-4.882-4.56-12.019-1.276-17.44a15.263 15.263 0 0 1 6.692-5.948c2.872-1.312 6.168-1.673 9.26-1.041 6.122 1.251 10.939 6.302 11.914 12.471a15.221 15.221 0 0 1-2.612 11.09zm.593-17.882a15.983 15.983 0 0 0-7.47-5.723 15.905 15.905 0 0 0-9.747-.371 15.868 15.868 0 0 0-7.9 5.162 15.897 15.897 0 0 0-3.565 8.818 15.86 15.86 0 0 0 2.216 9.405 15.91 15.91 0 0 0 7.023 6.247 15.976 15.976 0 0 0 9.67 1.095 15.84 15.84 0 0 0 8.261-4.543c2.232-2.324 3.735-5.323 4.222-8.51.124-.809.188-1.623.191-2.44-.008-3.26-1.01-6.48-2.901-9.14z"/></g></g></g><g><g><path fill="#151515" d="M327.631 79.18a8.386 8.386 0 1 1 16.744-.979 8.386 8.386 0 0 1-16.744.98z"/></g></g></g></g><g><g><g><g><path fill="#cecfd3" d="M287.822 149.484c.82 0 1.642.82 1.642 1.642 0 .82-.821 1.641-1.642 1.641h-1.785v-3.283z"/></g></g><g opacity=".65"><g opacity=".65"><path fill="#000100" d="M286.245 168.846v-13.878l3.127.715c.53 0 .959.374.959.835v10.67c0 .462-.43.836-.959.836z"/></g></g><g><g><path fill="#cecfd3" d="M287.872 191.08c1.021 0 2.043 1.021 2.043 2.043v1.38c0 1.022-1.022 2.043-2.043 2.043h-2.043v-5.466z"/></g></g><g><g><path fill="#bfbfc3" d="M288.15 150.087c0-.545.546-1.09 1.09-1.09.545 0 1.09.545 1.09 1.09v2.012c0 .544-.545 1.09-1.09 1.09-.544 0-1.09-.546-1.09-1.09z"/></g></g><g><g><path fill="#bfbfc3" d="M288.821 191.331c0-.545.545-1.09 1.09-1.09s1.09.545 1.09 1.09v5.03c0 .545-.545 1.09-1.09 1.09s-1.09-.545-1.09-1.09z"/></g></g><g><g><path fill="#bfbfc3" d="M288.821 156.29c0-.88.88-1.76 1.76-1.76.881 0 1.761.88 1.761 1.76v11.233c0 .88-.88 1.76-1.76 1.76s-1.76-.88-1.76-1.76z"/></g></g></g><g><g><path fill="#434343" d="M245.565 136.338c0-4.233 4.233-8.466 8.467-8.466h19.952c4.233 0 8.466 4.233 8.466 8.466 0 4.234-4.233 8.467-8.466 8.467h-19.952c-4.234 0-8.467-4.233-8.467-8.467z"/></g></g><g><g><path fill="#fff" d="M248.441 138.853c0-4.15 4.15-8.299 8.3-8.299h14.703c4.15 0 8.3 4.15 8.3 8.299v.336c0 4.15-4.15 8.299-8.3 8.299H256.74c-4.15 0-8.299-4.15-8.299-8.299z"/></g></g><g opacity=".65"><g opacity=".65"><path fill="#000100" d="M248.964 137.794c0-3.285 3.285-6.57 6.57-6.57h16.994c3.285 0 6.57 3.285 6.57 6.57v3.46c0 3.285-3.285 6.57-6.57 6.57h-16.994c-3.285 0-6.57-3.285-6.57-6.57z"/></g></g><g><g><g><g><path fill="#434343" d="M247.414 149.09c0-6.671 7.4-12.08 16.527-12.08 9.128 0 16.527 5.409 16.527 12.08s-7.399 12.08-16.527 12.08c-9.127 0-16.527-5.409-16.527-12.08z"/></g></g></g><g><g><path fill="#fff" d="M277.452 156.096c-1.92 1.984-4.682 3.532-7.807 4.365-3.266.87-6.877.971-10.224.28-3.221-.667-6.111-2.057-8.249-3.937-4.444-3.91-5.006-9.627-1.41-13.972 1.724-2.083 4.302-3.754 7.33-4.767 3.148-1.053 6.76-1.344 10.15-.84 6.71 1 11.993 5.044 13.066 9.986.135.622.193 1.251.196 1.88-.01 2.507-1.069 4.958-3.052 7.005zm.638-14.325c-2.033-2.087-4.9-3.695-8.191-4.58-3.4-.915-7.198-1.014-10.683-.293-3.373.697-6.431 2.159-8.655 4.14-2.253 2.005-3.622 4.477-3.902 7.065-.283 2.62.574 5.284 2.435 7.532 1.805 2.182 4.519 3.955 7.702 5.002 3.31 1.09 7.04 1.394 10.6.872 3.434-.503 6.627-1.797 9.051-3.644 2.445-1.862 4.09-4.266 4.622-6.819.135-.648.205-1.3.208-1.954-.012-2.612-1.112-5.19-3.187-7.32z"/></g></g></g><g><g><g><path fill="#cecfd3" d="M241.541 156.68c0-8.452 8.452-16.905 16.904-16.905h11.293c8.452 0 16.904 8.453 16.904 16.905v30.962c0 8.452-8.452 16.904-16.904 16.904h-11.293c-8.452 0-16.904-8.452-16.904-16.904z"/></g></g><g><g><path fill="#434343" d="M241.567 198.79v-51.36h45.075v51.36z"/></g></g></g><g><g><g><path fill="#838489" d="M281.36 149.751a2.28 2.28 0 1 1 0 4.56 2.28 2.28 0 0 1 0-4.56z"/></g></g><g><g><path fill="#4a494a" d="M281.36 150.422a1.61 1.61 0 1 1 0 3.219 1.61 1.61 0 0 1 0-3.22z"/></g></g></g><g opacity=".15"><g opacity=".15"><path fill="#000100" d="M257.076 167.796a4.287 4.287 0 0 0-.638-.99 4.26 4.26 0 0 1 .256 3.403 4.245 4.245 0 0 1-3.931 2.83 4.281 4.281 0 0 1-2.495-.763 4.179 4.179 0 0 1-.785-.71 4.257 4.257 0 0 0 1.313 1.482c.73.506 1.608.774 2.496.762a4.243 4.243 0 0 0 3.784-6.014z"/></g></g><g><g><g><g><g><path fill="#fff" d="M248.66 168.938a4.187 4.187 0 1 1 8.374 0 4.187 4.187 0 0 1-8.375 0z"/></g></g><g><g><path fill="#4a494a" d="M250.295 171.49a3.609 3.609 0 1 1 5.103-5.104 3.609 3.609 0 0 1-5.103 5.103z"/></g></g></g></g><g><g><path fill="#151515" d="M255.175 168.937a2.329 2.329 0 1 1-4.657 0 2.329 2.329 0 0 1 4.657 0z"/></g></g></g><g opacity=".15"><g opacity=".15"><path fill="#000100" d="M279.71 167.796a4.289 4.289 0 0 0-.638-.99 4.257 4.257 0 0 1 .256 3.403 4.244 4.244 0 0 1-3.931 2.83 4.282 4.282 0 0 1-2.495-.763 4.19 4.19 0 0 1-.785-.71 4.255 4.255 0 0 0 1.314 1.482c.729.506 1.607.774 2.495.762a4.243 4.243 0 0 0 3.784-6.014z"/></g></g><g><g><g><g><g><path fill="#fff" d="M271.294 168.938a4.187 4.187 0 1 1 8.374 0 4.187 4.187 0 0 1-8.374 0z"/></g></g><g><g><path fill="#4a494a" d="M274.652 172.45a3.609 3.609 0 1 1 1.658-7.025 3.609 3.609 0 0 1-1.658 7.025z"/></g></g></g></g><g><g><path fill="#151515" d="M277.81 168.937a2.329 2.329 0 1 1-4.658 0 2.329 2.329 0 0 1 4.657 0z"/></g></g></g><g opacity=".15"><g opacity=".15"><path fill="#000100" d="M280.007 179.825a15.85 15.85 0 0 0-2.357-3.659c.142.266.276.535.403.808 1.36 2.934 1.752 6.25 1.17 9.426a16.41 16.41 0 0 1-.628 2.342c-1.052 3.015-3.06 5.664-5.654 7.523a15.695 15.695 0 0 1-8.868 2.928 15.827 15.827 0 0 1-9.219-2.819 15.496 15.496 0 0 1-2.9-2.623 15.713 15.713 0 0 0 4.855 5.474 15.825 15.825 0 0 0 9.218 2.819 15.694 15.694 0 0 0 8.869-2.928c2.594-1.859 4.601-4.508 5.653-7.523.267-.765.477-1.546.628-2.341.583-3.177.19-6.493-1.17-9.427z"/></g></g><g><g><g><g><g><path fill="#838489" d="M248.913 184.041c0-8.543 6.926-15.47 15.47-15.47 8.543 0 15.47 6.927 15.47 15.47 0 8.544-6.927 15.47-15.47 15.47-8.544 0-15.47-6.926-15.47-15.47z"/></g></g><g><g><path fill="#4a494a" d="M251.05 184.041c0-7.363 5.969-13.333 13.333-13.333 7.363 0 13.333 5.97 13.333 13.333 0 7.364-5.97 13.334-13.333 13.334-7.364 0-13.334-5.97-13.334-13.334z"/></g></g></g><g><g><path fill="#fff" d="M277.03 193.015a15.555 15.555 0 0 1-7.309 5.589 15.64 15.64 0 0 1-9.57.358 15.612 15.612 0 0 1-7.72-5.042c-4.16-5.007-4.686-12.329-1.321-17.893a15.659 15.659 0 0 1 6.862-6.105c2.946-1.348 6.327-1.722 9.5-1.075 6.28 1.28 11.226 6.459 12.23 12.788a15.618 15.618 0 0 1-2.672 11.38zm.597-18.347a16.396 16.396 0 0 0-7.668-5.866 16.319 16.319 0 0 0-10-.375 16.278 16.278 0 0 0-8.1 5.301 16.312 16.312 0 0 0-3.653 9.05 16.27 16.27 0 0 0 2.28 9.646 16.32 16.32 0 0 0 7.208 6.405 16.392 16.392 0 0 0 9.922 1.118 16.252 16.252 0 0 0 8.472-4.667c2.289-2.385 3.829-5.463 4.327-8.734.126-.829.191-1.664.194-2.503-.01-3.344-1.04-6.646-2.982-9.375z"/></g></g></g><g opacity=".58"><g opacity=".58"><path fill="#000100" d="M255.78 184.041a8.603 8.603 0 1 1 17.206 0 8.603 8.603 0 0 1-17.207 0z"/></g></g></g><g><g><g><g><g><path fill="#838489" d="M244.052 198.571a3.307 3.307 0 1 1 6.613 0 3.307 3.307 0 0 1-6.613 0z"/></g></g><g><g><path fill="#4a494a" d="M244.509 198.571a2.85 2.85 0 1 1 5.7 0 2.85 2.85 0 0 1-5.7 0z"/></g></g></g></g><g><g><path fill="#151515" d="M249.198 198.571a1.839 1.839 0 1 1-3.678 0 1.839 1.839 0 0 1 3.678 0z"/></g></g></g><g><g><g><g><g><path fill="#838489" d="M277.92 198.571a3.307 3.307 0 1 1 6.613 0 3.307 3.307 0 0 1-6.613 0z"/></g></g><g><g><path fill="#4a494a" d="M278.376 198.571a2.85 2.85 0 1 1 5.7 0 2.85 2.85 0 0 1-5.7 0z"/></g></g></g></g><g opacity=".85"><g opacity=".85"><path fill="#ccae73" d="M283.065 198.571a1.838 1.838 0 1 1-3.677 0 1.838 1.838 0 0 1 3.677 0z"/></g></g></g><g><g><g><g><g><path fill="#838489" d="M252.059 155.293c0-6.67 5.408-12.079 12.08-12.079 6.67 0 12.078 5.408 12.078 12.08 0 6.67-5.408 12.079-12.079 12.079-6.67 0-12.079-5.408-12.079-12.08z"/></g></g><g><g><path fill="#4a494a" d="M256.777 162.655c-4.066-4.066-4.066-10.658 0-14.723 4.065-4.066 10.657-4.066 14.723 0 4.066 4.065 4.066 10.657 0 14.723-4.066 4.066-10.658 4.066-14.723 0z"/></g></g></g><g><g><path fill="#fff" d="M274.013 162.3a12.146 12.146 0 0 1-5.706 4.364c-2.387.87-5.027.972-7.472.28a12.192 12.192 0 0 1-6.03-3.937c-3.248-3.91-3.658-9.627-1.03-13.971a12.228 12.228 0 0 1 5.358-4.768 12.145 12.145 0 0 1 7.417-.839c4.905 1 8.766 5.043 9.55 9.985a12.192 12.192 0 0 1-2.087 8.886zm.466-14.325a12.803 12.803 0 0 0-5.986-4.581 12.745 12.745 0 0 0-7.809-.293 12.712 12.712 0 0 0-6.325 4.14 12.734 12.734 0 0 0-2.852 7.065c-.207 2.62.42 5.284 1.78 7.533a12.747 12.747 0 0 0 5.629 5.002 12.798 12.798 0 0 0 7.747.872 12.672 12.672 0 0 0 10.146-12.418c-.009-2.611-.813-5.19-2.33-7.32z"/></g></g></g><g opacity=".58"><g opacity=".58"><path fill="#000100" d="M257.42 155.293a6.718 6.718 0 1 1 13.436 0 6.718 6.718 0 0 1-13.435 0z"/></g></g></g></g><g><g><g><g><path fill="#363636" d="M185.858 45.067l.023-7.47 1.686-5.805.01-3.32 8.375-9.934-17.522-.054-17.521-.054 8.313 9.986-.01 3.32 1.65 5.815-.023 7.47z"/></g></g></g><g><g><g><path fill="#4b4b4b" d="M166.525 33.74c.004-1.208 1.215-2.411 2.422-2.407l18.858.058c1.208.003 2.411 1.214 2.408 2.422-.004 1.207-1.215 2.41-2.422 2.407l-18.858-.058c-1.208-.004-2.411-1.215-2.408-2.422z"/></g></g></g><g><g><g><g><path fill="#414141" d="M144.507 45.343c.002-.708.712-1.413 1.42-1.411l1.437.004c.708.002 1.414.712 1.412 1.42l-.005 1.416-4.269-.013z"/></g></g></g><g><g><g><path fill="#414141" d="M149.784 44.916c.002-.844.849-1.686 1.693-1.683l7.2.022c.843.002 1.685.849 1.682 1.693l-.005 1.688-10.576-.032z"/></g></g></g></g><g><g><g><g><path fill="#4b4b4b" d="M214.018 102.576l-72.03-.221a4.866 4.866 0 0 1-4.85-4.881l.143-46.68a4.866 4.866 0 0 1 4.881-4.851l72.03.221a4.866 4.866 0 0 1 4.85 4.881l-.143 46.68a4.866 4.866 0 0 1-4.881 4.851z"/></g></g></g><g><g><g><path fill="#363636" d="M137.186 96.972l.121-39.289 81.714.251-.12 39.29z"/></g></g></g></g><g><g><g><path fill="#363636" d="M163.11 57.848l2.627-11.467 5.893-7.446 13.622.042 5.224 7.48 2.694 11.483z"/></g></g></g><g><g><g><path fill="#7a7b80" d="M201.83 53.564c.004-1.263 1.271-2.523 2.534-2.519l7.962.025c1.263.004 2.522 1.27 2.518 2.534-.004 1.263-1.27 2.522-2.534 2.519l-7.961-.025c-1.263-.004-2.523-1.27-2.519-2.534z"/></g></g></g><g><g><g><path fill="#a6caa2" d="M196.782 55.67a2.328 2.328 0 1 1 .413-4.638 2.328 2.328 0 0 1-.413 4.638z"/></g></g></g><g opacity=".09"><g opacity=".09"><g opacity=".09"><path fill="#000100" d="M163.11 57.848l.51 6.936 29.528.5.022-7.344z"/></g></g></g><g opacity=".15"><g opacity=".15"><g opacity=".15"><path fill="#000100" d="M198.827 73.601a20.608 20.608 0 0 0-3.05-4.766c.184.345.357.696.521 1.052 1.757 3.82 2.253 8.133 1.483 12.26a21.367 21.367 0 0 1-.825 3.041c-1.38 3.917-4 7.352-7.38 9.758-3.353 2.386-7.426 3.729-11.543 3.771a20.573 20.573 0 0 1-11.973-3.7 20.15 20.15 0 0 1-3.76-3.423 20.436 20.436 0 0 0 6.289 7.137 20.573 20.573 0 0 0 11.974 3.701c4.116-.042 8.19-1.385 11.542-3.771 3.38-2.406 6-5.842 7.38-9.758.35-.993.626-2.008.826-3.042.77-4.127.273-8.44-1.484-12.26z"/></g></g></g><g><g><g><g><g><g><path fill="#7a7b80" d="M164.275 93.242c-7.855-7.854-7.855-20.589 0-28.443 7.854-7.855 20.589-7.855 28.443 0 7.855 7.854 7.855 20.589 0 28.443-7.854 7.855-20.589 7.855-28.443 0z"/></g></g></g><g><g><g><path fill="#414141" d="M166.239 91.278c-6.77-6.77-6.77-17.746 0-24.515 6.77-6.77 17.746-6.77 24.515 0 6.77 6.77 6.77 17.745 0 24.515s-17.745 6.77-24.515 0z"/></g></g></g></g><g><g><g><path fill="#fff" d="M194.903 90.737a20.22 20.22 0 0 1-9.524 7.238 20.337 20.337 0 0 1-12.443.427c-3.917-1.12-7.426-3.447-10.018-6.586-5.39-6.526-6.043-16.047-1.646-23.268a20.362 20.362 0 0 1 8.946-7.91c3.836-1.741 8.233-2.213 12.356-1.36 8.16 1.69 14.57 8.443 15.85 16.675a20.303 20.303 0 0 1-3.52 14.784zm.85-23.85a21.315 21.315 0 0 0-9.945-7.657c-4.134-1.536-8.755-1.714-13-.528a21.165 21.165 0 0 0-10.553 6.86 21.21 21.21 0 0 0-4.785 11.75c-.358 4.361.672 8.8 2.925 12.552 2.186 3.64 5.479 6.6 9.347 8.356a21.31 21.31 0 0 0 12.894 1.492c4.183-.825 8.076-2.967 11.035-6.033 2.984-3.092 4.999-7.088 5.66-11.338.167-1.077.255-2.163.262-3.253 0-4.349-1.326-8.646-3.84-12.2z"/></g></g></g></g><g opacity=".58"><g opacity=".58"><g opacity=".58"><path fill="#000100" d="M170.587 86.93c-4.368-4.369-4.368-11.45 0-15.819 4.369-4.368 11.45-4.368 15.819 0 4.368 4.368 4.368 11.45 0 15.819-4.368 4.368-11.45 4.368-15.819 0z"/></g></g></g></g><g><g><g><path fill="#dedfde" d="M161.025 10.608c.012-3.911 3.935-7.81 7.846-7.799l19.1.06c3.912.011 7.81 3.934 7.799 7.846-.012 3.91-3.936 7.81-7.847 7.798l-19.1-.059c-3.911-.012-7.81-3.935-7.798-7.846z"/></g></g><g><g><path fill="#4b4b4b" d="M193.292 5.073c.163 0 .306.144.306.307l-.033 10.655a.314.314 0 0 1-.308.306l-29.755-.092a.314.314 0 0 1-.305-.307l.033-10.655c0-.163.144-.306.307-.305zm4.65 10.976l.033-10.655a4.689 4.689 0 0 0-4.67-4.698L163.55.604a4.69 4.69 0 0 0-4.698 4.67l-.033 10.655a4.69 4.69 0 0 0 4.67 4.698l29.755.091a4.69 4.69 0 0 0 4.698-4.67z"/></g></g></g></g><g><g><g><path fill="#e5d1bd" d="M243.698 163.522a1.31 1.31 0 0 0 .021-.066c.292-1.006-.63-1.447-.844-2.257-.2-.759.792-1.637.136-2.2-.277-.238-.93-.562-1.45-1.018-.761-.667-1.363-1.87-1.675-2.992-1.222-4.41-2.53-8.8-4.263-13.059-.1-.243-.204-.48-.17-.746.06-.477.434-.734.778-1.03 1.595-1.37 3.126-2.773 4.44-4.43 1.172-1.477 2.207-3.038 2.604-4.898.398-1.86.038-3.848-1.307-5.165-1.007-.985-2.356-1.532-3.723-1.124-3.39 1.012-4.194 5.045-5.45 7.872-1.188 2.675-2.19 4.955-3.17 7.615-.12.329-.231.64-.21.998.023.36.193.699.363 1.01 2.199 4.024 4.444 7.888 5.721 12.29.35 1.209 1.108 2.082 1.303 3.292.124.772-.344 1.458-.336 2.224.008.767.069 1.645.38 2.344.847 1.898 4.25 3.243 6.09 2.153.326-.193.634-.46.762-.813z"/></g></g><g><g><path fill="#efbf48" d="M232.777 131.297a133.676 133.676 0 0 0-3.853 8.6c-.22.548-.44 1.12-.4 1.71.028.42.188.82.349 1.21a78.482 78.482 0 0 0 4.66 9.43c.066.116.142.24.266.29.102.041.216.025.325.008 1.073-.165 5.571-.249 6.024-1.15.505-1.006-1.226-2.898-1.625-3.74a65.05 65.05 0 0 1-1.942-4.547c-.208-.545-.412-1.14-.248-1.7.154-.529.601-.91 1.018-1.27 2.456-2.123 4.525-4.704 6.804-7.02 1.576-1.603 3.335-3.134 4.754-4.882 2.788-3.439 4.182-4.556 4.965-7.675.75-2.988.06-6.547-2.97-7.959-3.14-1.46-6.738.157-9.055 2.348-.956.904-1.598 2.083-2.223 3.24-2.344 4.336-4.69 8.678-6.85 13.107z"/></g></g></g><g><g><path fill="#333" d="M7.854 51.902c0-4.597 4.597-9.194 9.194-9.194h40.496c4.597 0 9.194 4.597 9.194 9.194v12.482c0 4.597-4.597 9.194-9.194 9.194H17.048c-4.597 0-9.194-4.597-9.194-9.194z"/></g><g><path fill="#cecfd3" d="M58.204 64.067a3.79 3.79 0 0 1-3.79-3.79v-10.57a3.79 3.79 0 1 1 7.58 0v10.57a3.79 3.79 0 0 1-3.79 3.79z"/></g><g><g opacity=".15"><g opacity=".15"><path fill="#000100" d="M61.11 50.58a3.035 3.035 0 0 0-.451-.7 3.01 3.01 0 0 1 .18 2.405 3 3 0 0 1-2.78 1.997 3.027 3.027 0 0 1-1.763-.54 2.973 2.973 0 0 1-.554-.503c.222.416.54.779.928 1.048a3 3 0 0 0 4.662-1.905 3.01 3.01 0 0 0-.223-1.803z"/></g></g><g><g><g><g><g><path fill="#6e6f72" d="M56.028 53.476a2.96 2.96 0 1 1 4.185-4.185 2.96 2.96 0 0 1-4.185 4.185z"/></g></g><g><g><path fill="#333" d="M60.67 51.385a2.55 2.55 0 1 1-5.1-.003 2.55 2.55 0 0 1 5.1.003z"/></g></g></g><g><g><path fill="#f1f1f2" d="M60.538 53.102a2.975 2.975 0 0 1-1.398 1.068 2.993 2.993 0 0 1-1.831.067 2.985 2.985 0 0 1-1.476-.965 2.99 2.99 0 0 1-.25-3.423c.308-.51.77-.919 1.312-1.167a2.975 2.975 0 0 1 1.818-.204 2.996 2.996 0 0 1 2.338 2.447 2.988 2.988 0 0 1-.513 2.176zm.117-3.51a3.137 3.137 0 0 0-1.466-1.123 3.123 3.123 0 0 0-1.913-.073 3.116 3.116 0 0 0-1.55 1.014 3.122 3.122 0 0 0-.7 1.73 3.113 3.113 0 0 0 .435 1.846c.323.534.808.969 1.378 1.226a3.107 3.107 0 0 0 4.385-2.826 3.118 3.118 0 0 0-.57-1.794z"/></g></g></g><g><g><path fill="#151515" d="M56.957 52.547a1.646 1.646 0 1 1 2.327-2.327 1.646 1.646 0 0 1-2.327 2.327z"/></g></g></g></g><g><path fill="#fff" d="M59.982 58.951a1.778 1.778 0 1 1-3.555 0 1.778 1.778 0 0 1 3.555 0z"/></g></g><g><g><path fill="#534741" d="M361.08 88.89c-.036-.364-.086-.74-.27-1.057-.298-.518-.89-.781-1.441-1.012l-2.841-1.188c-.618.419-.819 1.27-.676 2.004.143.733.562 1.378.972 2.002l-1.461-.719c-.673.996-.48 2.33-.145 3.485.334 1.156.787 2.348.546 3.526-.11.538-.336 1.179.046 1.573.17.173.415.241.65.302 2.782.726 3.869 1.635 4.319-1.318.38-2.489.417-5.085.301-7.598z"/></g><g><path fill="#1a4ced" d="M359.56 112.678c.88-.387 1.797-.815 2.363-1.592.746-1.024.712-2.402.646-3.667l-.637-12.272c-2.432.073-5.076-.113-7.455.31 1.065 3.178.662 7.178-.058 10.4-7.13.442-17.593-.443-23.723 3.8-2.448 1.701-4.139 4.882-3.172 7.702.864 2.52 3.594 4.02 6.25 4.242 4.333.364 7.16-1.903 10.956-3.243 5.002-1.768 9.97-3.539 14.83-5.68z"/></g></g></g></g></svg>