<svg xmlns="http://www.w3.org/2000/svg" width="378" height="259" viewBox="0 0 378 259"><g><g opacity=".5"><path fill="#173d7a" d="M221.417 228.582l-120.21-69.403c-1.896-1.095-1.896-3.832 0-4.927l113.755-65.668 127.073 73.365c1.896 1.096 1.896 3.833 0 4.928l-106.889 61.705a13.731 13.731 0 0 1-13.73 0z"/></g><g><g><g><path fill="#d4ecff" d="M218.395 46.396c.007-7.734-5.44-10.886-12.142-7.024l-113.92 65.636c-1.843 1.061-3.339 3.646-3.34 5.773-.002 2.126 1.49 2.99 3.333 1.928l113.92-65.636c3.022-1.741 5.478-.32 5.475 3.168l-.011 12.74c2.21-.138 4.429-.14 6.67-.1z"/></g><g><path fill="#5793ce" d="M92.283 135.618l113.92-41.512c6.702-3.862 12.16-13.296 12.167-21.03l.01-10.196c-2.241-.039-4.46-.037-6.67.101l-.012 13.94c-.004 3.488-2.465 7.742-5.488 9.483L92.29 127.917c-1.842 1.061-3.338 3.647-3.34 5.772-.002 2.127 1.49 2.99 3.333 1.93z"/></g></g><g><path fill="#5793ce" d="M89.812 135.77l138.58 80.188 117.328-69.97 9.308-13.893-.966 4.922-2.501-12.887-217.792 8.307-38.372-2.471z"/></g><g><path fill="#86b8e0" d="M94.408 111.572l-.037 17.058 133.936 77.488 3.618-16.257z"/></g><g><path fill="#d4ecff" d="M353.302 118.646L214.943 38.599 90.198 111.142l-.257 1.782 138.562 80.165z"/></g><g><g><path fill="#fff" d="M309.193 159.753l32.532-19.297c2.74-1.926 4.888-5.82 4.892-9.073l.024-2.556c.002-2.066-.864-3.4-2.195-3.787l-64.038 35.625-52.149 28.205.048 17.248z"/></g></g><g><path fill="#5793ce" d="M232.936 190.445L95.455 110.906l-2.915-1.686-2.662-1.54c-.544.999-.885 2.099-.886 3.101 0 1.045.362 1.78.948 2.137v.006l.023.013.01.006 138.53 80.145z"/></g><g><path fill="#fff" d="M226.664 214.959l1.728 1 .319-.551-1.077-.847z"/></g><g><path fill="#fff" d="M226.709 192.047l1.77 1.025-.443-.967z"/></g><g><g><path fill="#d4ecff" d="M230.894 185.172l113.92-65.636c6.702-3.861 12.149-.71 12.142 7.024l-.024 2.556c-.007 7.735-5.465 17.169-12.167 21.03l-113.92 65.636c-1.843 1.062-3.335.198-3.334-1.928.002-2.127 1.498-4.712 3.34-5.773l113.92-65.637c3.023-1.74 5.485-5.995 5.488-9.483l.023-2.556c.004-3.489-2.452-4.91-5.475-3.168l-113.92 65.636c-1.843 1.062-3.335.198-3.333-1.928.001-2.126 1.497-4.711 3.34-5.773z"/></g></g><g><path fill="#fff" d="M180.157 121.536l59.198-34.107 51.341 29.703-59.198 34.108z"/></g><g><g><path fill="#fff" d="M227.511 213.854c.002-2.127 1.498-4.712 3.34-5.773l113.92-65.636c3.023-1.741 5.485-5.996 5.488-9.484l.024-2.556c.002-2.284-1.054-3.673-2.63-3.878.508.667.806 1.618.805 2.822l-.024 2.555c-.004 3.489-2.465 7.744-5.488 9.484l-113.92 65.637c-1.842 1.06-3.337 3.646-3.34 5.773 0 1.611.857 2.492 2.075 2.365-.16-.358-.25-.794-.25-1.31z"/></g><g><path fill="#fff" d="M227.554 190.945c.001-2.126 1.497-4.711 3.34-5.773l113.92-65.636c2.886-1.663 5.536-2.018 7.622-1.274-2.227-1.9-5.632-1.98-9.448.218l-113.92 65.636c-1.842 1.062-3.337 3.646-3.34 5.773 0 1.611.858 2.492 2.074 2.365-.159-.358-.248-.794-.248-1.31z"/></g></g></g><g><g opacity=".5"><path fill="#173d7a" d="M32.3 151.292L1.234 133.356c-1.907-1.1-1.668-3.023.534-4.294l29.995-17.318c2.202-1.271 5.532-1.409 7.44-.308l31.064 17.935c1.907 1.1 1.668 3.023-.534 4.294l-29.996 17.318c-2.201 1.272-5.532 1.41-7.439.309z"/></g><g><path fill="#396caa" d="M71.545 120.7v-10.72l-24.034-.013-8.308-4.796c-1.907-1.1-5.237-.963-7.439.308l-7.75 4.476-24.056-.014v11.024c-.055.744.36 1.464 1.277 1.993l31.064 17.935c1.907 1.1 5.238.962 7.44-.308l29.995-17.319c1.27-.733 1.882-1.683 1.81-2.567z"/></g><g><path fill="#396caa" d="M35.752 104.433c-1.395.034-2.844.386-3.988 1.046l-7.75 4.476-24.056-.014v11.024c-.055.744.36 1.464 1.277 1.993l31.064 17.935c.916.528 2.162.769 3.453.737z"/></g><g><path fill="#5793ce" d="M2.68 109.942l-2.722-.001v11.024c-.055.744.36 1.464 1.277 1.993l1.445.834z"/></g><g><path fill="#5793ce" d="M32.778 141.127c1.644.705 4.024.665 5.947-.068v-12.517h-5.947z"/></g><g><path fill="#d4ecff" d="M32.3 129.909L1.234 111.973c-1.907-1.1-1.668-3.023.534-4.294L31.764 90.36c2.202-1.271 5.532-1.409 7.44-.308l31.064 17.935c1.907 1.1 1.668 3.023-.534 4.295L39.738 129.6c-2.201 1.27-5.532 1.409-7.439.308z"/></g><g><path fill="#fff" d="M69.734 110.173L39.738 127.49c-2.201 1.271-5.532 1.41-7.439.309L1.235 109.864c-.426-.245-.738-.533-.952-.844-.655 1.054-.358 2.197.952 2.953l31.064 17.936c1.907 1.1 5.238.963 7.44-.309l29.995-17.317c1.71-.988 2.23-2.367 1.486-3.45-.3.48-.797.942-1.486 1.34z"/></g><g><g><path fill="#d4ecff" d="M60.119 123.528c0 .8-.562 1.773-1.255 2.174-.692.4-1.255.075-1.255-.725 0-.8.563-1.774 1.255-2.173.693-.4 1.255-.076 1.255.724z"/></g><g><path fill="#d4ecff" d="M64.156 121.198c0 .8-.562 1.773-1.254 2.173-.694.4-1.255.076-1.255-.725 0-.8.561-1.773 1.255-2.173.692-.4 1.254-.076 1.254.725z"/></g><g><path fill="#d4ecff" d="M68.193 118.867c0 .8-.562 1.773-1.255 2.173-.693.4-1.254.076-1.254-.725 0-.8.561-1.773 1.254-2.173.693-.4 1.255-.076 1.255.725z"/></g></g><g><g><path fill="#5793ce" d="M34.137 118.79L19.6 110.395c-.893-.515-.78-1.415.25-2.009l14.036-8.104c1.03-.595 2.589-.66 3.48-.145l14.538 8.393c.892.515.78 1.415-.25 2.01l-14.036 8.104c-1.031.594-2.59.66-3.481.144z"/></g><g><path fill="#d4ecff" d="M35.528 111.762l-2.011-1.161c-.124-.071-.108-.196.035-.278l1.942-1.122c.142-.082.358-.091.481-.02l2.011 1.162c.124.071.109.196-.034.278l-1.942 1.121c-.143.082-.358.091-.482.02z"/></g><g><path fill="#396caa" d="M19.6 110.396l.04.024c.069-.048.13-.098.21-.144l14.036-8.104c1.03-.594 2.589-.659 3.48-.144l14.497 8.37c.822-.59.865-1.39.04-1.867l-14.536-8.393c-.892-.515-2.45-.45-3.481.145l-14.037 8.104c-1.03.594-1.142 1.494-.249 2.01z"/></g></g></g><g><g opacity=".5"><path fill="#173d7a" d="M307.264 256.383L276.2 238.447c-1.907-1.101-1.667-3.024.535-4.295l29.995-17.318c2.201-1.27 5.532-1.408 7.439-.308l31.064 17.935c1.907 1.101 1.668 3.024-.534 4.295l-29.996 17.318c-2.201 1.271-5.531 1.41-7.438.309z"/></g><g><path fill="#396caa" d="M346.51 225.79v-10.718l-24.035-.014-8.307-4.796c-1.907-1.101-5.238-.963-7.44.308l-7.75 4.475-24.056-.014v11.024c-.054.745.361 1.464 1.277 1.993l31.065 17.935c1.907 1.1 5.237.963 7.438-.308l29.996-17.318c1.27-.733 1.883-1.683 1.812-2.566z"/></g><g><path fill="#396caa" d="M310.716 209.524c-1.395.034-2.843.386-3.987 1.046l-7.75 4.475-24.057-.014v11.024c-.054.745.361 1.464 1.277 1.993l31.065 17.935c.917.53 2.161.77 3.452.738z"/></g><g><path fill="#5793ce" d="M277.645 215.033l-2.723-.002v11.024c-.054.745.361 1.464 1.277 1.993l1.446.834z"/></g><g><path fill="#5793ce" d="M307.743 246.218c1.645.704 4.023.665 5.946-.068v-12.517h-5.946z"/></g><g><path fill="#d4ecff" d="M307.264 235L276.2 217.065c-1.907-1.101-1.667-3.024.535-4.296l29.995-17.318c2.201-1.27 5.532-1.409 7.439-.308l31.064 17.935c1.907 1.1 1.668 3.024-.534 4.295l-29.996 17.318c-2.201 1.271-5.531 1.41-7.438.308z"/></g><g><path fill="#fff" d="M344.698 215.263l-29.996 17.318c-2.201 1.272-5.531 1.41-7.438.31L276.2 214.953c-.425-.244-.737-.533-.95-.843-.656 1.054-.359 2.197.95 2.954L307.264 235c1.907 1.1 5.237.962 7.438-.308l29.996-17.319c1.711-.987 2.23-2.368 1.486-3.45-.3.48-.796.943-1.486 1.34z"/></g><g><g><path fill="#d4ecff" d="M335.084 228.618c0 .8-.563 1.774-1.255 2.174-.693.4-1.255.075-1.255-.724 0-.8.562-1.773 1.255-2.173.692-.4 1.255-.076 1.255.723z"/></g><g><path fill="#d4ecff" d="M339.12 226.288c0 .8-.561 1.773-1.254 2.173-.693.4-1.255.076-1.255-.724 0-.8.562-1.773 1.255-2.173.693-.4 1.254-.076 1.254.724z"/></g><g><path fill="#d4ecff" d="M343.158 223.957c0 .8-.562 1.773-1.256 2.173-.692.4-1.254.076-1.254-.724 0-.8.562-1.773 1.254-2.173.694-.4 1.256-.076 1.256.724z"/></g></g><g><g><path fill="#5793ce" d="M309.101 223.88l-14.537-8.393c-.892-.515-.78-1.415.25-2.01l14.037-8.103c1.03-.596 2.588-.66 3.48-.145l14.538 8.393c.892.516.78 1.414-.25 2.01l-14.037 8.104c-1.03.594-2.589.659-3.481.144z"/></g><g><path fill="#d4ecff" d="M310.493 216.852l-2.011-1.16c-.124-.072-.108-.197.034-.279l1.942-1.121c.142-.082.358-.091.481-.02l2.012 1.161c.124.072.108.196-.034.278l-1.942 1.122c-.143.082-.36.091-.482.02z"/></g><g><path fill="#396caa" d="M294.564 215.487l.042.024c.067-.048.13-.098.208-.144l14.037-8.104c1.03-.594 2.588-.66 3.48-.144l14.496 8.369c.822-.589.866-1.39.042-1.866l-14.537-8.393c-.893-.515-2.451-.45-3.481.145l-14.037 8.104c-1.03.594-1.142 1.494-.25 2.009z"/></g></g></g><g opacity=".5"><path fill="#173d7a" d="M59.442 183.616c2.394-1.382 6.277-1.383 8.672 0l111.869 64.613c2.395 1.382 2.395 3.624 0 5.007-2.395 1.383-6.278 1.383-8.673 0L59.44 188.624c-2.394-1.383-2.394-3.625.002-5.008z"/></g><g><g><g><path fill="#d4ecff" d="M48.245 158.217a.44.44 0 0 1 .474-.208l6.092 1.32-2.4 4.082-4.117-4.68a.442.442 0 0 1-.049-.514z"/></g><g><g><path fill="#e5df00" d="M50.648 161.227c.006-.879.632-1.943 1.396-2.376.354-.2.671-.225.915-.113a38.907 38.907 0 0 1 20.032 5.364l.439.258-7.566 12.872-2.235-1.48a38.925 38.925 0 0 1-11.677-12.108l-.957-1.563c-.216-.157-.35-.447-.347-.854z"/></g><g><path fill="#d4ecff" d="M65.864 177.232c-2.053-1.206-2.022-5.066.067-8.62 2.09-3.555 5.447-5.458 7.5-4.252 2.052 1.206 2.021 5.066-.068 8.62-2.09 3.555-5.447 5.459-7.5 4.252z"/></g><g><path fill="#d4ecff" d="M110.771 205.21l-44.907-27.978 7.566-12.872L119.712 190z"/></g><g><path fill="#d4ecff" d="M108.975 201.157c.031-3.978 2.862-8.793 6.323-10.755 3.46-1.963 6.24-.328 6.21 3.65-.032 3.978-2.862 8.793-6.322 10.755-3.461 1.963-6.242.329-6.21-3.65z"/></g></g><g><g><path fill="#d4ecff" d="M111.537 202.663c.032-3.978 2.862-8.793 6.323-10.756 3.46-1.961 6.24-.327 6.21 3.65-.032 3.978-2.862 8.794-6.323 10.756-3.46 1.962-6.24.328-6.21-3.65z"/></g><g><path fill="#d4ecff" d="M172.745 241.638l-59.412-34.922 8.94-15.211 59.413 34.922z"/></g><g><path fill="#d4ecff" d="M170.95 237.585c.03-3.978 2.861-8.793 6.321-10.755 3.461-1.963 6.24-.329 6.21 3.65-.03 3.978-2.862 8.793-6.322 10.755-3.46 1.962-6.24.328-6.21-3.65z"/></g><g><path fill="#396caa" d="M173.192 236.313c.137-2.348 2.05-5.272 4.27-6.532 2.223-1.26 3.913-.378 3.777 1.97-.138 2.348-2.05 5.273-4.271 6.533-2.223 1.26-3.913.378-3.776-1.97z"/></g></g><g><g><path fill="#fff" d="M108.524 200.891c.031-3.977 2.862-8.792 6.323-10.755 1.393-.79 2.672-.988 3.706-.693-1.123-1.174-2.965-1.312-5.062-.124-3.461 1.962-6.292 6.778-6.323 10.755-.019 2.376.97 3.907 2.503 4.344-.73-.763-1.159-1.958-1.147-3.527z"/></g><g><path fill="#e5df00" d="M108.524 200.892c.031-3.978 2.862-8.793 6.322-10.756 1.73-.98 3.29-1.063 4.415-.402l3.366 1.978-1.604 2.729c-.293 3.618-2.714 7.737-5.733 9.753l-1.604 2.729-3.367-1.979c-1.123-.66-1.81-2.063-1.795-4.052z"/></g><g><path fill="#d4ecff" d="M111.89 202.87c.031-3.978 2.862-8.793 6.323-10.755 3.46-1.962 6.24-.327 6.21 3.65-.032 3.978-2.862 8.793-6.322 10.755-3.461 1.963-6.242.329-6.21-3.65z"/></g></g><g><g><path fill="#e5df00" d="M175.214 236.33c.014-1.715 1.234-3.792 2.728-4.64 1.493-.846 2.692-.141 2.679 1.576-.014 1.715-1.235 3.794-2.728 4.64-1.493.846-2.692.141-2.68-1.575z"/></g><g><path fill="#e5df00" d="M175.214 236.33c.014-1.715 1.234-3.793 2.728-4.64.747-.422 1.42-.459 1.904-.173l12.593 7.402a3.806 3.806 0 1 1-3.858 6.562l-12.593-7.402c-.484-.284-.781-.89-.774-1.748z"/></g></g><g><g><path fill="#5793ce" d="M161.218 213.165l1.887-1.07c1.086-.615 2.52-.462 4.04.432l6.471 3.803c1.222.718 2.207 2.455 2.196 3.872l-.026 3.24c-.004.542.263 1.167.651 1.626l-.242 1.5 1.614-.924-.004-.002c.233-.118.382-.39.385-.788l.025-3.239c.023-2.954-2.03-6.576-4.577-8.073l-6.471-3.803c-2.162-1.27-4.202-1.49-5.746-.615l-1.887 1.071c-1.085.615-2.52.462-4.04-.432l-26.085-15.333c-.337-.198-.641-.214-.862-.084v-.002l-1.61.923 1.378.53c.192.579.597 1.141 1.072 1.421l26.085 15.333c2.162 1.27 4.203 1.489 5.746.614z"/></g><g><path fill="#5793ce" d="M161.471 213.03c1.085-.614 2.52-.46 4.04.432l6.471 3.804c1.22.718 2.206 2.455 2.195 3.872l-.025 3.239c-.006.77.527 1.71 1.191 2.1.664.39 1.206.082 1.212-.687l.026-3.24c.022-2.953-2.03-6.575-4.577-8.073l-6.472-3.803c-2.162-1.27-4.202-1.489-5.745-.614l-1.888 1.07c-1.084.615-2.519.462-4.04-.432l-26.084-15.332c-.664-.39-1.207-.082-1.213.687-.005.77.528 1.711 1.191 2.101l26.085 15.332c2.162 1.272 4.203 1.49 5.746.615z"/></g><g><g><path fill="#fff" d="M174.258 221.672l-.025 3.239c0 .021.01.044.01.066a2.062 2.062 0 0 1-.091-.6l.025-3.24c0-.091-.014-.188-.02-.282.061.277.103.553.1.817z"/></g></g></g></g></g><g opacity=".5"><path fill="#173d7a" d="M203.448 81.417l71.07 41.032 42.724-24.666-70.997-41.075z"/></g><g><g><g><g><path fill="#e5df00" d="M338.45 57.803l-9.361-5.404 34.51-19.925c1.63-.941 1.63-2.473 0-3.414L328.344 8.706c-1.63-.94-4.282-.94-5.912 0l-34.51 19.925-9.36-5.404 34.51-19.925c6.79-3.92 17.84-3.921 24.632 0l35.255 20.354c6.791 3.921 6.791 10.302 0 14.222z"/></g></g><g><g><path fill="#d4ecff" d="M353.552 60.182c0-5.004-3.042-10.817-6.795-12.984l-62.527-36.1c-1.68-.97-3.216-1.038-4.402-.376l-.003-.002-74.656 43.383 72.194 54.4 73.55-42.688c.228-.103.448-.224.65-.378h.001c1.229-.93 1.988-2.755 1.988-5.255z"/></g><g><path fill="#396caa" d="M277.363 108.504l73.55-42.689c.228-.103.448-.224.65-.378h.001c1.229-.93 1.988-2.755 1.988-5.255 0-2.389-.698-4.959-1.832-7.231l-83.84 48.406z"/></g><g><path fill="#5793ce" d="M272.662 108.31l-62.527-36.099c-3.752-2.167-6.795-7.98-6.795-12.983 0-5.005 3.043-7.304 6.795-5.137l62.527 36.099c3.753 2.167 6.795 7.98 6.795 12.984 0 5.003-3.042 7.303-6.795 5.136z"/></g><g><path fill="#fff" d="M273.414 89.847l-62.526-36.099c-1.726-.995-3.296-1.039-4.495-.317 1.074-.326 2.359-.14 3.742.66l62.527 36.099c3.752 2.167 6.795 7.98 6.795 12.983 0 2.704-.893 4.608-2.3 5.456 1.838-.561 3.052-2.638 3.052-5.798 0-5.003-3.041-10.816-6.795-12.984z"/></g></g><g><path fill="#fff" d="M263.297 96.136l-7.518-4.336c-.747-.433-1.354-1.591-1.354-2.588 0-.998.607-1.456 1.354-1.024l7.518 4.336c.748.432 1.354 1.591 1.354 2.588 0 .998-.606 1.456-1.354 1.024z"/></g></g><g><g><path fill="#5793ce" d="M271.775 44.81c2.268-1.342 2.246-3.478-.05-4.771-2.295-1.294-5.994-1.255-8.262.086-2.267 1.341-2.244 3.476.05 4.77 2.296 1.293 5.995 1.255 8.262-.086z"/></g><g><path fill="#fff" d="M284.366 51.903c2.268-1.34 2.245-3.477-.05-4.77-2.296-1.293-5.995-1.254-8.262.086-2.268 1.342-2.246 3.477.05 4.771 2.295 1.293 5.994 1.254 8.262-.087z"/></g><g><path fill="#fff" d="M296.955 58.997c2.268-1.34 2.246-3.476-.05-4.77-2.294-1.292-5.993-1.254-8.261.087-2.267 1.34-2.246 3.477.05 4.77 2.295 1.294 5.994 1.255 8.261-.087z"/></g></g></g><g><g><g><g><path fill="#e5df00" d="M132.504 162.317s-3.235-1.631-5.222.797c-1.986 2.43-4.826 8.163-4.914 12.038-.088 3.874 3.066 3.613 4.942 2.696 1.874-.917 7.351-8.863 7.682-10.419.333-1.557-.39-3.662-.917-4.073-.528-.413-1.571-1.04-1.571-1.04z"/></g><g><path fill="#d4ecff" d="M133.21 161.537l.149 3.351a1.9 1.9 0 0 1-.947 1.744c-.565.32-1.386.566-2.496.387-2.436-.391-2.654-1.087-2.827-4.437-.175-3.35 6.12-1.045 6.12-1.045z"/></g><g><g><path fill="#e5df00" d="M120.663 155.873s-3.235-1.632-5.221.798c-1.987 2.428-4.826 8.162-4.914 12.037-.088 3.875 3.066 3.613 4.94 2.696 1.876-.917 7.353-8.862 7.684-10.42.332-1.555-.39-3.66-.918-4.073-.527-.411-1.571-1.038-1.571-1.038z"/></g><g><path fill="#d4ecff" d="M121.368 155.094l.15 3.35a1.9 1.9 0 0 1-.947 1.744c-.565.32-1.385.567-2.495.388-2.437-.392-2.654-1.088-2.828-4.438-.174-3.35 6.12-1.044 6.12-1.044z"/></g><g><path fill="#173d7a" d="M150.232 93.568c-.958-15.577-16.87 2.292-16.87 2.292l-10.891 10.675-9.807 10.773a9.669 9.669 0 0 0-2.436 7.766l3.967 30.208a2.969 2.969 0 0 0 2.977 2.58c.426-.003.912-.042 1.47-.128 3.539-.552 3.278-3.917 3.278-3.917l-.725-28.253 20.595-12.416s9.398-4.003 8.442-19.58z"/></g></g><g><path fill="#173d7a" d="M162.072 99.503c-.958-15.577-16.87 2.291-16.87 2.291l-10.891 10.675-9.807 10.774a9.665 9.665 0 0 0-2.435 7.766l3.966 30.208a2.97 2.97 0 0 0 2.977 2.58c.426-.003.912-.042 1.47-.13 3.54-.55 3.279-3.915 3.279-3.915l-.705-27.44 20.574-13.229s9.4-4.002 8.442-19.58z"/></g><g><path fill="#e5df00" d="M152.658 49.5c12.064 5.001 11.822 12.133 11.822 12.133s-2.363 26.143-1.557 43.604c.338 7.299-38.78 7.855-32.945-11.618 6.878-22.96 4.3-41.547 7.52-44.35 3.22-2.804 12.04-1.063 15.16.231z"/></g><g><path fill="#ffc2b0" d="M156.54 55.823c-.632 2.45-3.841 3.74-7.169 2.883-3.328-.857-5.514-3.538-4.882-5.987.63-2.45 3.84-3.74 7.167-2.883 3.328.857 5.514 3.538 4.883 5.987z"/></g><g><path fill="#fff" d="M151.708 58.76l-2.22 2.409a1.465 1.465 0 0 0-.376 1.158l1.526 13.196c.043.37-.06.742-.286 1.038l-4.775 6.247a.431.431 0 0 1-.754-.131l-2.6-8.183a1.44 1.44 0 0 1 .027-.948l4.574-11.985c.1-.262.122-.548.065-.822l-.67-3.177z"/></g><g><path fill="#fff" d="M149.595 50.146c.626 0 1.273.083 1.917.249 1.491.384 2.778 1.166 3.623 2.202.804.985 1.105 2.08.846 3.082-.259 1.002-1.05 1.817-2.23 2.29-1.24.5-2.746.563-4.235.179-1.492-.385-2.778-1.167-3.624-2.203-.803-.985-1.104-2.079-.845-3.081.259-1.004 1.05-1.817 2.23-2.291a6.213 6.213 0 0 1 2.318-.427zm1.836 9.402c.972 0 1.91-.17 2.75-.508 1.53-.615 2.565-1.707 2.917-3.073.352-1.367-.028-2.822-1.07-4.1-1-1.225-2.501-2.144-4.228-2.59-1.729-.443-3.487-.364-4.954.226-1.529.614-2.564 1.705-2.916 3.072-.352 1.367.027 2.822 1.068 4.098 1 1.226 2.502 2.147 4.23 2.591.736.19 1.48.284 2.203.284z"/></g><g><path fill="#ffc2b0" d="M147.821 48.956s.105.484-.104 4.306c-.066 1.202 4.142 2.325 5.23 1.237 1.087-1.087.652-2.218.914-6.31.26-4.089-6.04.767-6.04.767z"/></g><g><path fill="#ea9c92" d="M153.86 48.19s-1.036 3.792-6.144 5.247l.078-3.447z"/></g><g><path fill="#ffc2b0" d="M144.624 49.488a9.286 9.286 0 1 1 6.965-17.217 9.286 9.286 0 0 1-6.965 17.217z"/></g><g><path fill="#ea9c92" d="M150.24 41.22s-5.114 2.19-8.654 2.216c-3.54.025-2.76-2.94-2.76-2.94l10.51-1.519z"/></g><g><path fill="#d4ecff" d="M140.53 41.797s4.455-1.89 8.362-1.102c.918.185 1.77.676 2.361 1.403.193.238.437.454.714.516.693.157 1.827-2.717 3.174-2.783 1.347-.065 2.246.889 1.141 2.657-1.104 1.767-.731 3.745-.223 4.03.508.283 6.798-4.105 2.044-13.522-4.753-9.416-17.728-4.083-19.606-2.175 0 0-1.978 1.724-3.587.19 0 0-1.804 13.51 5.62 10.786z"/></g><g><path fill="#ffc2b0" d="M157.713 80.733v7.065c0 .809-.341 1.581-.94 2.126l-14.512 13.23 1.649 2.523 19.994-13.11a3.897 3.897 0 0 0 1.587-2.746l1.367-13.11z"/></g><g><path fill="#e5df00" d="M163.459 58.1s4.402 6.621 6.042 24.05c0 0-7.52 2.432-11.788 1.051-4.269-1.38 5.746-25.1 5.746-25.1z"/></g><g><path fill="#b3ae07" d="M156.909 66.472s-1.724 9.224-1.821 13.56a2.768 2.768 0 0 0 1.82 2.672z"/></g></g><g><g><path fill="#5793ce" d="M153.144 112.34l-3.208-.423-20.704-11.954c-.665-.383-1.824-.335-2.59.108l-14.672 8.467-1.939-.256v1.93h.002c-.013.255.132.5.445.68l23.465 13.548c.664.383 1.823.335 2.59-.107l15.977-9.222c.431-.249.646-.57.634-.87z"/></g><g><path fill="#396caa" d="M137.586 104.787l-1.47-.849h-16.173l-7.973 4.6-1.939-.256v1.93h.002c-.013.255.132.5.445.68l23.465 13.548c.35.202.84.283 1.336.25z"/></g><g><path fill="#5793ce" d="M110.891 108.396l-.86-.114v1.93h.002c-.013.255.132.5.445.68l.413.24z"/></g><g><path fill="#5793ce" d="M134.179 124.55c.629.238 1.529.186 2.2-.137v-3.285h-2.2z"/></g><g><path fill="#fff" d="M133.943 122.51l-23.465-13.547c-.663-.383-.58-1.052.186-1.495l15.978-9.222c.766-.442 1.925-.49 2.59-.107l23.464 13.548c.664.383.58 1.052-.186 1.495l-15.978 9.22c-.766.443-1.925.492-2.59.109z"/></g><g><path fill="#d4ecff" d="M133.546 120.457l-19.511-11.264c-.552-.32-.482-.876.154-1.243l8.562-4.816c.638-.367 1.602-.407 2.154-.089l19.51 11.265c.553.318.484.875-.154 1.243l-8.562 4.815c-.638.367-1.601.408-2.153.089z"/></g></g><g><path fill="#ffc2b0" d="M127.548 97.801l-.242 1.62c-.207 1.379-.17 2.784.106 4.151l.288 1.426c.163.805.8 1.43 1.608 1.577a1.107 1.107 0 0 0 1.299-.966l.387-3.46s.885 1.16 1.313 1.16c.427 0-.479-3.467-1.446-5.428-.967-1.962-3.312-.08-3.312-.08z"/></g><g><path fill="#ffc2b0" d="M135.503 72.07l-2.518 4.983a9.775 9.775 0 0 0-1.03 3.782l-1.094 17.046-3.313-.08-1.502-19.14a6.986 6.986 0 0 1 .085-1.77l1.718-9.707z"/></g><g><g><path fill="#173d7a" d="M133.148 123.812l-1.968-2.569-20.69-11.979c-.663-.384-1.2-1.413-1.2-2.298l.019-16.94-1.19-1.552 1.118-.648.001.002c.214-.138.499-.135.812.046l23.447 13.576c.664.384 1.201 1.413 1.2 2.298l-.02 18.449c0 .497-.171.843-.439.983z"/></g><g><path fill="#396caa" d="M118.84 114.098l-1.47-.85-8.07-14.016.01-9.205-1.19-1.553 1.117-.648.001.002c.214-.138.499-.135.812.046l23.447 13.576c.352.204.666.587.885 1.034z"/></g><g><path fill="#5793ce" d="M108.647 89.163l-.528-.689 1.118-.648.001.002c.214-.138.499-.135.812.046l.413.24z"/></g><g><path fill="#274f89" d="M133.71 101.6c.522.427.925 1.232.98 1.976l-2.29 1.322-1.099-1.906z"/></g><g><path fill="#5793ce" d="M132.381 102.097l-23.448-13.576c-.663-.383-1.202.022-1.203.907l-.02 18.448c-.001.885.536 1.915 1.2 2.298l23.447 13.576c.663.384 1.203-.022 1.203-.907l.02-18.448c.001-.885-.535-1.914-1.199-2.298z"/></g></g><g><path fill="#ffc2b0" d="M143.91 105.677l-.375.778a5.223 5.223 0 0 1-1.96 2.173l-2.33 1.435c-.724.447-1.641.483-2.377.055-.027-.015-.053-.032-.08-.048-.74-.464-.806-1.527-.197-2.152l2.434-2.503s-1.368 1.047-1.75.626c-.282-.31 1.325-1.818 2.559-1.867 1.233-.05 2.427-1.02 2.427-1.02z"/></g><g><path fill="#e5df00" d="M137.74 49.233s-8.923 9.707-12.523 18.614c0 0 3.05 5.498 10.52 7.654 7.468 2.157 2.002-26.268 2.002-26.268z"/></g><g><path fill="#b5b002" d="M134.056 74.925l1.446-13.97-3.407 13.088c.607.318 1.264.612 1.961.882z"/></g><g><path fill="#fff" d="M144.421 47.273l-2.397-.658s1.145 1.8 2.816 2.259c1.67.459 1.93-.955 1.93-.955z"/></g></g><g><path fill="#fff" d="M157.228 43.436a1.335 1.335 0 1 1-2.67 0 1.335 1.335 0 0 1 2.67 0z"/></g></g><g><g><g opacity=".5"><path fill="#173d7a" d="M207.251 154.55c0-7.868 11.047-14.246 24.674-14.246 13.627 0 24.674 6.378 24.674 14.246s-11.047 14.246-24.674 14.246c-13.627 0-24.674-6.378-24.674-14.246z"/></g><g><path fill="#e5df00" d="M259.996 142.367v-7.882h-1.488c-1.336-2.3-3.56-4.467-6.734-6.299-10.962-6.33-28.736-6.33-39.698 0-3.173 1.833-5.398 3.999-6.734 6.3h-1.486v7.838h.002c-.02 4.162 2.718 8.327 8.219 11.502 10.962 6.33 28.736 6.33 39.698.001 5.481-3.164 8.222-7.313 8.221-11.46z"/></g><g><path fill="#e5df00" d="M203.854 134.485c0-8.95 12.568-16.207 28.071-16.207 15.503 0 28.071 7.256 28.071 16.207 0 8.95-12.568 16.207-28.07 16.207-15.504 0-28.072-7.256-28.072-16.207z"/></g><g><path fill="#fff" d="M251.775 145.945c-10.962 6.33-28.736 6.33-39.699 0-5.253-3.033-7.961-6.97-8.18-10.945-.236 4.318 2.471 8.68 8.18 11.976 10.963 6.33 28.737 6.33 39.699 0 5.708-3.295 8.416-7.657 8.179-11.976-.218 3.975-2.925 7.912-8.18 10.945z"/></g></g><g><g><path fill="#fff" d="M218.396 139.85c-.473-.272-.742-.643-.74-1.033l.028-10.56c.002-.805 1.135-1.457 2.53-1.456 1.396 0 2.522.655 2.522 1.462l-.024 8.755 25.412-3.111c1.367-.168 2.707.336 2.996 1.124.29.788-.582 1.562-1.947 1.73l-28.466 3.485c-.747.092-1.525-.016-2.117-.294a2.721 2.721 0 0 1-.194-.102z"/></g></g></g><g><g><g opacity=".5"><path fill="#173d7a" d="M69.647 258.314l-14.865-8.582 14.865-8.582 14.864 8.582z"/></g><g><path fill="#aea901" d="M84.511 238.836l-14.864 8.582v-17.163l14.864-8.582z"/></g><g><path fill="#e5df00" d="M69.647 230.255l-14.864-8.582 14.864-8.582 14.864 8.582z"/></g><g><path fill="#e5df00" d="M69.647 247.418l-14.864-8.582v-17.163l14.864 8.582z"/></g></g><g><path fill="#fff" d="M64.294 238.146l-4.158-2.4v-4.8l4.158 2.4z"/></g></g></g></svg>