<svg xmlns="http://www.w3.org/2000/svg" width="278" height="276" viewBox="0 0 278 276"><defs><linearGradient id="s0s2a" x1="134.47" x2="163.61" y1="47.32" y2="270.25" gradientUnits="userSpaceOnUse"><stop offset="0" stop-color="#0ff"/><stop offset=".37" stop-color="#0071bc"/><stop offset=".76" stop-color="#9e005d"/><stop offset="1" stop-color="#ed1e79"/></linearGradient><linearGradient id="s0s2b" x1="177.1" x2="265.68" y1="21.77" y2="256.57" gradientUnits="userSpaceOnUse"><stop offset="0" stop-color="#e5df00"/><stop offset="1" stop-color="#5c5900"/></linearGradient><linearGradient id="s0s2c" x1="156.39" x2="132.35" y1="170.95" y2="98.62" gradientUnits="userSpaceOnUse"><stop offset="0" stop-color="#3301a0"/><stop offset="1" stop-color="#6a01a0"/></linearGradient><linearGradient id="s0s2d" x1="115.48" x2="118.76" y1="267.03" y2="166.73" gradientUnits="userSpaceOnUse"><stop offset="0" stop-color="#f7631e"/><stop offset="1" stop-color="#febc66"/></linearGradient><linearGradient id="s0s2e" x1="140.09" x2="65.69" y1="92.51" y2="-37.94" gradientUnits="userSpaceOnUse"><stop offset="0" stop-color="#0ff"/><stop offset="1" stop-color="#9e005d"/></linearGradient><linearGradient id="s0s2f" x1="103.09" x2="47.15" y1="105.97" y2="99.85" gradientUnits="userSpaceOnUse"><stop offset="0" stop-color="#0ff"/><stop offset=".69" stop-color="#9e005d"/><stop offset="1" stop-color="#ed1e79"/></linearGradient><linearGradient id="s0s2g" x1="247.81" x2="301.25" y1="82.01" y2="-36.4" gradientUnits="userSpaceOnUse"><stop offset="0" stop-color="#0ff"/><stop offset=".69" stop-color="#9e005d"/><stop offset="1" stop-color="#ed1e79"/></linearGradient><linearGradient id="s0s2h" x1="44.79" x2="131.05" y1="213.75" y2="55.21" gradientUnits="userSpaceOnUse"><stop offset="0" stop-color="#0ff"/><stop offset=".69" stop-color="#9e005d"/><stop offset="1" stop-color="#ed1e79"/></linearGradient></defs><g><g><g><path fill="#e0e0e2" d="M79.643 270.868c0-2.354 15.121-4.261 33.775-4.261 18.653 0 33.774 1.907 33.774 4.26 0 2.354-15.121 4.262-33.774 4.262-18.654 0-33.775-1.908-33.775-4.261z"/></g><g><g><g><g><g><path fill="url(#s0s2a)" d="M215.85 70.778L134.246 40.48c-2.458-.913-5.198.354-6.11 2.814L73.023 191.731a4.75 4.75 0 0 0 2.799 6.106l81.602 30.297a4.75 4.75 0 0 0 6.106-2.799l55.112-148.437c.914-2.46-.335-5.208-2.794-6.12z"/></g></g></g></g></g><g><path fill="url(#s0s2b)" d="M125.46 27.99c-5.672 2.363-27.528 11.474-39.724 35.035-2.594 5.011-14.79 28.573-5.803 49.39 11.893 27.547 48.17 20.86 64.815 46.781 14.315 22.289-15.34 44.219-2.575 70.78 6.663 13.865 22.014 25.439 36.22 26.506 44.336 3.329 123.966-92.195 91.586-167.114-23.57-54.534-98.827-80.425-144.519-61.378z"/></g><g opacity=".09"><path fill="#aaaae8" d="M119.25 10.367h-.007m25.205-6.495c3.293 0 6.217.354 8.683.844 13.147 2.612 22.824 8.628 27.252 16.94 4.716 8.857 2.143 17.249-.581 26.13-2.5 8.154-5.086 16.583-1.973 25.786 2.813 8.322 10.039 10.873 17.69 13.572 7.505 2.65 15.268 5.389 19.368 13.902 4.362 9.054 3.844 21.461-1.205 28.859-7.486 10.967-28.763 17.441-52.96 16.108-31.469-1.73-57.139-15.702-68.669-37.37-18.402-34.586-.345-82.788 27.347-97.988 9.484-5.206 18.094-6.783 25.048-6.783zm22.484 142.968c21.774 0 40.339-6.38 47.29-16.566 5.173-7.575 5.713-20.264 1.256-29.513-4.217-8.755-12.11-11.541-19.742-14.234-7.495-2.646-14.573-5.145-17.286-13.165-3.044-9.002-.49-17.33 1.979-25.383 2.765-9.017 5.376-17.534.532-26.63-4.52-8.49-14.36-14.626-27.703-17.275-7.781-1.549-20.024-1.761-34.172 6.006-27.95 15.34-46.179 63.977-27.612 98.87 11.637 21.875 37.512 35.973 69.212 37.717 2.108.117 4.19.173 6.246.173z"/></g><g><g opacity=".2"><path fill="#eeedf3" d="M196.078 63.433l-9.02 6.057-78.93 52.982-12.507 8.404 17.201-46.36 12.522-8.392L153.677 57.1l9.02-6.057z"/></g><g opacity=".2"><path fill="#eeedf3" d="M214.053 70.106l-9.033 6.058-106.16 71.258v.013l-12.509 8.392 6.058-16.324v-.013l12.52-8.391v-.013l88.33-59.288 9.034-6.058z"/></g></g><g><g><path fill="#ff3131" d="M173.268 197.337l-5.993-37.624 66.654-10.618 5.993 37.624z"/></g><g><path fill="#ff7373" d="M203.599 173.216l30.33-24.12-66.654 10.617z"/></g></g><g><g><path fill="#010080" d="M144.512 93.972c2.576-2.247 4.83-13.252-.932-10.488-5.763 2.763-1.373 10.566-1.373 10.566z"/></g><g><path fill="#f8b7b0" d="M146.077 117.863c5.217 1.373 8.949-1.152 10.18-2.375 1.231-1.224-2.018-3.008-3.085-4.52-.456-.645-.555-1.612-.418-2.812.18-1.622.784-3.667 1.513-5.914l-10.435-3.227s-.32 5.41-.572 7.414a3.02 3.02 0 0 1-.247.918c-.546 1.201-1.892 1.573-4.133 2.964-2.728 1.694 1.98 6.178 7.197 7.552z"/></g><g><path fill="#e49f98" d="M143.261 106.428a3.08 3.08 0 0 1-.065.374c1.05 1.254 2.309 2.259 3.414 2.396 1.721.217 3.95-.375 6.273-1.92.265-1.456.78-3.18 1.385-5.038l-10.435-3.226s-.32 5.41-.572 7.414z"/></g><g><path fill="#f8b7b0" d="M158.05 95.838c-1.169 5.12-1.832 7.589-4.364 9.427-2.532 1.84-4.989 2.554-6.855 2.32-2.33-.293-5.332-4.409-5.657-6.677-.334-2.35-.456-8.31 1-13.894.74-2.83 4.73-5.876 8.394-5.416 3.665.46 10.338 1.73 7.483 14.24z"/></g><g><path fill="#f8b7b0" d="M140.158 94.523c.183 1.943 1.158 3.442 2.176 3.345 1.019-.096 1.696-1.75 1.51-3.694-.183-1.944-1.157-3.443-2.176-3.346-1.019.096-1.695 1.75-1.51 3.695z"/></g><g/><g><path fill="url(#s0s2c)" d="M189.112 144.712l-24.077 6.286-6.415-18.166s-5.004 30.454-5.975 33.967c-.939 3.416-1.834 3.628-3.34 3.363l-24.242-4.25c-1.664-.291-2.53-2.278-1.689-5.385.68-2.528 5.965-23.125 6.914-32.589 0 0-3.051 7.275-7.752 14.425l-22.832-8.706 2.52-6.996 15.916 4.37s5.382-11.083 11.344-17.638c1.79-1.968 6.895-4.505 9.974-5.015.916-.166 1.717-.261 2.343-.285.104 2.858 2.7 4.851 4.823 5.224 2.124.373 6.404-.327 6.996-2.53.808.289 1.63.744 2.452 1.288 3.062 2.03 5.003 2.711 6.352 5.383 2.176 4.306 8.823 23.506 8.823 23.506l18.125-4.06z"/></g><g><g><path fill="#4003a9" d="M134.932 261.296c.474 1.082 2.943 3.688 6.496 5.55 3.553 1.863 11 3.494 6.568 4.556-4.435 1.062-7.388.92-14.096-1.314-2.818-.812-2.548-.946-5.57-.82-3.02.126-5.239.925-3.812-4.912 1.425-5.837 8.878-6.555 10.414-3.06z"/></g><g><path fill="#4003a9" d="M82.986 236.813c-.236 1.157-3.289 3.806-6.368 6.375-3.08 2.572-6.68 3.917-4.24 5.23 4.225 2.278 6.306.29 12.39-3.309 2.582-1.39 2.458-.87 5.271-1.978 1.925-.758 3.556-1.769 2.69-5.605-1.322-5.862-8.982-4.454-9.743-.713z"/></g><g><path fill="url(#s0s2d)" d="M152.432 168.887s-3.37 23.428-5.652 37.483c-.262 1.586-.498 3.042-.72 4.3-.316 1.836-.578 3.265-.774 4.13-.341 1.547-.97 4.51-1.731 8.182-.275 1.337-.564 2.753-.879 4.248-2.504 12.245-5.755 28.66-5.913 30.771a34.33 34.33 0 0 0-.026 4.799c.026.315-.301.524-.59.393l-3.33-1.534a.438.438 0 0 0-.315-.026c-1.075.407-7.29 2.714-8.194 3.776-.997 1.167.393-2.884.734-7.237.262-3.239 4.156-22.761 6.66-35.02.315-1.547.604-2.976.866-4.248.511-2.491.891-4.366 1.075-5.244.262-1.272.459-4.012.603-7.369.066-1.416.118-2.937.17-4.51.25-8.234.289-17.792.302-19.614a.418.418 0 0 0-.315-.394l-5.428-1.442a.34.34 0 0 0-.275.026c-1.39.682-13.858 6.792-19.837 11.932-1.469 1.245-2.544 2.438-2.963 3.487-.066.144-.105.289-.144.42-1.194 4.811-2.347 8.705-3.344 11.511-.354 1.023-.695 1.914-1.022 2.636-.158.354-.354.812-.564 1.35-2.203 5.323-7.106 18.447-7.972 20.99-.55 1.587-.026 2.715-.026 3.882 0 1.888-3.042 2.74-4.628 1.98-1.18-.564-3.553-2.164-4.943-1.889-.315.066-.59-.17-.524-.485.891-3.71 4.169-17.228 7.132-28.542.38-1.43.747-2.832 1.114-4.17 1.521-5.624 2.859-10.2 3.62-11.878.392-.866 1.297-2.124 2.569-3.632 7.185-8.496 25.105-24.405 25.105-24.405s.645-1.951 1.723-1.791c2.348.347 2.53.755 14.422 3.133 12.836 2.568 14.384 1.267 14.014 4z"/></g></g><g><path fill="#010080" d="M157.192 87.054c-7.09-.824-12.069-1.903-14.479-5.171-2.408-3.269-.193-3.635 1.598-2.507 0 0 1.182-3.012 3.932-1.119 0 0 3.564-2.324 6.257 1.367 0 0 4.863-1.453 5.29 2.34 0 0 3.658 5.816-2.598 5.09z"/></g><g><path fill="#010080" d="M160.459 85.49c1.942 2.816 1.404 14.036-3.495 9.934-4.9-4.103.672-9.736.672-9.736z"/></g><g><path fill="#f8b7b0" d="M156.527 95.467c-.957 1.702-1.01 3.488-.12 3.99.89.5 2.39-.472 3.348-2.173.958-1.702 1.012-3.489.12-3.99-.891-.502-2.39.471-3.348 2.173z"/></g><g><path fill="#010080" d="M152.312 168.676l-29.702-5.358a.338.338 0 0 1-.258-.444l1.045-2.965a.337.337 0 0 1 .376-.219l29.224 5.115a.337.337 0 0 1 .275.39l-.568 3.208a.338.338 0 0 1-.392.273z"/></g><g><path fill="#eefaff" d="M156.072 112.075c-2.25 2.711-5.611 4.164-9.041 3.562-3.717-.651-6.539-3.542-7.573-7.26.916-.165 1.717-.26 2.343-.284.105 2.858 2.7 4.851 4.823 5.224 2.124.373 6.404-.327 6.996-2.53.808.289 1.63.744 2.452 1.288z"/></g><g><path fill="#010080" d="M162.216 85.478a1.566 1.566 0 0 0-.692-2.103l-1.411 2.795c.772.39 1.714.08 2.103-.692z"/></g><g><path fill="#010080" d="M145.398 85.737a4.94 4.94 0 0 0 3.188-6.216l-9.404 3.03a4.94 4.94 0 0 0 6.216 3.186z"/></g><g><path fill="#010080" d="M149.372 86.738a3.29 3.29 0 0 0 .27-4.646l-4.915 4.377a3.29 3.29 0 0 0 4.645.269z"/></g><g><path fill="#010080" d="M161.929 87.459a1.566 1.566 0 0 0 1.237-1.836l-3.073.598a1.566 1.566 0 0 0 1.836 1.238z"/></g></g><g><path fill="#eeedf3" d="M208.088 80.031l-1.154 3.095-46.597 125.538a2.582 2.582 0 0 1-3.317 1.508l-10.24-3.802-12.364-4.589-25.553-9.492-11.695-4.34-9.322-3.462a2.547 2.547 0 0 1-1.665-2.307 2.392 2.392 0 0 1 .144-.997l12.534-33.748v-.013l6.07-16.323v-.013l3.2-8.614 17.215-46.348 8.745-23.56a2.563 2.563 0 0 1 3.304-1.508l16.284 6.044 33.38 12.39 6.202 2.308 11.76 4.366 1.548.577a2.55 2.55 0 0 1 1.52 3.29zm7.761-9.256l-1.796-.669-11.76-4.366-6.215-2.307-33.38-12.39-28.452-10.568c-2.452-.904-5.192.354-6.11 2.82l-15.314 41.22-17.201 46.361-3.212 8.614v.013l-6.058 16.324-13.334 35.898c-.157.446-.249.904-.275 1.35a4.711 4.711 0 0 0 3.081 4.76l15.156 5.624 11.433 4.248 30.156 11.197 10.987 4.078 13.871 5.152c2.452.918 5.192-.34 6.11-2.792l54.097-145.743 1.01-2.701a4.756 4.756 0 0 0-2.794-6.123z"/></g><g><g><path fill="#e0e0e2" d="M131.702 223.152l10.974 4.078c.315-1.495.604-2.911.879-4.248l-10.987-4.078c-.262 1.272-.55 2.7-.865 4.248z"/></g><g><path fill="#e0e0e2" d="M89.865 207.629l10.96 4.064c.21-.538.407-.996.565-1.35.327-.722.668-1.613 1.022-2.636L90.98 203.46c-.367 1.338-.734 2.74-1.114 4.17z"/></g></g><g><g><g><path fill="#c8c7d9" d="M114.315 206.879a4.47 4.47 0 1 1 3.111-8.38 4.468 4.468 0 0 1 2.633 5.746 4.468 4.468 0 0 1-5.744 2.634z"/></g></g></g><g><path fill="#f8b7b0" d="M95.966 129.94c1.178.227 2.992-.111 3.874-.574.882-.462 1.723-3.15 2-5.073.275-1.925-2.21-1.682-2.21-1.682s.969-.384 2.548-.6c1.578-.217 2.202-2.018-.083-1.988-2.287.031-4.512 1.12-6.626 5.453 0 0-2.173 4.029.011 5.773z"/></g><g><g opacity=".1"><path fill="#3f3f3f" d="M158.87 20.566l-99.201 8.198a4.347 4.347 0 0 0-3.974 4.692l2.4 29.022a4.346 4.346 0 0 0 4.689 3.974l9.78-.807 4.746-.392c.935 1.018 3.322 3.605 4.31 4.541.895.847 2.4.723 3.143-.26.821-1.085 2.751-4.028 3.506-5.187l24.116-1.993 49.6-4.1a4.347 4.347 0 0 0 3.974-4.691l-2.4-29.023a4.346 4.346 0 0 0-4.689-3.974z"/></g><g opacity=".1"><path fill="#3f3f3f" d="M192.361 51.191c-.924-.11-1.738-1.145-1.627-2.07l3.879-32.41c.11-.924 1.145-1.738 2.07-1.627l32.41 3.878c.924.111 1.737 1.146 1.627 2.07l-3.879 32.41c-.11.925-1.145 1.738-2.07 1.628z"/></g><g opacity=".1"><path fill="#3f3f3f" d="M92.103 84.418a5.668 5.668 0 0 0-7.117-3.693l-36.472 11.55a5.67 5.67 0 0 0-3.693 7.118l7.52 23.746a5.67 5.67 0 0 0 7.118 3.694l3.562-1.13s6.649 4.621 8.97 5.993c1.674.988 3.945.268 4.743-1.503 1.11-2.458 3.886-10.063 3.886-10.063l15.31-4.848a5.67 5.67 0 0 0 3.694-7.118z"/></g><g opacity=".1"><path fill="#3f3f3f" d="M214.492 95.176c-.359-1.51-2.365-1.83-3.178-.509l-3.295 5.356-1.847-7.756a2.922 2.922 0 0 0-3.519-2.165l-21.347 5.086a2.922 2.922 0 0 0-2.165 3.519l5.086 21.347a2.92 2.92 0 0 0 3.518 2.165l21.348-5.086a2.92 2.92 0 0 0 2.165-3.518l-1.849-7.756 5.356 3.295c1.322.813 2.967-.378 2.608-1.888z"/></g><g opacity=".1"><path fill="#3f3f3f" d="M21.88 59.367c-1.112-2.329-4.483-2.15-5.344.283L9.65 79.125c-.861 2.434 1.65 4.692 3.978 3.58L26.81 76.41a2.895 2.895 0 0 0 1.365-3.861z"/></g><g opacity=".1"><path fill="#3f3f3f" d="M28.81 6.223a8.494 8.494 0 1 0 5.131 16.191 8.494 8.494 0 0 0-5.132-16.191z"/></g><g opacity=".1"><path fill="#3f3f3f" d="M262.162 221.225a5.697 5.697 0 1 0-6.84 9.112 5.697 5.697 0 0 0 6.84-9.112z"/></g><g opacity=".1"><path fill="#3f3f3f" d="M242.87 74.962c-4.452-3.93-4.876-10.726-.945-15.178 3.93-4.453 10.725-4.876 15.177-.946 4.453 3.93 4.877 10.725.946 15.178-3.93 4.452-10.725 4.876-15.178.946z"/></g><g opacity=".1"><path fill="#3f3f3f" d="M75.288 144.832c-7.7 2.406-11.993 10.597-9.588 18.298 2.406 7.701 10.598 11.994 18.298 9.588 7.701-2.405 11.994-10.598 9.588-18.298-2.405-7.7-10.598-11.993-18.298-9.588z"/></g></g><g><g><g><path fill="url(#s0s2e)" d="M160.6 13.483L54.177 22.28a4.663 4.663 0 0 0-4.262 5.032l2.573 31.136a4.661 4.661 0 0 0 5.031 4.262l10.491-.866 5.091-.421c1.005 1.093 3.565 3.869 4.625 4.872.96.908 2.575.775 3.372-.278.881-1.164 2.951-4.323 3.762-5.566l25.869-2.138 53.211-4.399a4.662 4.662 0 0 0 4.263-5.03l-2.574-31.137a4.661 4.661 0 0 0-5.03-4.264z"/></g><g><path fill="#fff" d="M75.839 41.8a5.132 5.132 0 0 0 1.39-3.955l-.208-2.525c-.232-2.81-2.6-5.082-5.414-4.934a5.15 5.15 0 0 0-4.867 5.567l.227 2.74a5.13 5.13 0 0 0 2.023 3.673 10.888 10.888 0 0 0-6.43 8.124c-.244 1.412.964 2.658 2.391 2.54l16.621-1.374c1.428-.118 2.414-1.545 1.942-2.898a10.882 10.882 0 0 0-7.675-6.957z"/></g><g><g><path fill="#fff" d="M118.775 26.47l-21.209 1.753a3.153 3.153 0 0 0-2.883 3.402l.862 10.422a3.154 3.154 0 0 0 3.403 2.883l2.072-.171s3.034 3.327 4.123 4.36c.786.741 2.106.632 2.758-.23.906-1.196 3.352-4.976 3.352-4.976l8.903-.736a3.155 3.155 0 0 0 2.884-3.403l-.861-10.42a3.154 3.154 0 0 0-3.404-2.884z"/></g><g><path fill="#e2e2e2" d="M99.916 33.525a1.311 1.311 0 0 1-.106-2.617l17.195-1.421a1.318 1.318 0 0 1 1.415 1.198 1.313 1.313 0 0 1-1.2 1.415l-17.195 1.421a1.544 1.544 0 0 1-.11.004z"/></g><g><path fill="#e2e2e2" d="M100.29 38.037a1.312 1.312 0 0 1-.107-2.619l17.194-1.42c.712-.072 1.355.476 1.415 1.197a1.313 1.313 0 0 1-1.2 1.416L100.4 38.033a1.513 1.513 0 0 1-.11.004z"/></g><g><path fill="#e2e2e2" d="M100.662 42.548a1.311 1.311 0 0 1-.106-2.617l7.752-.641a1.321 1.321 0 0 1 1.415 1.198 1.311 1.311 0 0 1-1.2 1.415l-7.752.641a1.509 1.509 0 0 1-.11.004z"/></g></g><g><path fill="#fff" d="M158.562 40.96a9.547 9.547 0 0 0-2.347-5.527l-.185-2.241c-.312-3.784-3.31-6.694-6.962-7.034l-.055-.662a1.35 1.35 0 1 0-2.692.223l.055.66c-3.547.937-6.026 4.3-5.713 8.084l.186 2.238-.002.002a9.577 9.577 0 0 0-1.401 5.837l.081.973a.9.9 0 0 0 .972.825l3.802-.315c-.033.28.07.577.358.755a7.679 7.679 0 0 0 4.684 1.121 7.684 7.684 0 0 0 4.439-1.875.762.762 0 0 0 .229-.803l3.807-.315a.902.902 0 0 0 .825-.973z"/></g></g><g><path fill="#ff3131" d="M142.248 43.088a4.065 4.065 0 1 1-8.103.67 4.065 4.065 0 0 1 8.103-.67z"/></g></g><g><g><path fill="#f8aa00" d="M198.943 9.349c.119-.992 1.23-1.865 2.22-1.746l34.77 4.16c.991.12 1.864 1.23 1.745 2.221l-4.16 34.77c-.12.99-1.23 1.864-2.22 1.745l-34.77-4.16c-.991-.12-1.864-1.23-1.746-2.221z"/></g><g><path fill="#fb3" d="M232.691 15.022c.6.072 1.128.744 1.056 1.344l-3.488 29.146c-.072.6-.743 1.128-1.343 1.056L199.77 43.08c-.6-.072-1.128-.744-1.056-1.343l3.488-29.147c.071-.6.743-1.128 1.343-1.056z"/></g><g><path fill="#ed9e00" d="M216.974 31.632l-3.49 2.744a1.477 1.477 0 0 1-2.075-.25 1.48 1.48 0 0 0-2.077-.247l-5.167 4.063c-1.036.813-.57 2.473.738 2.63l.608.072 12.166 1.456 6.843.82c1.307.155 2.151-1.347 1.337-2.382l-6.807-8.658a1.478 1.478 0 0 0-2.076-.248z"/></g><g><path fill="#ed9e00" d="M210.707 25.767a2.604 2.604 0 1 1-5.173-.62 2.604 2.604 0 0 1 5.173.62z"/></g></g><g><g><path fill="url(#s0s2f)" d="M78.725 75.305L39.598 87.696a6.083 6.083 0 0 0-3.962 7.636l8.068 25.475a6.082 6.082 0 0 0 7.635 3.962l3.822-1.21s7.134 4.955 9.624 6.427c1.795 1.06 4.23.288 5.088-1.611 1.19-2.638 4.168-10.796 4.168-10.796l16.424-5.201a6.082 6.082 0 0 0 3.963-7.636L86.36 79.267a6.084 6.084 0 0 0-7.636-3.962z"/></g><g><path fill="#ffb6ea" d="M78.837 88.522L47.115 98.568a1.967 1.967 0 0 1-1.188-3.75L77.65 84.772a1.968 1.968 0 0 1 1.188 3.75z"/></g><g><path fill="#ffb6ea" d="M81.67 97.47l-31.72 10.046a1.966 1.966 0 1 1-1.188-3.75l31.72-10.045a1.966 1.966 0 1 1 1.189 3.75z"/></g><g><path fill="#ffb6ea" d="M67.086 111.936l-14.303 4.53a1.967 1.967 0 0 1-1.187-3.75l14.302-4.53a1.968 1.968 0 0 1 1.188 3.75z"/></g></g><g><g><path fill="#ff3158" d="M213.855 88.877l-3.535 5.746-1.982-8.32a3.134 3.134 0 0 0-3.775-2.323l-22.9 5.456a3.134 3.134 0 0 0-2.323 3.775l5.456 22.902a3.134 3.134 0 0 0 3.775 2.32l22.9-5.455a3.133 3.133 0 0 0 2.323-3.774l-1.981-8.32 5.745 3.534c1.417.873 3.183-.405 2.796-2.024l-3.089-12.97c-.386-1.62-2.538-1.965-3.41-.547z"/></g><g><path fill="#fff" d="M192.486 95.039l8.367 5.147-5.148 8.367"/></g></g><g><g><path fill="#ff7d43" d="M20.392 69.25L13.64 55.11c-1.193-2.498-4.81-2.308-5.734.303L.518 76.307c-.923 2.609 1.77 5.032 4.268 3.838l14.141-6.752a3.107 3.107 0 0 0 1.465-4.143z"/></g><g><path fill="#fff" d="M16.044 66.932l-1.636-2.584.104-.294a.68.68 0 1 0-1.283-.453l-2.288 6.471a4.61 4.61 0 0 0-1.732-1.066c-1.743-.617-3.482-.198-3.883.935-.4 1.134.688 2.553 2.432 3.17 1.722.607 3.435.206 3.864-.895.005-.01.012-.02.016-.032l1.598-4.522.958 1.515a.804.804 0 0 0 1.439-.163l.49-1.383a.81.81 0 0 0-.079-.699z"/></g><g><path fill="#f8b7b0" d="M199.832 133.495c.011-1.527-2.632-3.976-3.36-2.994-.726.982-2.732 4.514-2.387 6.238.345 1.726 1.217 3.028 1.217 3.028l-.502 1.352s4.98-1.007 5.032-7.624z"/></g></g><g><g><path fill="#ff3131" d="M34.924 6.32a9.11 9.11 0 0 1-5.934 11.438c-4.796 1.52-9.917-1.137-11.438-5.933A9.112 9.112 0 1 1 34.924 6.32z"/></g><g><path fill="#fff" d="M29.783 4.686a3.249 3.249 0 0 0-4.519 1.312 3.25 3.25 0 0 0-4.451 1.53c-.732 1.59-.015 3.477 1.54 4.282l4.558 2.366c.624.324 1.394.08 1.717-.544l2.364-4.56c.807-1.553.306-3.509-1.209-4.386z"/></g></g><g><g><path fill="#ff3131" d="M268.662 233.34a6.112 6.112 0 1 1-9.774-7.34 6.112 6.112 0 0 1 9.774 7.34z"/></g><g><path fill="#fff" d="M267.55 229.896a2.18 2.18 0 0 0-2.478-1.956 2.18 2.18 0 0 0-2.568-1.833c-1.154.22-1.904 1.347-1.739 2.51l.486 3.409c.066.466.5.792.966.725l3.41-.485c1.162-.166 2.035-1.201 1.923-2.37z"/></g></g><g><g><path fill="url(#s0s2g)" d="M246.232 61.72c-.856-6.313 3.57-12.124 9.883-12.98 6.313-.854 12.125 3.57 12.98 9.884.855 6.313-3.57 12.125-9.884 12.98-6.313.855-12.124-3.57-12.98-9.884z"/></g><g><g><path fill="#fff" d="M261.863 54.201a1.27 1.27 0 0 0-1.78-.147 20.403 20.403 0 0 1-3.436 2.762l-1.093-.446a.179.179 0 0 0-.234.098l-2.348 5.764a.18.18 0 0 0 .099.233l.819.333a3.114 3.114 0 0 0 1.922 2.53l.481.197 3.163 1.288.706.288a1.259 1.259 0 1 0 1.628-1.672l.51.208a1.255 1.255 0 1 0 1.572-1.78 1.259 1.259 0 0 0 1.219-.778 1.263 1.263 0 0 0-.691-1.643l-.01-.004c.306-.122.566-.36.7-.688.262-.644-.05-1.38-.692-1.643l-4.45-1.812c1.091-.898 2.71-2.186 1.915-3.088z"/></g><g><path fill="#fff" d="M252.459 55.11a.373.373 0 0 1 .452-.191l1.682.685c.16.066.256.292.19.452l-2.482 6.094a.373.373 0 0 1-.452.19l-1.682-.685a.373.373 0 0 1-.19-.452z"/></g></g></g><g><g><path fill="url(#s0s2h)" d="M57.993 165.983c-2.337-8.333 2.524-16.983 10.857-19.32 8.333-2.336 16.983 2.525 19.32 10.858 2.336 8.333-2.525 16.983-10.858 19.32-8.333 2.336-16.983-2.525-19.32-10.858z"/></g><g><g><path fill="#fff" d="M72.322 151.864c-.927-.148-1.814.434-1.993 1.385-.002.04-.201 2.732-1.214 5.862l-1.531.479a.244.244 0 0 0-.16.304l2.521 8.07c.04.128.176.2.304.16l1.148-.358a4.229 4.229 0 0 0 4.202.99l.674-.21 4.426-1.384.99-.309a1.714 1.714 0 0 0 1.124-2.144 1.705 1.705 0 0 0-.863-1.014l.713-.222a1.714 1.714 0 0 0 1.122-2.145 1.702 1.702 0 0 0-1.013-1.079 1.711 1.711 0 0 0 .606-1.87 1.716 1.716 0 0 0-2.145-1.125l-.012.004c.214-.393.282-.866.138-1.326a1.714 1.714 0 0 0-2.145-1.123l-6.23 1.946c.368-1.884.95-4.632-.662-4.89z"/></g><g><path fill="#fff" d="M63.251 160.944a.507.507 0 0 1 .31-.59l2.355-.736c.224-.07.52.085.59.31l2.665 8.531a.507.507 0 0 1-.31.59l-2.355.736a.507.507 0 0 1-.59-.309z"/></g></g></g></g></g></svg>