<svg xmlns="http://www.w3.org/2000/svg" width="307" height="254" viewBox="0 0 307 254"><g><g><g><path fill="#1a4ced" d="M4.043 133.63c7.853-5.123 15.976 4.311 19.894 13.312 3.918 9 7.414 18.747 16.842 21.511 9.429 2.763 14.588 4.34 17.493 12.43 2.906 8.092 2.684 10.539 8.935 15.049 6.25 4.511 12.734 12.556 13.65 21.516L48.26 232.317s-8.384-3.409-16.582-13.644c-8.199-10.234-6.256-17.225-9.193-21.645-2.937-4.418-13.366-6.347-15.327-14.662-1.961-8.315 1.424-14.267-2.91-23.335-4.331-9.068-6.427-21.34-.204-25.4z"/></g><g><path fill="none" stroke="#fff" stroke-linecap="round" stroke-linejoin="round" stroke-miterlimit="50" stroke-width=".5" d="M8.731 138.708c10.361 27.67 16.336 42.626 56.363 85.93"/></g><g><path fill="none" stroke="#fff" stroke-linecap="round" stroke-linejoin="round" stroke-miterlimit="50" stroke-width=".5" d="M18.121 141.73s1.263 7.274-.75 18.4"/></g><g><path fill="none" stroke="#fff" stroke-linecap="round" stroke-linejoin="round" stroke-miterlimit="50" stroke-width=".5" d="M8.377 165.123s1.71 3.166 17.335 10.563"/></g><g><path fill="none" stroke="#fff" stroke-linecap="round" stroke-linejoin="round" stroke-miterlimit="50" stroke-width=".5" d="M43.957 171.993s5.365 20.032 1.004 29.86"/></g><g><path fill="none" stroke="#fff" stroke-linecap="round" stroke-linejoin="round" stroke-miterlimit="50" stroke-width=".5" d="M29.41 211.18s11.653 4.648 25.241 1.934"/></g></g><g><g><path fill="#1a4ced" d="M299.617 175.64c6.805 2.698 3.53 15.119.668 22.092-2.865 6.975 4.787 16.874-14.915 28.445l-24.33-14.748s5.88-17.076 15.426-20.498c9.829-3.525 13.583-19.085 23.15-15.291z"/></g><g><path fill="none" stroke="#fff" stroke-linecap="round" stroke-linejoin="round" stroke-miterlimit="50" stroke-width=".5" d="M298.165 178.76s-9.075 22.162-24.935 40.058"/></g><g><path fill="none" stroke="#fff" stroke-linecap="round" stroke-linejoin="round" stroke-miterlimit="50" stroke-width=".5" d="M291.498 178.446s-2.199 7.864-.49 14.557"/></g><g><path fill="none" stroke="#fff" stroke-linecap="round" stroke-linejoin="round" stroke-miterlimit="50" stroke-width=".5" d="M297.792 205.368s-11.27 4.246-17.554 4.665"/></g></g><g><path fill="#35826f" d="M129.79 231.983h171.24s-7.528-16.971-23.836-17.844c0 0 1.5-17.538-13.15-22.609-15.143-5.242-20.386-5.111-32.908-18.646-12.523-13.534-23.29-21.688-44.262-20.524-20.973 1.165-44.27 17.658-57.084 79.623z"/></g><g opacity=".2"><path d="M225.233 25.594v34.27l-12.451 7.857 12.45-.535v6.556h51.242V25.594z"/></g><g><path fill="#4ebfa5" d="M12.136 237.093h199.727s-1.106-21.246-24.99-30.273c-23.884-9.028-24.467-8.446-32.33-18.93-7.863-10.485-17.382-16.017-28.348-14.853-10.966 1.165-16.694 5.243-16.694 5.243s-16.405-5.534-27.763 1.164c-11.358 6.699-22.425 27.376-22.425 27.376s-45.721 6.089-47.177 30.273z"/></g><g><path fill="#1a4ced" d="M214.051 235.065V174.3h6.361v60.765z"/></g><g opacity=".2"><path d="M220.412 200.847v-26.548h-6.36v19.108z"/></g><g><path fill="#1a4ced" d="M236.844 176.217H197.62c-1.293 0-2.41-1.185-2.678-2.84l-.845-5.235c-.36-2.227.938-4.322 2.677-4.322h40.915c1.739 0 3.037 2.095 2.678 4.322l-.846 5.234c-.267 1.656-1.384 2.841-2.677 2.841z"/></g><g><path fill="#1a4ced" d="M217.23 231.983c-8.367 0-15.947 3.003-21.489 7.867-.934.819-.382 2.353.86 2.353h41.26c1.242 0 1.796-1.534.861-2.353-5.542-4.864-13.123-7.867-21.491-7.867z"/></g><g><path fill="#1a4ced" d="M238.722 239.85c-4.83-4.24-11.211-7.062-18.31-7.718V174.3h-6.36v57.833c-7.101.656-13.48 3.479-18.31 7.718-.935.819-.383 2.353.86 2.353h41.26c1.241 0 1.795-1.534.86-2.353z"/></g><g><g><g><path fill="#942754" d="M52.927 154.767c0-.328.329-.657.658-.657h5.893c.329 0 .657.329.657.657v2.363c0 .328-.328.657-.657.657h-5.893c-.329 0-.658-.329-.658-.657z"/></g><g><path fill="#ffcf30" d="M67.875 127.85c0-6.265-5.08-11.344-11.344-11.344-6.265 0-11.343 5.079-11.343 11.344 0 2.286.68 4.861 1.846 7.211 1.323 2.671 2.172 5.552 2.284 8.531l.15 2.328h14.126l.152-2.328c.111-2.979.959-5.86 2.284-8.53 1.166-2.35 1.845-4.926 1.845-7.212z"/></g><g><path fill="#ff1a79" d="M49.025 145.92h15.012v8.559c0 .613-.613 1.227-1.226 1.227H50.25c-.612 0-1.226-.614-1.226-1.227z"/></g><g><path fill="none" stroke="#fff" stroke-linecap="round" stroke-linejoin="round" stroke-miterlimit="50" stroke-width=".52" d="M59.259 136.95v0-6.308 0h-.004c-.021-2.296-.4-3.226-.87-3.226-.242 0-.46.243-.618.79-.158-.547-.377-.79-.618-.79s-.459.243-.618.79c-.158-.547-.377-.79-.618-.79s-.46.243-.618.79c-.157-.547-.376-.79-.617-.79-.47 0-.85.93-.87 3.226h-.003v6.308"/></g><g><g><path fill="none" stroke="#942754" stroke-miterlimit="50" stroke-width=".52" d="M49.025 148.132h15.012"/></g><g><path fill="none" stroke="#942754" stroke-miterlimit="50" stroke-width=".52" d="M49.025 149.92h15.012"/></g><g><path fill="none" stroke="#942754" stroke-miterlimit="50" stroke-width=".52" d="M49.025 151.706h15.012"/></g><g><path fill="none" stroke="#942754" stroke-miterlimit="50" stroke-width=".52" d="M49.025 153.493h15.012"/></g></g></g><g><g><g><path fill="none" stroke="#fff" stroke-linecap="round" stroke-linejoin="round" stroke-miterlimit="50" stroke-width=".75" d="M56.843 107.037v4.95"/></g><g><path fill="none" stroke="#fff" stroke-linecap="round" stroke-linejoin="round" stroke-miterlimit="50" stroke-width=".75" d="M45.912 109.966l2.475 4.288"/></g><g><g><path fill="none" stroke="#fff" stroke-linecap="round" stroke-linejoin="round" stroke-miterlimit="50" stroke-width=".75" d="M37.91 117.968l4.287 2.476"/></g><g><path fill="none" stroke="#fff" stroke-linecap="round" stroke-linejoin="round" stroke-miterlimit="50" stroke-width=".75" d="M70.949 137.043l4.287 2.476"/></g></g><g><g><path fill="none" stroke="#fff" stroke-linecap="round" stroke-linejoin="round" stroke-miterlimit="50" stroke-width=".75" d="M34.98 128.9h4.952"/></g><g><path fill="none" stroke="#fff" stroke-linecap="round" stroke-linejoin="round" stroke-miterlimit="50" stroke-width=".75" d="M73.131 128.9h4.95"/></g></g><g><g><path fill="none" stroke="#fff" stroke-linecap="round" stroke-linejoin="round" stroke-miterlimit="50" stroke-width=".75" d="M37.91 139.83l4.287-2.475"/></g><g><path fill="none" stroke="#fff" stroke-linecap="round" stroke-linejoin="round" stroke-miterlimit="50" stroke-width=".75" d="M70.949 120.755l4.287-2.475"/></g></g><g><path fill="none" stroke="#fff" stroke-linecap="round" stroke-linejoin="round" stroke-miterlimit="50" stroke-width=".75" d="M64.987 114.794l2.475-4.288"/></g></g></g></g><g><path fill="#fff" d="M61.666 95.86l5.875-12.928-14.145 1.242 2.598 3.671-12.434 7.75 4.064 5.742 11.444-9.15z"/></g><g><path fill="#fff" d="M288.992 106.78l-5.875-12.927 14.145 1.241-2.598 3.671 12.435 7.75-4.065 5.743-11.443-9.15z"/></g><g><path fill="#fff" d="M27.376 61.887h73.097s.39-18.735-17.473-16.6c0 0-4.368-10.871-18.638-8.348-14.27 2.524-14.368 13.493-14.368 13.493s-10.386-3.106-13.299 6.796c0 0-8.057.485-9.319 4.66z"/></g><g><g><path fill="#fff" d="M115.308 21.895l-1.424 1.142-1.425 1.142c2.965 5.09 4.358 12.668 4.358 12.668 2.607-.64 6.114 3.457 6.114 3.457l5.837-4.678s-3.237-4.315-2.045-6.72c0 0-7.091-3.009-11.415-7.011z"/></g><g><path fill="none" stroke="#b5b5b5" stroke-miterlimit="50" stroke-width=".77" d="M113.884 23.037l7.234 9.025"/></g><g><path fill="none" stroke="#b5b5b5" stroke-miterlimit="50" stroke-width=".77" d="M122.818 32.065a1.326 1.326 0 1 1-2.07 1.659 1.326 1.326 0 0 1 2.07-1.66z"/></g><g><path fill="#547cde" d="M126.973 46.667l-4.686-5.846 7.125-5.71 4.686 5.845z"/></g><g><path fill="#1a4ced" d="M126.973 46.666l24.551 30.63c.406.507 2.33-.362 4.297-1.94 1.968-1.576 3.234-3.264 2.828-3.77l-24.55-30.63z"/></g></g><g><path fill="none" stroke="#ffcf30" stroke-linecap="round" stroke-linejoin="round" stroke-miterlimit="50" stroke-width=".5" d="M124.403 53.054c-6.116 13.687-20.937 26.508-33.783 25.773-11.017-.63-10.824-6.456-9.319-8.591 1.815-2.575 8.155-2.294 8.3 4.022.146 6.316-3.586 13.16-9.51 19.13-5.925 5.97-9.142 12.96-9.142 12.96v0"/></g><g><path fill="none" stroke="#ffcf30" stroke-linecap="round" stroke-linejoin="round" stroke-miterlimit="50" stroke-width=".5" d="M136.925 36.56c4.076-7.678 12.377-14.522 20.968-17.725 8.591-3.203 16.163-5.97 17.765-11.066 1.601-5.096-3.35-8.446-8.737-5.97-5.388 2.475-4.515 12.813 8.154 11.94 12.67-.874 36.112-4.078 42.082 6.989"/></g><g><path fill="#ffcf30" d="M223.548 23.037v34.271l-12.45 7.856 12.45-.535v6.556h51.242V23.037z"/></g><g><g><path fill="#fff" d="M232.446 40.821c0-6.406 5.194-11.6 11.6-11.6 6.408 0 11.601 5.194 11.601 11.6 0 6.407-5.193 11.6-11.6 11.6s-11.6-5.193-11.6-11.6z"/></g><g><path fill="#fff" d="M244.047 60.528V40.821h19.707v19.707z"/></g><g><path fill="#ff1a79" d="M244.047 52.422c6.407 0 11.6-5.194 11.6-11.6h-11.6z"/></g></g><g><g opacity=".2"><g opacity=".2"><path d="M257.015 87.234c0-2.415 2.415-4.83 4.83-4.83h29.706c2.414 0 4.829 2.415 4.829 4.83v77.955c0 2.415-2.415 4.83-4.83 4.83h-29.706c-2.414 0-4.829-2.415-4.829-4.83z"/></g></g><g><g><path fill="#fff" d="M254.882 84.868c0-2.414 2.414-4.829 4.829-4.829h29.706c2.415 0 4.83 2.415 4.83 4.83v77.955c0 2.414-2.415 4.829-4.83 4.829h-29.706c-2.415 0-4.83-2.415-4.83-4.83z"/></g><g><path fill="#ffcf30" d="M271.579 92.604a4.543 4.543 0 1 1-9.087.001 4.543 4.543 0 0 1 9.087 0z"/></g><g><path fill="#ff1a79" d="M277.549 92.604a4.544 4.544 0 1 1 9.087 0 4.544 4.544 0 0 1-9.087 0z"/></g><g><path fill="#35826f" d="M271.579 106.636a4.543 4.543 0 1 1-9.087 0 4.543 4.543 0 0 1 9.087 0z"/></g><g><path fill="#b514ff" d="M286.636 106.636a4.544 4.544 0 1 1-9.088-.001 4.544 4.544 0 0 1 9.088 0z"/></g><g><path fill="#8ab1ff" d="M271.579 120.667a4.543 4.543 0 1 1-9.088 0 4.543 4.543 0 0 1 9.088 0z"/></g><g><path fill="#7c2aff" d="M286.636 120.667a4.543 4.543 0 1 1-9.086 0 4.543 4.543 0 0 1 9.086 0z"/></g><g><path fill="#5283ff" d="M271.579 134.699a4.543 4.543 0 1 1-9.088 0 4.543 4.543 0 0 1 9.088 0z"/></g><g><path fill="#0c11ff" d="M277.549 134.699a4.544 4.544 0 1 1 9.087 0 4.544 4.544 0 0 1-9.087 0z"/></g><g><g><path fill="#8ab1ff" d="M280.708 149.672l-3.367-3.368-9.45 9.45a2.869 2.869 0 0 0-.79 2.562.876.876 0 0 1-.242.785l-.855.855a.743.743 0 1 0 1.053 1.052l.854-.854a.88.88 0 0 1 .786-.243 2.871 2.871 0 0 0 2.562-.79z"/></g><g><path fill="#ff1a79" d="M282.077 149.211l-.608-.608 1.239-1.238a2.163 2.163 0 1 0-3.061-3.06l-1.239 1.238-.607-.608a.647.647 0 0 0-.914.915l4.276 4.275a.646.646 0 1 0 .915-.914z"/></g></g></g></g><g><g><path fill="#1a4ced" d="M164.604 226.526l-.776 9.513s-11.649 4.66-11.649 6.213c0 1.554 20.58 2.039 21.357 0 .776-2.04 1.747-15.726 1.747-15.726z"/></g><g><path fill="#1a4ced" d="M140.769 226.526l-2.925 9.513s-11.65 4.66-11.65 6.213c0 1.554 20.581 2.039 21.357 0 .777-2.04 3.895-15.726 3.895-15.726z"/></g><g><path fill="#ffcf30" d="M206.674 140.13s-45.724 2.43-51.741 15.823c-6.096 13.563-15.726 72.563-15.726 72.563h12.862l17.182-63.05s45.43-1.375 55.478-5.97c10.047-4.596 13.978-19.366 13.978-19.366z"/></g><g opacity=".2"><path d="M157.695 207.87l11.556-42.404s45.43-1.375 55.478-5.97c10.047-4.596 13.978-19.367 13.978-19.367h-32.033s-45.724 2.431-51.741 15.824c-.69 1.534-1.426 3.654-2.186 6.2z"/></g><g><path fill="#ffcf30" d="M238.707 140.13s2.622 7.426 0 16.162c-2.62 8.737-12.23 10.775-20.53 10.775h-27.681a4.383 4.383 0 0 0-4.326 3.675l-9.492 57.774h-14.853s1.6-52.684 4.95-64.215c5.048-17.377 18.056-18.173 49.654-20.94z"/></g><g><path fill="#1a4ced" d="M185.354 81.742c-5.97 5.096-9.028 40.77-9.028 40.77l-25.336 5.824v7.573l27.052-1.49a9.438 9.438 0 0 0 8.748-7.63l4.97-25.682z"/></g><g><path fill="#fff" d="M183.521 132.412s-6.298 1.128-8.955 1.82c-2.308.6-12.924 6.261-12.924 7.462 0 1.202 7.281.8 7.281.8s7.39-1.782 8.483-4.04l7.461-.472z"/></g><g opacity=".2"><path d="M187.338 123.956l4.423-22.848-6.407-19.366c-2.608 2.227-4.661 10.295-6.146 18.67z"/></g><g><path fill="#1a4ced" d="M198.81 74.75c8.537-1.221 20.24-.583 25.919 6.697 5.678 7.282 13.105 38.734 13.978 46.742.874 8.009 4.66 12.96-2.912 12.96h-29.85c-6.99 0-7.28-.874-7.134-8.591.145-7.718-1.02-15.58-8.738-28.395-7.718-12.814-7.863-18.638-5.242-22.424 2.622-3.785 9.857-6.4 13.98-6.989z"/></g><g opacity=".2"><path d="M198.81 132.558c-.146 7.717.146 8.591 7.136 8.591h29.849c7.573 0 3.786-4.951 2.912-12.959-.873-8.01-8.3-39.461-13.978-46.743-.324-.414-.671-.8-1.033-1.173l-25.399 44.217c.452 2.827.562 5.458.514 8.067z"/></g><g><path fill="#1a4ced" d="M219.95 78.13c8.605.725 7.98 22.685 7.98 30.256 0 7.572.144 22.278-7.282 24.609-7.427 2.329-37.422 6.552-37.422 6.552l-1.094-7.426 30.361-10.048s.583-18.783.728-25.19c.147-6.407-1.54-19.45 6.73-18.752z"/></g><g><path fill="#1a4ced" d="M185.13 59.987c1.141 2.577.568 5.329-1.28 6.147-1.848.817-4.27-.61-5.41-3.187-1.14-2.577-.567-5.328 1.28-6.147 1.849-.817 4.271.61 5.41 3.187z"/></g><g><path fill="#fff" d="M180.684 59.321c1.526 5.8 2.666 9.01 3.539 11.185.874 2.175 3.772 2.752 7.631 1.7 0 0 1.495 4.42 2.515 6.735 1.02 2.315 11.867.843 10.557-3.227-1.31-4.07-3.01-8.774-3.01-8.774s4.539-20.34-9.804-21.674c-14.342-1.333-15.427 11.693-11.428 14.055z"/></g><g><path fill="#252933" d="M187.082 49.99s3.375 4.88 8.971 4.965c0 0 1.155 8.475 5.863 11.985 0 0 7.286-3.51 4.709-7.79 0 0 6.308-3.682-1.243-10.958 0 0 4.672-1.73 4.495-3.698-.178-1.968-8.835-.655-8.835-.655s-9.903-13.21-16.36-11.998c-3.642.685-4.264 6.421-4.264 6.421s-7.64-2.997-10.66 1.198c-3.021 4.195 3.909 11.984 3.909 11.984s-2.99.938-2.932 3.254c.117 4.6 9.95 4.623 9.95 4.623l-.267-2.91s2.844.684 2.576-.257c-.266-.943-1.688-2.226-1.688-2.226s4.62-1.2 5.776-3.938z"/></g><g><path fill="#1a4ced" d="M198.786 63.81c-1.981-.4-3.135-2.964-2.577-5.727.558-2.763 2.616-4.678 4.597-4.278 1.98.4 3.134 2.964 2.576 5.726-.558 2.763-2.616 4.678-4.596 4.278z"/></g><g><g><g><path fill="#1a4ced" d="M200.922 58.515a1.165 1.165 0 0 1-1.125-1.467c1.652-6.19.372-14.8.36-14.885-.097-.636.34-1.23.976-1.328.64-.1 1.23.34 1.326.977.057.37 1.37 9.17-.413 15.837-.138.522-.61.866-1.124.866z"/></g></g></g><g><path fill="none" stroke="#103094" stroke-miterlimit="50" stroke-width=".5" d="M213.175 90.222v0l-.681 31.852v0l-30.362 10.047v0"/></g></g><g><path fill="#252933" d="M163.196 144.44h-60.539L92.365 99.385a2.036 2.036 0 0 1 1.984-2.488h55.552c1.424 0 2.66.985 2.976 2.372z"/></g><g><path fill="#252933" d="M127 144.44v-2.572h68.048v2.572z"/></g><g><g><g><g><path fill="#fff" d="M104.237 150.031L88.145 253.318h-4.077l11.238-103.287z"/></g><g><path fill="#fff" d="M123.846 242.931l-5.413-92.9h-8.931l9.779 92.9z"/></g></g><g><g><path fill="#fff" d="M171.226 150.031l-16.092 103.287h-4.077l11.239-103.287z"/></g><g><path fill="#fff" d="M190.835 242.931l-5.413-92.9h-8.931l9.779 92.9z"/></g></g></g></g><g opacity=".2"><g opacity=".2"><path d="M103.186 156.78l1.051-6.75h-8.93l-.56 5.142z"/></g><g opacity=".2"><path d="M118.433 150.03h-8.931l.854 8.115 8.645 1.647z"/></g></g><g opacity=".2"><g opacity=".2"><path d="M170.183 156.78l1.051-6.75h-8.93l-.56 5.142z"/></g><g opacity=".2"><path d="M185.43 150.03h-8.931l.854 8.115 8.645 1.647z"/></g></g><g><path fill="#fff" d="M80.026 150.031v-5.59h114.851v5.59z"/></g><g><path fill="none" stroke="#ffcf30" stroke-miterlimit="50" stroke-width=".5" d="M80.026 148.1h115.022"/></g><g opacity=".15"><path fill="none" stroke="#fff" stroke-miterlimit="50" stroke-width=".5" d="M149.665 99.81l10.46 44.63"/></g><g><path fill="#ff1a79" d="M132.987 120.46a6.993 6.993 0 1 1-13.986-.001 6.993 6.993 0 0 1 13.986 0z"/></g><g><path fill="none" stroke="#fff" stroke-linecap="round" stroke-linejoin="round" stroke-miterlimit="50" stroke-width=".75" d="M151.49 36.944a4.05 4.05 0 1 1-8.101.001 4.05 4.05 0 0 1 8.102 0z"/></g><g><path fill="none" stroke="#fff" stroke-linecap="round" stroke-linejoin="round" stroke-miterlimit="50" stroke-width=".75" d="M41.961 76.558a4.052 4.052 0 1 1-8.104-.002 4.052 4.052 0 0 1 8.104.002z"/></g><g><path fill="none" stroke="#fff" stroke-linecap="round" stroke-linejoin="round" stroke-miterlimit="50" stroke-width=".75" d="M131.805 80.61a4.051 4.051 0 1 1-8.102 0 4.051 4.051 0 0 1 8.102 0z"/></g></g></svg>